<svg width="100" height="100" viewBox="0 0 100 100" fill="none" xmlns="http://www.w3.org/2000/svg">
<path d="M20.834 66.6666L41.6673 54.1666M58.334 45.8333L79.1673 33.3333M50.0007 20.8333V41.6666M50.0007 58.3333V79.1666M20.834 33.3333L41.6673 45.8333M58.334 54.1666L79.1673 66.6666M85.4173 37.4999V60.4166M56.2507 85.4166L79.1673 72.9166M18.7507 72.9166L43.7507 85.4166M14.584 62.4999V37.4999M18.7507 27.0833L43.7507 14.5833M81.2507 27.0833L56.2507 14.5833" stroke="#008F6A" stroke-width="5" stroke-linecap="round" stroke-linejoin="round"/>
<path d="M50 20.8333C53.4518 20.8333 56.25 18.035 56.25 14.5833C56.25 11.1315 53.4518 8.33325 50 8.33325C46.5482 8.33325 43.75 11.1315 43.75 14.5833C43.75 18.035 46.5482 20.8333 50 20.8333Z" stroke="#008F6A" stroke-width="5" stroke-linecap="round" stroke-linejoin="round"/>
<path d="M50 91.6665C53.4518 91.6665 56.25 88.8683 56.25 85.4165C56.25 81.9647 53.4518 79.1665 50 79.1665C46.5482 79.1665 43.75 81.9647 43.75 85.4165C43.75 88.8683 46.5482 91.6665 50 91.6665Z" stroke="#008F6A" stroke-width="5" stroke-linecap="round" stroke-linejoin="round"/>
<path d="M14.584 37.5C18.0358 37.5 20.834 34.7018 20.834 31.25C20.834 27.7982 18.0358 25 14.584 25C11.1322 25 8.33398 27.7982 8.33398 31.25C8.33398 34.7018 11.1322 37.5 14.584 37.5Z" stroke="#008F6A" stroke-width="5" stroke-linecap="round" stroke-linejoin="round"/>
<path d="M85.418 37.5C88.8697 37.5 91.668 34.7018 91.668 31.25C91.668 27.7982 88.8697 25 85.418 25C81.9662 25 79.168 27.7982 79.168 31.25C79.168 34.7018 81.9662 37.5 85.418 37.5Z" stroke="#008F6A" stroke-width="5" stroke-linecap="round" stroke-linejoin="round"/>
<path d="M85.418 75C88.8697 75 91.668 72.2018 91.668 68.75C91.668 65.2982 88.8697 62.5 85.418 62.5C81.9662 62.5 79.168 65.2982 79.168 68.75C79.168 72.2018 81.9662 75 85.418 75Z" stroke="#008F6A" stroke-width="5" stroke-linecap="round" stroke-linejoin="round"/>
<path d="M14.584 75C18.0358 75 20.834 72.2018 20.834 68.75C20.834 65.2982 18.0358 62.5 14.584 62.5C11.1322 62.5 8.33398 65.2982 8.33398 68.75C8.33398 72.2018 11.1322 75 14.584 75Z" stroke="#008F6A" stroke-width="5" stroke-linecap="round" stroke-linejoin="round"/>
<path d="M50.0013 40.625L58.3346 45.3125V54.6875L50.0013 59.375L41.668 54.6875V45.3125L50.0013 40.625Z" stroke="#008F6A" stroke-width="5" stroke-linecap="round" stroke-linejoin="round"/>
</svg>
