<svg width="100" height="100" viewBox="0 0 100 100" fill="none" xmlns="http://www.w3.org/2000/svg">
<path d="M93.75 100H87.5C87.5 96.5495 87.0605 93.2292 86.1816 90.0391C85.3027 86.849 84.0332 83.8704 82.373 81.1035C80.7129 78.3366 78.7598 75.7975 76.5137 73.4863C74.2676 71.1751 71.7448 69.222 68.9453 67.627C66.1458 66.0319 63.151 64.7786 59.9609 63.8672C56.7708 62.9557 53.4505 62.5 50 62.5C46.5495 62.5 43.2292 62.9395 40.0391 63.8184C36.849 64.6973 33.8704 65.9668 31.1035 67.627C28.3366 69.2871 25.7975 71.2402 23.4863 73.4863C21.1751 75.7324 19.222 78.2552 17.627 81.0547C16.0319 83.8542 14.7786 86.849 13.8672 90.0391C12.9557 93.2292 12.5 96.5495 12.5 100H6.25C6.25 95.2799 6.93359 90.7878 8.30078 86.5234C9.66797 82.2591 11.6374 78.3529 14.209 74.8047C16.7806 71.2565 19.8242 68.1152 23.3398 65.3809C26.8555 62.6465 30.8268 60.4492 35.2539 58.7891C31.2174 56.6081 27.7995 53.6784 25 50H21.875C20.5729 50 19.3522 49.7559 18.2129 49.2676C17.0736 48.7793 16.0807 48.112 15.2344 47.2656C14.388 46.4193 13.7207 45.4264 13.2324 44.2871C12.7441 43.1478 12.5 41.9271 12.5 40.625V28.125C12.5 26.888 12.7279 25.7161 13.1836 24.6094C13.6393 23.5026 14.2578 22.526 15.0391 21.6797C15.8203 20.8333 16.7643 20.1497 17.8711 19.6289C18.9779 19.1081 20.1335 18.8151 21.3379 18.75C22.6074 15.8854 24.2188 13.2975 26.1719 10.9863C28.125 8.67513 30.3548 6.70573 32.8613 5.07812C35.3678 3.45052 38.0697 2.19727 40.9668 1.31836C43.8639 0.439453 46.875 0 50 0C53.125 0 56.1361 0.439453 59.0332 1.31836C61.9303 2.19727 64.6159 3.45052 67.0898 5.07812C69.5638 6.70573 71.7936 8.67513 73.7793 10.9863C75.765 13.2975 77.3926 15.8854 78.6621 18.75C79.8991 18.8151 81.0547 19.1081 82.1289 19.6289C83.2031 20.1497 84.1309 20.8333 84.9121 21.6797C85.6934 22.526 86.3281 23.5026 86.8164 24.6094C87.3047 25.7161 87.5326 26.888 87.5 28.125V40.625C87.5 41.9271 87.2559 43.1478 86.7676 44.2871C86.2793 45.4264 85.612 46.4193 84.7656 47.2656C83.9193 48.112 82.9264 48.7793 81.7871 49.2676C80.6478 49.7559 79.4271 50 78.125 50C77.1484 50 76.2207 49.8535 75.3418 49.5605C73.9421 51.4811 72.3633 53.2227 70.6055 54.7852C68.8477 56.3477 66.8945 57.6823 64.7461 58.7891C69.1081 60.4492 73.0631 62.6302 76.6113 65.332C80.1595 68.0339 83.2194 71.1751 85.791 74.7559C88.3626 78.3366 90.3158 82.2591 91.6504 86.5234C92.985 90.7878 93.6849 95.2799 93.75 100ZM81.25 28.125C81.25 27.2786 80.9408 26.5462 80.3223 25.9277C79.7038 25.3092 78.9714 25 78.125 25C77.2786 25 76.5462 25.3092 75.9277 25.9277C75.3092 26.5462 75 27.2786 75 28.125V40.625C75 41.4714 75.3092 42.2038 75.9277 42.8223C76.5462 43.4408 77.2786 43.75 78.125 43.75C78.9714 43.75 79.7038 43.4408 80.3223 42.8223C80.9408 42.2038 81.25 41.4714 81.25 40.625V28.125ZM18.75 40.625C18.75 41.4714 19.0592 42.2038 19.6777 42.8223C20.2962 43.4408 21.0286 43.75 21.875 43.75H25V28.125C25 27.2786 24.6908 26.5462 24.0723 25.9277C23.4538 25.3092 22.7214 25 21.875 25C21.0286 25 20.2962 25.3092 19.6777 25.9277C19.0592 26.5462 18.75 27.2786 18.75 28.125V40.625ZM33.4473 50C35.7259 52.0182 38.2812 53.5645 41.1133 54.6387C43.9453 55.7129 46.9076 56.25 50 56.25C52.0182 56.25 53.9876 56.0221 55.9082 55.5664C57.8288 55.1107 59.6517 54.4271 61.377 53.5156C63.1022 52.6042 64.7298 51.5137 66.2598 50.2441C67.7897 48.9746 69.1406 47.4935 70.3125 45.8008C69.7917 45.0521 69.401 44.2383 69.1406 43.3594C68.8802 42.4805 68.75 41.569 68.75 40.625V28.125C68.75 26.6276 69.0755 25.2116 69.7266 23.877C70.3776 22.5423 71.3379 21.4355 72.6074 20.5566C71.5658 18.3757 70.2637 16.4062 68.7012 14.6484C67.1387 12.8906 65.3646 11.3932 63.3789 10.1562C61.3932 8.91927 59.2773 7.95898 57.0312 7.27539C54.7852 6.5918 52.4414 6.25 50 6.25C47.5911 6.25 45.2474 6.57552 42.9688 7.22656C40.6901 7.8776 38.5742 8.83789 36.6211 10.1074C34.668 11.377 32.9102 12.8906 31.3477 14.6484C29.7852 16.4062 28.4668 18.3757 27.3926 20.5566C28.6296 21.4355 29.5736 22.5423 30.2246 23.877C30.8757 25.2116 31.2174 26.6276 31.25 28.125V43.75H37.5C37.5 42.8711 37.6628 42.0573 37.9883 41.3086C38.3138 40.5599 38.7533 39.9089 39.3066 39.3555C39.86 38.8021 40.5273 38.3464 41.3086 37.9883C42.0898 37.6302 42.9036 37.4674 43.75 37.5C44.6289 37.5 45.4427 37.6628 46.1914 37.9883C46.9401 38.3138 47.5911 38.7533 48.1445 39.3066C48.6979 39.86 49.1536 40.5273 49.5117 41.3086C49.8698 42.0898 50.0326 42.9036 50 43.75C50 44.6289 49.8372 45.4427 49.5117 46.1914C49.1862 46.9401 48.7467 47.5911 48.1934 48.1445C47.64 48.6979 46.9727 49.1536 46.1914 49.5117C45.4102 49.8698 44.5964 50.0326 43.75 50H33.4473Z" fill="#008F6A"/>
</svg>
