<svg width="100" height="100" viewBox="0 0 100 100" fill="none" xmlns="http://www.w3.org/2000/svg">
<path d="M54.1664 12.5001C70.3331 12.5001 83.3331 25.5834 83.3331 41.6667C83.3331 53.3334 76.5414 63.2917 66.6664 67.9584V87.5001H37.4997V75.0001H33.3331C28.7081 75.0001 24.9997 71.2917 24.9997 66.6667V54.1667H18.7497C16.9997 54.1667 15.9997 52.0834 16.9997 50.7917L24.9997 40.2501C25.3668 32.7638 28.6007 25.7059 34.0309 20.5394C39.4611 15.373 46.6711 12.4943 54.1664 12.5001ZM54.1664 4.16675C35.0831 4.16675 19.2081 18.4584 16.9164 37.1251L10.4164 45.8334C7.99972 48.8334 7.58306 53.0001 9.33306 56.6251C10.8331 59.6251 13.4997 61.6667 16.6664 62.2917V66.6667C16.6664 74.4167 21.9997 80.9584 29.1664 82.7917V95.8334H74.9997V72.7917C85.4164 65.9584 91.6664 54.4167 91.6664 41.6667C91.6664 21.0001 74.8331 4.16675 54.1664 4.16675ZM67.0831 39.2501V37.5001C67.0831 36.8751 67.0831 36.5001 66.8331 35.9167L70.5414 33.1667C70.8331 33.0001 70.8331 32.4167 70.8331 32.0001L67.4164 26.3334C67.2081 25.9584 66.6664 25.7501 66.2497 25.9584L62.1247 27.7084C61.3747 26.9167 60.4164 26.3334 59.4164 25.9584L58.7497 21.6667C58.6247 21.0834 58.3331 20.8334 57.8331 20.8334H51.2081C50.7914 20.8334 50.4164 21.0834 50.4164 21.6667L49.8331 25.9584C48.8747 26.3334 47.9164 26.9167 47.0831 27.7084L42.7914 25.9584C42.4164 25.7501 42.0831 25.9584 41.8331 26.3334L38.4997 32.0001C38.2914 32.5834 38.2914 33.0001 38.7081 33.1667L42.2081 35.9167C42.2081 36.5001 42.0831 37.0834 42.0831 37.5001C42.0831 38.0834 42.2081 38.6667 42.2081 39.2501L38.7081 41.9584C38.2914 42.1667 38.2914 42.5417 38.4997 42.9584L41.8331 48.7917C42.0831 49.2084 42.4164 49.2084 42.7914 49.2084L46.9164 47.4167C47.9164 48.2084 48.6664 48.6251 49.8331 49.0001L50.4164 53.5001C50.4164 53.8751 50.7914 54.1667 51.2081 54.1667H57.8331C58.3331 54.1667 58.6247 53.8751 58.7497 53.5001L59.4164 49.0001C60.4164 48.6251 61.3747 48.2084 62.1247 47.4584L66.2497 49.2084C66.6664 49.2084 67.2081 49.2084 67.4164 48.7917L70.8331 42.9584C70.8331 42.5417 70.8331 42.1667 70.5414 41.9584L67.0831 39.2501ZM54.5831 43.5417C51.3331 43.5417 48.6664 40.7917 48.6664 37.5001C48.6664 34.2084 51.2081 31.6251 54.5831 31.6251C57.8331 31.6251 60.5831 34.1667 60.5831 37.5001C60.5831 40.8334 57.8331 43.5417 54.5831 43.5417Z" fill="#008F6A"/>
</svg>
