<svg width="100" height="100" viewBox="0 0 100 100" fill="none" xmlns="http://www.w3.org/2000/svg">
<g clip-path="url(#clip0_720_281)">
<path d="M25 48.3611V75H51.6389L46.0833 69.4444H30.5556V53.9166L25 48.3611Z" fill="#008F6A"/>
<path d="M96.8603 89.6945L88.8881 81.6112V88.889H11.1103V77.3612H16.6658V72.9168H11.1103V54.4445H16.6658V50.0001H11.1103V32.2223H16.6658V27.7779H11.1103V12.2501L55.3881 56.2779V48.4445L10.3047 3.58343C9.9162 3.19168 9.41981 2.92451 8.87885 2.81599C8.33788 2.70746 7.77685 2.76249 7.26729 2.97407C6.75772 3.18564 6.3227 3.54417 6.0177 4.00395C5.7127 4.46372 5.55153 5.00392 5.55473 5.55565V91.6668C5.55473 92.4035 5.84739 93.11 6.36833 93.631C6.88926 94.1519 7.5958 94.4445 8.33251 94.4445H94.8881C95.4398 94.4477 95.98 94.2866 96.4398 93.9816C96.8995 93.6766 97.2581 93.2416 97.4696 92.732C97.6812 92.2224 97.7363 91.6614 97.6277 91.1204C97.5192 90.5795 97.252 90.0831 96.8603 89.6945Z" fill="#008F6A"/>
<path d="M66.6669 83.3334H77.778C79.2514 83.3334 80.6645 82.7481 81.7064 81.7062C82.7482 80.6644 83.3335 79.2513 83.3335 77.7779V24.1667L76.9447 12.4167C76.4505 11.5607 75.737 10.852 74.8776 10.3637C74.0182 9.87538 73.0441 9.62521 72.0558 9.63897C71.0451 9.64699 70.0557 9.93059 69.1942 10.4592C68.3327 10.9879 67.6318 11.7415 67.1669 12.639L61.1113 24.2223V77.7779C61.1113 79.2513 61.6966 80.6644 62.7385 81.7062C63.7804 82.7481 65.1935 83.3334 66.6669 83.3334ZM66.6669 25.5556L72.0558 15.0834L77.778 25.5834V66.6667H66.6669V25.5556ZM66.6669 71.1945H77.778V77.9723H66.6669V71.1945Z" fill="#008F6A"/>
</g>
<defs>
<clipPath id="clip0_720_281">
<rect width="100" height="100" fill="white"/>
</clipPath>
</defs>
</svg>
