<svg width="100" height="100" viewBox="0 0 100 100" fill="none" xmlns="http://www.w3.org/2000/svg">
<path d="M91.6672 49.9999C91.6672 58.745 88.9156 67.2685 83.8023 74.3629C78.6889 81.4573 71.473 86.763 63.1767 89.5284C54.8803 92.2938 45.9242 92.3788 37.5769 89.7713C29.2295 87.1638 21.9142 81.996 16.6672 74.9999M9.13385 58.1249C7.93252 52.0825 8.08605 45.8489 9.58337 39.873C11.0807 33.8971 13.8846 28.3275 17.7931 23.5654C21.7016 18.8034 26.6174 14.9672 32.1866 12.3333C37.7559 9.69942 43.8399 8.33327 50.0005 8.33325M62.5005 49.9999H50.0005M50.0005 49.9999H37.5005M50.0005 49.9999V37.4999M50.0005 49.9999V62.4999M60.4172 9.64575C75.0588 13.4124 86.5838 24.9374 90.3547 39.5833" stroke="#008F6A" stroke-width="5" stroke-linecap="round"/>
</svg>
