<svg width="25" height="25" viewBox="0 0 25 25" fill="none" xmlns="http://www.w3.org/2000/svg">
<path d="M5.625 3.75C5.79076 3.75 5.94973 3.81585 6.06694 3.93306C6.18415 4.05027 6.25 4.20924 6.25 4.375V20.625C6.25 20.7908 6.18415 20.9497 6.06694 21.0669C5.94973 21.1842 5.79076 21.25 5.625 21.25C5.45924 21.25 5.30027 21.1842 5.18306 21.0669C5.06585 20.9497 5 20.7908 5 20.625V4.375C5 4.20924 5.06585 4.05027 5.18306 3.93306C5.30027 3.81585 5.45924 3.75 5.625 3.75ZM12.4337 4.0175C12.1986 3.85952 11.9249 3.76847 11.6419 3.75407C11.359 3.73967 11.0774 3.80247 10.8274 3.93575C10.5774 4.06904 10.3684 4.26779 10.2226 4.51073C10.0769 4.75368 9.99992 5.03169 10 5.315V19.69C9.99998 19.9742 10.0775 20.253 10.2241 20.4964C10.3707 20.7398 10.581 20.9387 10.8322 21.0715C11.0835 21.2043 11.3662 21.2661 11.6499 21.2502C11.9336 21.2343 12.2077 21.1413 12.4425 20.9813L23.0675 13.74C23.2783 13.596 23.4507 13.4026 23.5695 13.1766C23.6883 12.9506 23.7499 12.6989 23.7489 12.4436C23.7479 12.1883 23.6843 11.9371 23.5638 11.712C23.4433 11.487 23.2695 11.2948 23.0575 11.1525L12.4337 4.0175Z" fill="#0C0834"/>
</svg>
