<svg width="56" height="59" viewBox="0 0 56 59" fill="none" xmlns="http://www.w3.org/2000/svg">
<path fill-rule="evenodd" clip-rule="evenodd" d="M22.1553 0.374023L0.964844 22.7723V27.7123L22.099 5.59269L43.3432 27.8317V22.4973L22.1553 0.374023Z" fill="black"/>
<path fill-rule="evenodd" clip-rule="evenodd" d="M33.8452 0.374023L28.9219 5.57821L31.3631 8.12964L33.7889 5.59269L55.0331 27.8317V22.4973L46.233 13.3085V6.05593L41.8061 6.05231V8.68698L33.8452 0.374023Z" fill="black"/>
<path fill-rule="evenodd" clip-rule="evenodd" d="M45.7734 19.3777V42.7965H49.1973V22.9497L45.7734 19.3777Z" fill="black"/>
<path fill-rule="evenodd" clip-rule="evenodd" d="M55.0638 43.5239H0.9375V45.395H55.0638V43.5239Z" fill="black"/>
<path fill-rule="evenodd" clip-rule="evenodd" d="M32.3283 37.3788L25.3706 37.2449L26.3506 36.6984L25.281 35.1711L24.718 37.2521C24.6771 37.3896 24.7232 37.4801 24.823 37.4801L32.3283 37.3788Z" fill="black"/>
<path fill-rule="evenodd" clip-rule="evenodd" d="M28.3648 28.9863L26.1232 32.1095C25.6779 32.9274 26.4072 33.7743 26.8551 33.1446L29.0788 29.996C29.4498 29.4821 28.9585 28.3421 28.3648 28.9863Z" fill="black"/>
<path fill-rule="evenodd" clip-rule="evenodd" d="M29.8603 29.0694L26.9201 33.2313C26.4748 34.0492 27.2041 34.896 27.6519 34.2663L30.5793 30.1008C30.9504 29.5833 30.4514 28.4216 29.8603 29.0694Z" fill="black"/>
<path fill-rule="evenodd" clip-rule="evenodd" d="M31.3852 29.1743L27.7209 34.364C27.2756 35.1819 28.0049 36.0288 28.4527 35.399L32.1427 30.1768C32.5137 29.6592 31.9789 28.5301 31.3852 29.1743Z" fill="black"/>
<path fill-rule="evenodd" clip-rule="evenodd" d="M23.7578 26.1453H33.3077V39.6515H23.7578V26.1453Z" fill="black" stroke="#EBECEC" stroke-width="3.77953"/>
<path fill-rule="evenodd" clip-rule="evenodd" d="M13.0413 33.1373C12.9952 33.1084 12.8621 32.8659 12.8263 32.7935C12.6318 32.3954 12.5039 31.8417 12.486 31.335C12.4655 30.7886 12.5755 30.2421 12.9031 29.9851C13.0054 29.9055 13.1359 29.8512 13.2767 29.8621C13.269 29.9489 13.2895 30.0068 13.3355 30.0249V30.2276C13.1948 30.2566 13.072 30.4448 13.0489 30.6583C13.0233 30.8971 13.0515 32.7609 13.0413 33.1373ZM17.2021 30.3108C16.9999 30.3868 16.7671 30.5787 16.6212 30.7234C16.5342 30.8103 16.4651 30.8935 16.3576 30.9659C16.158 31.1034 15.8817 31.183 15.6539 31.212C15.526 31.2265 15.3545 31.212 15.2189 31.212C14.9297 31.212 14.6329 31.2228 14.3438 31.212C14.3207 31.0383 14.226 30.879 14.1569 30.8103C14.1134 30.7596 14.0597 30.727 13.9957 30.7053C13.9625 30.6945 13.9241 30.6908 13.8883 30.6908C13.8576 30.6908 13.7987 30.7053 13.7782 30.6945C13.7654 30.4267 13.6042 30.2168 13.4072 30.2168V30.0358C13.4123 29.9996 13.4456 30.0177 13.4584 29.9272C13.6605 29.9996 14.0034 30.4411 14.29 30.6221C15.0858 31.1324 15.462 30.2638 16.1478 29.844C16.4242 29.6739 16.6928 29.6811 16.9922 29.7716C17.0537 29.7933 17.2021 29.844 17.2507 29.8802C17.2507 30.3 17.2584 30.1371 17.2021 30.2168C17.1739 30.2566 17.1918 30.2783 17.2021 30.3108ZM13.4225 29.9091C13.4123 30.0213 13.2895 29.9924 13.3151 29.8693C13.3432 29.8729 13.4021 29.891 13.4225 29.9091ZM13.3304 29.8404C13.3637 29.8114 13.4046 29.815 13.4174 29.8766C13.3918 29.8693 13.3483 29.8585 13.3304 29.8404ZM12.5525 30.5027C12.5525 30.5316 12.5269 30.6221 12.5192 30.6619C12.4553 30.9695 12.4527 31.2988 12.4885 31.6173C12.4962 31.6825 12.5013 31.7404 12.5116 31.7983C12.5192 31.8489 12.5397 31.9322 12.5397 31.9756L12.6293 32.3267C12.7188 32.6343 12.8058 32.8225 12.9568 33.0613C12.9747 33.0939 13.031 33.1554 13.0413 33.1844L13.0438 34.0928C13.0464 34.1326 13.0361 34.147 13.0822 34.2013C13.1539 34.2773 13.2306 34.3388 13.3279 34.3533V34.9505L13.3765 34.9541L13.4379 35.4463L13.4532 35.3268L13.4891 34.9541L13.5275 34.9505V34.3497C13.5326 34.3316 13.6273 34.299 13.681 34.2628C13.7194 34.2411 13.7526 34.2049 13.7859 34.1832C13.7757 34.0095 13.7757 33.7815 13.7808 33.6078C13.8268 33.6078 14.0341 33.6983 14.0853 33.7236C14.2695 33.8141 14.4384 33.9588 14.5178 34.223C14.5587 34.3606 14.5741 34.5343 14.5536 34.6935C14.5152 34.9758 14.3438 35.2545 14.1262 35.1748C13.8857 35.0844 13.8985 34.7695 14.0213 34.7333C14.0674 34.7225 14.1007 34.7442 14.1211 34.7948C14.1314 34.8238 14.1237 34.8238 14.1442 34.8129C14.1083 34.6501 13.9471 34.6899 13.9241 34.8347C13.9139 34.8962 13.919 34.9541 13.9343 35.0084C13.9548 35.0663 13.9753 35.088 14.006 35.1278C14.0572 35.164 14.0802 35.1893 14.1493 35.2074C14.2107 35.2219 14.2721 35.2183 14.3233 35.1785C14.4052 35.1169 14.4871 35.012 14.5254 34.8889C14.5817 34.7333 14.5945 34.5379 14.5664 34.3533C14.5536 34.2701 14.5306 34.1941 14.505 34.1289C14.4205 33.9263 14.2926 33.8105 14.1288 33.72C14.0367 33.6693 13.8831 33.6042 13.7808 33.5788L13.7833 33.159C13.791 33.0107 13.7808 32.9745 13.8294 32.855C13.8601 32.7754 13.9062 32.7139 13.965 32.6705C14.1058 32.5655 14.2644 32.6017 14.4359 32.6017C15.1242 32.6053 15.8663 32.6126 16.5521 32.5872C16.7287 32.5836 16.8515 32.5257 17.0306 32.6089C17.1611 32.6668 17.2635 32.7935 17.307 32.9672C17.3428 33.0975 17.3607 33.2531 17.3249 33.3907C17.2302 33.7489 16.9308 34.0855 16.7082 34.299C16.5802 34.4221 16.5316 34.4691 16.4574 34.7116C16.3755 34.9722 16.3551 35.2943 16.3602 35.6055C16.1964 35.6128 16.0224 35.6055 15.8561 35.6055C14.9297 35.6055 14.0009 35.6055 13.0745 35.6055C12.9108 35.6055 12.7879 35.5838 12.6574 35.7358C12.6318 35.7684 12.6139 35.7865 12.5934 35.8227C12.5832 35.8408 12.5448 35.9095 12.5346 35.9204C12.5295 35.9638 12.3887 36.199 12.399 36.6333H13.7296H16.0045H19.2518C19.3029 36.6333 19.4283 36.6261 19.4718 36.6369C19.4897 36.275 19.349 35.7865 19.111 35.6489C19.0854 35.6345 19.001 35.6091 18.9908 35.6019C18.96 35.6091 18.6607 35.6091 18.6248 35.6019C18.6172 35.0808 18.6274 34.5126 18.6223 33.9842C18.6197 33.7164 18.612 33.2568 18.6197 33.0143C18.6581 33.0468 18.6939 33.0867 18.7579 33.0432C18.8065 33.007 18.8142 32.9564 18.8142 32.8623V31.8019C18.8142 31.6427 18.804 31.4219 18.8142 31.2699C18.8628 31.2844 18.9831 31.2735 19.0394 31.2735C19.111 31.2735 19.2134 31.3025 19.2134 31.183C19.2134 31.0672 19.111 31.0926 19.0445 31.0926C18.9882 31.0926 18.8602 31.0853 18.8142 31.0998C18.8065 30.9876 18.8142 30.8103 18.8142 30.6908C18.8142 30.5533 18.8321 30.4194 18.74 30.3796C18.699 30.3615 18.6504 30.3796 18.6274 30.4122C18.5941 30.452 18.5941 30.499 18.5941 30.575C18.5941 30.7126 18.5941 30.8537 18.5941 30.9912C18.5762 30.9695 18.5455 30.9044 18.5276 30.8718C18.4611 30.756 18.3792 30.6438 18.2922 30.5533C18.177 30.4303 18.0516 30.3326 17.8802 30.2674C17.8699 30.1914 17.8392 30.2131 17.8239 30.1733L17.8213 29.4604C17.8623 29.4314 17.8955 29.4206 17.8981 29.3409C17.9007 29.2613 17.8725 29.2396 17.8264 29.2143C17.6755 29.1347 17.3147 29.131 17.1995 29.2505C17.1765 29.2722 17.1714 29.283 17.1714 29.3337C17.1688 29.4423 17.2021 29.4206 17.2481 29.4676L17.2507 29.8476C17.0383 29.7752 16.959 29.7101 16.7031 29.6884C16.4907 29.6703 16.3244 29.7101 16.1478 29.815C15.8305 30.0068 15.6002 30.2855 15.3187 30.5063C14.8555 30.8682 14.5306 30.8248 14.0776 30.4303C13.8857 30.2602 13.681 30.0068 13.4635 29.9019C13.4532 29.8331 13.4379 29.7897 13.3969 29.7752C13.3432 29.7535 13.2972 29.7897 13.2869 29.8368C13.0285 29.8259 12.8084 29.9743 12.6677 30.2348C12.6446 30.2783 12.6267 30.3145 12.6062 30.3651C12.596 30.3941 12.5653 30.4882 12.5525 30.5027Z" fill="black"/>
<path fill-rule="evenodd" clip-rule="evenodd" d="M11.1602 26.1453H20.7101V39.6515H11.1602V26.1453Z" fill="black" stroke="#EBECEC" stroke-width="3.77953"/>
<path fill-rule="evenodd" clip-rule="evenodd" d="M22.0975 11.4302C24.2573 11.4302 26.0076 13.9056 26.0076 16.9601C26.0076 20.0146 24.2573 22.49 22.0975 22.49C19.9378 22.49 18.1875 20.0146 18.1875 16.9601C18.1875 13.9056 19.9378 11.4302 22.0975 11.4302Z" fill="black" stroke="#EBECEC" stroke-width="3.77953"/>
<path d="M3.47774 48.5037V51.8911H2.78171V50.0309L1.8912 51.8911H1.1875V48.5037H1.88864V50.3783L2.78427 48.5037H3.47774Z" fill="black"/>
<path d="M4.69141 48.5037H5.43093V49.6871H6.24211V48.5037H6.9842V51.8911H6.24211V50.5195H5.43093V51.8911H4.69141V48.5037Z" fill="black"/>
<path d="M9.79315 50.505L10.4406 50.7801C10.3971 51.0407 10.3305 51.2542 10.2333 51.4279C10.1412 51.598 10.026 51.7319 9.88527 51.8188C9.74964 51.9056 9.57052 51.949 9.35813 51.949C9.09456 51.949 8.88217 51.8984 8.7184 51.7898C8.54951 51.6812 8.40877 51.4967 8.2885 51.2252C8.16823 50.9538 8.10938 50.61 8.10938 50.1902C8.10938 49.6292 8.21429 49.1986 8.42668 48.8946C8.63651 48.5978 8.93591 48.4458 9.31975 48.4458C9.6217 48.4458 9.85968 48.5327 10.0337 48.7064C10.2077 48.8765 10.3356 49.1407 10.4175 49.5026L9.765 49.7052C9.74197 49.6003 9.71894 49.5243 9.69591 49.4772C9.65241 49.4012 9.60123 49.3397 9.53981 49.2999C9.48096 49.2492 9.41443 49.2311 9.34022 49.2311C9.17389 49.2311 9.04338 49.3252 8.95126 49.517C8.88473 49.6582 8.85146 49.8789 8.85146 50.1829C8.85146 50.5593 8.89241 50.8127 8.97173 50.9538C9.05106 51.0913 9.16621 51.1637 9.31463 51.1637C9.45281 51.1637 9.56028 51.1058 9.63449 50.9936C9.7087 50.885 9.75988 50.7186 9.79315 50.505Z" fill="black"/>
<path d="M11.3477 48.5037H13.5995V49.3397H12.8446V51.8911H12.1051V49.3397H11.3477V48.5037Z" fill="black"/>
<path d="M16.9426 48.5037V51.8911H16.2466V50.0309L15.356 51.8911H14.6523V48.5037H15.3535V50.3783L16.2491 48.5037H16.9426Z" fill="black"/>
<path d="M17.9883 48.5037H20.2401V49.3397H19.4827V51.8911H18.7432V49.3397H17.9883V48.5037Z" fill="black"/>
<path d="M21.0625 48.5037H21.866L22.2012 49.9006L22.5262 48.5037H23.2785L22.4929 51.1202C22.429 51.3301 22.3727 51.4894 22.324 51.5943C22.278 51.6993 22.2089 51.7825 22.1117 51.8513C22.017 51.9164 21.889 51.949 21.7227 51.949C21.6357 51.949 21.4873 51.9309 21.2749 51.8983V51.1962C21.4003 51.2143 21.4924 51.2252 21.5487 51.2252C21.7201 51.2252 21.8225 51.1347 21.8609 50.9538L21.0625 48.5037Z" fill="black"/>
<path d="M24.0859 48.5037H26.3403V49.3397H25.5829V51.8911H24.8434V49.3397H24.0859V48.5037Z" fill="black"/>
<path d="M32.6953 52.633H32.0991V51.8911H30.5689V52.633H29.9727V51.113H30.2209C30.3591 50.5629 30.4281 49.9477 30.4281 49.26V48.5037H32.4369V51.113H32.6953V52.633ZM31.6974 51.113V49.336H31.1011V49.3795C31.1011 49.8463 31.0448 50.4254 30.9348 51.113H31.6974Z" fill="black"/>
<path d="M35.9934 48.5037V51.8911H35.2973V50.0309L34.4068 51.8911H33.7031V48.5037H34.4017V50.3783L35.2999 48.5037H35.9934Z" fill="black"/>
<path d="M38.7091 50.0527C38.9957 50.1612 39.139 50.4146 39.139 50.8199C39.139 51.1492 39.0494 51.4207 38.8703 51.6342C38.6886 51.8441 38.4327 51.949 38.1052 51.949C37.5422 51.949 37.1942 51.6125 37.0586 50.9502L37.7572 50.8742C37.7981 51.113 37.9082 51.2288 38.0924 51.2288C38.1973 51.2288 38.2741 51.1927 38.3227 51.1203C38.3764 51.0515 38.4046 50.9466 38.4046 50.8199C38.4046 50.6896 38.3713 50.5919 38.3022 50.5159C38.2408 50.4363 38.1461 50.3965 38.031 50.3965H37.8314V49.7921H37.9875C38.0847 49.7921 38.1589 49.7559 38.2127 49.6871C38.2664 49.6148 38.2946 49.517 38.2946 49.394C38.2946 49.2094 38.2127 49.1189 38.0489 49.1189C37.8826 49.1189 37.7853 49.2239 37.7572 49.4374L37.0944 49.3252C37.2019 48.7389 37.5269 48.4458 38.0617 48.4458C38.3611 48.4458 38.5939 48.5254 38.7628 48.6919C38.9317 48.8548 39.0162 49.0755 39.0162 49.3506C39.0162 49.6835 38.9138 49.9151 38.7091 50.0527Z" fill="black"/>
<path d="M41.7014 51.3338H40.8621L40.7418 51.8911H39.9844L40.8902 48.5037H41.6989L42.597 51.8911H41.8191L41.7014 51.3338ZM41.5453 50.5991L41.2843 49.3831L41.0207 50.5991H41.5453Z" fill="black"/>
<path d="M45.8371 48.5038V51.8912H45.1411V50.031L44.2506 51.8912H43.5469V48.5038H44.248V50.3784L45.1436 48.5038H45.8371ZM45.2946 47.6714C45.2716 47.8632 45.2051 48.0188 45.0976 48.1382C44.9875 48.2577 44.857 48.3192 44.7061 48.3192C44.5551 48.3192 44.4246 48.2577 44.3146 48.1382C44.2045 48.0188 44.1405 47.8632 44.1175 47.6714H44.399C44.4451 47.8632 44.5449 47.9573 44.7009 47.9573C44.8647 47.9573 44.9696 47.8632 45.0131 47.6714H45.2946Z" fill="black"/>
<path d="M47.0547 48.5037H47.7942V49.6871H48.6054V48.5037H49.3475V51.8911H48.6054V50.5195H47.7942V51.8911H47.0547V48.5037Z" fill="black"/>
<path d="M52.0334 51.3338H51.1916L51.0713 51.8911H50.3164L51.2197 48.5037H52.0283L52.9265 51.8911H52.1512L52.0334 51.3338ZM51.8748 50.5991L51.6138 49.3831L51.3502 50.5991H51.8748Z" fill="black"/>
<path d="M53.8398 50.9612H54.5487V51.732C54.5487 52.0216 54.5103 52.2423 54.4258 52.4088C54.3388 52.5753 54.1981 52.7164 53.9934 52.8431L53.8398 52.4341C53.9678 52.3509 54.0497 52.2677 54.1009 52.188C54.1469 52.1012 54.1699 52.0071 54.1776 51.8913H53.8398V50.9612Z" fill="black"/>
<path d="M2.65844 58.011H1.81656L1.69629 58.5684H0.941406L1.84471 55.181H2.65333L3.55151 58.5684H2.77615L2.65844 58.011ZM2.49979 57.2764L2.23878 56.0604L1.97521 57.2764H2.49979ZM3.78181 55.181H5.01521C5.28134 55.181 5.48349 55.2678 5.61656 55.4488C5.74962 55.6297 5.81871 55.8903 5.81871 56.2196C5.81871 56.5634 5.7445 56.8312 5.6012 57.0267C5.45279 57.2185 5.23272 57.3162 4.93077 57.3162H4.52646V58.5684H3.78181V55.181ZM4.52646 56.6286H4.7107C4.854 56.6286 4.9538 56.5888 5.01009 56.5236C5.06895 56.4512 5.0971 56.3644 5.0971 56.2522C5.0971 56.1436 5.07407 56.0568 5.02033 55.9808C4.97171 55.9084 4.87703 55.8722 4.73629 55.8722H4.52646V56.6286ZM6.03878 55.181H6.85508L7.27986 56.2196L7.69184 55.181H8.50046L7.75582 56.8204L8.56955 58.5684H7.73535L7.26706 57.479L6.7911 58.5684H5.96457L6.7911 56.8023L6.03878 55.181ZM11.1003 55.181V58.5684H10.4043V56.7082L9.5138 58.5684H8.81009V55.181H9.51124V57.0556L10.4069 55.181H11.1003ZM11.4279 55.181H13.6823V56.017H12.9248V58.5684H12.1853V56.017H11.4279V55.181ZM14.0124 55.181H15.9955V55.9048H14.7545V56.444H15.9034V57.1352H14.7545V57.8011H16.0314V58.5684H14.0124V55.181ZM18.6082 58.5684H17.774L17.4848 57.6962C17.4158 57.4899 17.3646 57.356 17.3262 57.3053C17.2904 57.2547 17.2366 57.2293 17.1701 57.2293V58.5684H16.4306V55.181H17.1701V56.4802C17.2341 56.4766 17.2827 56.444 17.3211 56.3825C17.3569 56.3246 17.4106 56.1509 17.4874 55.865C17.5437 55.6587 17.6 55.5067 17.6588 55.4126C17.7126 55.3221 17.8047 55.2533 17.9327 55.2171C18.0606 55.1737 18.2602 55.1556 18.5314 55.1556V55.8722H18.4956C18.3677 55.8722 18.273 55.9048 18.2141 55.9699C18.1527 56.0423 18.1041 56.1509 18.0632 56.3029C18.0222 56.4512 17.9838 56.567 17.9352 56.643C17.8917 56.719 17.8277 56.7733 17.751 56.8204C17.8584 56.871 17.9531 56.9543 18.0299 57.0773C18.1092 57.1968 18.1937 57.385 18.2832 57.6419L18.6082 58.5684ZM18.7054 55.181H20.9599V56.017H20.2024V58.5684H19.4629V56.017H18.7054V55.181ZM21.0648 55.181H21.8683L22.2035 56.5743L22.5285 55.181H23.2808L22.4952 57.7975C22.4312 58.0074 22.3749 58.1667 22.3289 58.2716C22.2803 58.3766 22.2112 58.4598 22.1139 58.525C22.0193 58.5937 21.8939 58.6263 21.725 58.6263C21.638 58.6263 21.4921 58.6082 21.2772 58.572V57.8735C21.4051 57.8916 21.4947 57.9025 21.551 57.9025C21.7224 57.9025 21.8248 57.812 21.8632 57.631L21.0648 55.181ZM23.5367 55.181H24.7675C25.0362 55.181 25.2358 55.2678 25.3714 55.4488C25.5045 55.6297 25.571 55.8903 25.571 56.2196C25.571 56.5634 25.4968 56.8312 25.3535 57.0267C25.2077 57.2185 24.985 57.3162 24.6856 57.3162H24.2788V58.5684H23.5367V55.181ZM24.2788 56.6286H24.463C24.6063 56.6286 24.7087 56.5888 24.765 56.5236C24.8213 56.4512 24.852 56.3644 24.852 56.2522C24.852 56.1436 24.8289 56.0568 24.7752 55.9808C24.724 55.9084 24.6319 55.8722 24.4912 55.8722H24.2788V56.6286ZM26.6995 56.4874H27.0936C27.4595 56.4874 27.7282 56.5743 27.9022 56.7552C28.0788 56.9398 28.1658 57.2185 28.1658 57.6021C28.1658 57.917 28.0865 58.1522 27.9252 58.3187C27.764 58.4851 27.5337 58.5684 27.2318 58.5684H25.96V55.181H26.6995V56.4874ZM26.6995 57.841H27.0782C27.3085 57.841 27.4263 57.7215 27.4263 57.4863C27.4263 57.2764 27.3085 57.1714 27.0782 57.1714H26.6995V57.841ZM28.3475 55.181H29.0896V58.5684H28.3475V55.181ZM32.9894 55.181V58.5684H32.2933V56.7082L31.4028 58.5684H30.6991V55.181H31.4003V57.0556L32.2959 55.181H32.9894ZM34.4351 55.181H36.6896V56.017H35.9321V58.5684H35.1926V56.017H34.4351V55.181ZM37.0197 55.181H39.0028V55.9048H37.7643V56.444H38.9107V57.1352H37.7643V57.8011H39.0386V58.5684H37.0197V55.181ZM41.6155 58.5684H40.7838L40.4921 57.6962C40.4256 57.4899 40.3718 57.356 40.3335 57.3053C40.2976 57.2547 40.2439 57.2293 40.1774 57.2293V58.5684H39.4378V55.181H40.1774V56.4802C40.2413 56.4766 40.29 56.444 40.3283 56.3825C40.3642 56.3246 40.4179 56.1509 40.4947 55.865C40.551 55.6587 40.6073 55.5067 40.6661 55.4126C40.7199 55.3221 40.812 55.2533 40.9399 55.2171C41.0679 55.1737 41.2675 55.1556 41.5387 55.1556V55.8722H41.5029C41.3749 55.8722 41.2803 55.9048 41.2214 55.9699C41.16 56.0423 41.1114 56.1509 41.0704 56.3029C41.0295 56.4512 40.9911 56.567 40.9425 56.643C40.899 56.719 40.835 56.7733 40.7582 56.8204C40.8657 56.871 40.9604 56.9543 41.0372 57.0773C41.1165 57.1968 41.2009 57.385 41.2905 57.6419L41.6155 58.5684ZM43.4784 57.1823L44.1258 57.4573C44.0823 57.7179 44.0158 57.9314 43.9185 58.1051C43.8264 58.2752 43.7112 58.4091 43.5705 58.4924C43.4349 58.5829 43.2558 58.6263 43.0434 58.6263C42.7798 58.6263 42.5674 58.572 42.4036 58.4634C42.2347 58.3549 42.094 58.1703 41.9737 57.9025C41.8535 57.631 41.7946 57.2872 41.7946 56.8638C41.7946 56.3065 41.8995 55.8758 42.1119 55.5718C42.3217 55.275 42.6211 55.123 43.005 55.123C43.3069 55.123 43.5449 55.2063 43.7189 55.3836C43.8929 55.5537 44.0209 55.8179 44.1028 56.1798L43.4502 56.3825C43.4272 56.2775 43.4042 56.2015 43.3811 56.1545C43.3376 56.0785 43.2865 56.017 43.225 55.9735C43.1662 55.9265 43.0997 55.9084 43.0254 55.9084C42.8591 55.9084 42.7286 56.0025 42.6365 56.1907C42.57 56.3354 42.5367 56.5562 42.5367 56.8602C42.5367 57.233 42.5776 57.4899 42.657 57.631C42.7363 57.7686 42.8514 57.841 42.9999 57.841C43.138 57.841 43.2455 57.783 43.3197 57.6709C43.3939 57.5623 43.4451 57.3958 43.4784 57.1823ZM44.3177 55.181H46.5696V56.017H45.8147V58.5684H45.0751V56.017H44.3177V55.181ZM49.195 55.181V58.5684H48.499V56.7082L47.6085 58.5684H46.9048V55.181H47.6059V57.0556L48.5015 55.181H49.195ZM51.8921 58.5684H51.1526V56.0133H50.5743V57.0556C50.5743 57.4863 50.5564 57.7975 50.5282 58.0002C50.4949 58.1992 50.4207 58.3476 50.3005 58.4417C50.1828 58.5358 49.9908 58.5829 49.7273 58.5829C49.6479 58.5829 49.5533 58.5684 49.4483 58.5467V57.859H49.5609C49.6607 57.859 49.7298 57.8265 49.7733 57.765C49.8143 57.7034 49.8347 57.5876 49.8347 57.4248V55.181H51.8921V58.5684ZM54.4997 58.5684V55.181H53.2663C53.0385 55.181 52.8645 55.2063 52.7442 55.2642C52.624 55.3149 52.5216 55.4198 52.4474 55.5718C52.3758 55.7238 52.3374 55.9048 52.3374 56.1219C52.3374 56.3101 52.3681 56.473 52.4244 56.6105C52.4781 56.748 52.56 56.8566 52.6598 56.9398C52.7186 56.9977 52.8056 57.0411 52.9182 57.0773C52.8312 57.1171 52.7673 57.157 52.7263 57.2004C52.7007 57.2293 52.6598 57.2872 52.6061 57.3813C52.5549 57.4718 52.5216 57.5406 52.5063 57.5876L52.1429 58.5684H52.9797L53.3763 57.537C53.4249 57.3994 53.4735 57.3162 53.5094 57.2728C53.5631 57.2185 53.6245 57.1968 53.6936 57.1968H53.7576V58.5684H54.4997ZM53.7576 56.5562H53.4454C53.4121 56.5562 53.3456 56.5417 53.2483 56.5091C53.1997 56.4947 53.1588 56.4621 53.1281 56.4042C53.0974 56.3427 53.082 56.2811 53.082 56.2051C53.082 56.0966 53.105 56.0133 53.1562 55.9554C53.2048 55.8939 53.2944 55.865 53.4326 55.865H53.7576V56.5562Z" fill="black"/>
<path fill-rule="evenodd" clip-rule="evenodd" d="M19.1914 14.8213L19.6034 18.6358L23.0682 17.2823L22.9121 16.5006C22.4105 16.4173 22.2365 16.4861 21.7119 15.9903C21.4944 15.7876 21.1029 15.2556 21.021 14.7236L19.1914 14.8213Z" fill="black"/>
<path fill-rule="evenodd" clip-rule="evenodd" d="M19.6792 19.2148C19.6613 19.1352 19.6485 19.0881 19.6383 18.9977L19.6434 18.7697L20.3343 18.4874C20.3855 18.5923 20.3957 18.8059 20.411 18.9542C20.2012 19.0013 19.8609 19.2401 19.6792 19.2148ZM21.5984 18.0603C21.6624 18.2304 21.6189 18.158 21.711 18.2268C21.7775 18.2775 21.7442 18.2377 21.7903 18.3028L21.6317 18.3137C21.6086 18.2304 21.583 18.1761 21.5984 18.0603ZM22.6885 17.5573C22.7806 17.4704 22.9776 17.4089 23.0979 17.3727L23.1389 17.7165L22.7653 17.8721L22.6885 17.5573ZM22.842 15.8382C22.8651 15.8889 22.8395 15.8057 22.8778 15.9287L22.9316 16.2544C22.8804 16.1495 22.8497 15.983 22.842 15.8382ZM22.7857 15.5668C22.8036 15.6066 22.8062 15.574 22.8318 15.6826C22.8497 15.7731 22.842 15.7586 22.8497 15.8382C22.8318 15.802 22.8292 15.8274 22.8036 15.7188C22.7883 15.6428 22.7908 15.6428 22.7857 15.5668ZM22.7345 15.299C22.7857 15.4148 22.778 15.4076 22.796 15.5668C22.7499 15.4691 22.7422 15.4655 22.7345 15.299ZM22.6783 15.024C22.7345 15.147 22.7218 15.1108 22.7397 15.2918C22.7218 15.252 22.732 15.3316 22.6987 15.1796C22.6808 15.0927 22.6859 15.1144 22.6783 15.024ZM21.0201 14.7236C21.102 15.2556 21.4935 15.7876 21.711 15.9902C22.2356 16.486 22.4096 16.4173 22.9111 16.5005L23.0672 17.2822L19.6024 18.6358L19.1904 14.8213L21.0201 14.7236ZM22.668 14.872C22.6885 14.9552 22.6783 14.9443 22.6859 15.0203C22.6296 14.8937 22.6399 14.8792 22.622 14.7489C22.6399 14.7887 22.645 14.767 22.668 14.872ZM23.0135 13.674L23.9014 13.504L23.8963 18.339L23.0365 18.1798L22.993 17.9192L22.8369 17.9445C22.9418 17.8468 23.0851 17.8323 23.1849 17.7274C23.1926 17.5066 23.0007 16.7213 22.9546 16.4354C23.0288 16.392 22.8906 16.3847 22.9751 16.4535C23.0493 16.5078 22.9316 16.5186 23.0084 16.4752C23.0672 16.03 23.1952 14.7236 23.1542 14.2712C23.1286 13.9455 23.0544 13.8695 23.0135 13.674ZM22.2714 13.7862L22.2842 14.4992C22.4582 14.492 22.5529 14.4304 22.6066 14.6259C22.4966 14.4775 21.9618 14.5535 21.7826 14.5643C21.4756 14.5788 21.1838 14.586 20.8793 14.6005C20.5492 14.615 19.2954 14.6114 19.0983 14.691C19.0599 14.9371 19.2749 16.5946 19.3158 16.9927C19.3542 17.3836 19.4003 17.7744 19.4463 18.1653C19.4796 18.4765 19.5666 19.0809 19.5615 19.356C19.5666 19.4537 19.495 19.432 19.6485 19.4464C19.8865 19.4681 19.7406 19.4175 19.7688 19.3777C19.7841 19.3487 19.7534 19.3632 19.8097 19.3198C19.8123 19.3198 19.866 19.2872 19.8711 19.2836C20.0502 19.2112 19.9632 19.2763 19.9991 19.3161C20.0579 19.3415 20.0374 19.3415 20.0144 19.2619C20.0195 19.251 19.9607 19.2112 20.0758 19.1931C20.1679 19.1786 20.1193 19.1895 20.1628 19.2365C20.3036 19.2293 20.4315 19.0773 20.6081 19.0592L20.5851 18.9615C20.5927 18.9579 20.6721 18.9217 20.6721 18.9217C20.7539 18.918 20.7028 18.9 20.7488 18.9615C20.8154 18.9904 20.8051 19.0049 20.7744 18.918C20.8026 18.8638 20.7386 18.918 20.8154 18.8565C20.8281 18.8457 20.864 18.824 20.8768 18.8203C21.0277 18.7552 20.9663 18.8059 21.0022 18.8457C21.0661 18.8782 21.0482 18.8819 21.0226 18.7986C21.0738 18.7009 21.1813 18.6828 21.2913 18.6358C21.7084 18.4403 21.5267 18.52 21.5702 18.596C21.6368 18.596 21.6214 18.6177 21.6009 18.5236C21.6009 18.5236 21.5472 18.4765 21.6624 18.462C21.7494 18.4476 21.7033 18.4584 21.7468 18.5019L22.0743 18.3354C22.2356 18.2268 21.9515 18.3499 22.1281 18.3137C22.1486 18.31 22.1997 18.3028 22.2074 18.2992C22.2893 18.2558 22.2484 18.2739 22.2739 18.2304C22.2765 18.2196 22.2816 18.1942 22.2867 18.2015C22.2867 18.2015 22.2842 18.1653 22.3993 18.1146C22.4659 18.0893 22.4863 18.0784 22.5452 18.0422V18.158C22.7192 18.158 23.0135 18.2485 23.2028 18.2775L23.7121 18.3752C23.8426 18.4005 23.8221 18.386 23.8835 18.4693C23.9065 18.5344 23.8937 18.5019 23.9577 18.52C23.8963 17.6478 24.0396 13.7537 23.9219 13.3664C23.7274 13.2977 23.8349 13.3773 23.8016 13.4135C23.8682 13.4678 23.9987 13.4243 23.6839 13.4859C23.6174 13.5003 23.5508 13.5112 23.492 13.522C23.3538 13.551 23.2105 13.5727 23.0826 13.6017C22.8676 13.6523 22.4428 13.6885 22.2714 13.7862Z" fill="black"/>
<path fill-rule="evenodd" clip-rule="evenodd" d="M23.0125 13.674C23.0534 13.8694 23.1277 13.9454 23.1532 14.2711C23.1942 14.7235 23.0662 16.03 23.0074 16.4751C22.9306 16.5186 23.0483 16.5077 22.9741 16.4534C22.8897 16.3847 23.0279 16.3919 22.9536 16.4353C22.9997 16.7212 23.1916 17.5066 23.184 17.7273C23.0842 17.8323 22.9409 17.8468 22.8359 17.9445L22.992 17.9191L23.0355 18.1797L23.8953 18.339L23.9004 13.5039L23.0125 13.674Z" fill="black"/>
<path fill-rule="evenodd" clip-rule="evenodd" d="M20.082 20.4598C20.1075 20.4128 20.0513 20.4309 20.1306 20.3911C20.1766 20.3693 20.151 20.3802 20.215 20.3766L20.082 20.4598ZM22.0651 19.4175L22.1982 19.4067C22.147 19.4537 22.1496 19.4429 22.1317 19.5152C21.8911 19.5008 22.0984 19.6057 21.8527 19.6057L21.8911 19.5587C21.8937 19.5551 21.9065 19.5514 21.909 19.5333C21.9116 19.5189 21.9193 19.5152 21.9269 19.508C21.7708 19.4935 21.8553 19.4863 21.8092 19.432C21.8911 19.3741 21.9014 19.4465 21.8323 19.3705L21.9321 19.4392C21.9321 19.4429 21.9346 19.4573 21.9372 19.461C21.9372 19.4646 21.9397 19.4899 21.9423 19.4827C21.9423 19.4791 21.9449 19.4971 21.9449 19.5044C22.0779 19.4863 22.0293 19.5116 22.0651 19.4175ZM22.0651 19.4175L21.9525 19.4139C22.0319 19.309 21.9704 19.3126 22.1009 19.3198C22.0958 19.3307 22.0958 19.4718 22.0754 19.3922C22.0728 19.385 22.0702 19.4103 22.0651 19.4175ZM22.083 19.1063C22.0165 19.2076 22.1777 19.1859 21.9602 19.1931C21.95 19.1968 21.8323 19.2112 21.7708 19.2655C21.6122 19.3994 21.8681 19.2547 21.7094 19.309C21.7043 19.3126 21.6634 19.3198 21.6557 19.3198L21.1951 19.5695C21.1388 19.6202 21.1874 19.5551 21.1465 19.6274C21.0953 19.6709 21.039 19.7107 20.9622 19.7577L20.8803 19.7288L19.9668 20.221C19.844 20.2789 19.7826 20.2391 19.8952 20.5286C19.9207 20.4598 19.8389 20.4272 19.9745 20.4924C20.0717 20.5431 19.9387 20.4779 20.0564 20.5937L20.2304 20.5286L20.3481 20.449C20.343 20.4417 20.3379 20.4128 20.3353 20.42L20.3123 20.373L20.3071 20.2318C20.3916 20.2825 20.3941 20.2716 20.4709 20.2137C20.5682 20.1413 20.4735 20.1631 20.6398 20.145C20.6475 20.1341 20.6654 20.1088 20.668 20.1015C20.6705 20.1015 20.6782 20.0871 20.6807 20.0834C20.737 20.0183 20.6296 20.0255 20.7447 20.0509C20.7677 20.1703 20.7652 19.9821 20.7422 20.1051L20.8343 20.1848L20.7268 20.3042C20.8394 20.3259 20.8496 20.2933 20.9546 20.2644C20.9162 20.2065 20.952 20.2499 20.9008 20.1956L20.8368 20.1413C20.975 20.0943 20.8829 20.1486 20.9085 20.0617L20.7729 20.0653L20.9085 19.9459C21.0697 19.9423 20.9213 19.9314 20.9878 20.0111C21.0416 20.0364 21.0211 20.0364 20.9981 19.9604C21.016 19.9242 20.9853 19.9459 21.0339 19.8916L21.2642 19.7505C21.4126 19.7505 21.2744 19.736 21.3358 19.8156C21.3972 19.8446 21.3768 19.8446 21.3486 19.7686L21.3793 19.6926C21.4024 19.6057 21.3972 19.7143 21.3845 19.6491C21.4868 19.6709 21.41 19.6817 21.5022 19.6419C21.625 19.5876 21.6762 19.4899 21.8195 19.4827C21.7248 19.5949 21.7453 19.4863 21.7734 19.5912C21.8758 19.6383 21.7888 19.8048 22.0702 19.5912C22.1317 19.5442 22.1112 19.5514 22.1317 19.5152L22.2468 19.5044C22.3261 19.2691 22.2366 19.5876 22.2212 19.3271L22.0958 19.3307C22.1035 19.3234 22.1137 19.3053 22.1163 19.3126C22.124 19.3488 22.1419 19.2764 22.1419 19.2764C22.1752 19.1859 22.1598 19.2872 22.1445 19.2257C22.2698 19.2547 22.275 19.1968 22.2903 19.1859C22.344 19.1352 22.3517 19.1642 22.4464 19.1389C22.362 19.2112 22.3773 19.1823 22.4157 19.2872L22.5718 19.3307C22.5871 19.3162 22.559 19.3307 22.6204 19.2836C22.6741 19.2438 22.5641 19.3126 22.6614 19.2583C22.7125 19.2257 22.7176 19.2293 22.7791 19.2112C22.7407 19.1787 22.7944 19.2004 22.6946 19.157C22.6281 19.1316 22.6639 19.1425 22.5871 19.1316L22.6537 19.1135L22.5564 19.0448L22.7919 18.9362L22.7893 18.8566C22.7919 18.8095 22.8814 18.8457 22.8917 18.8385L22.9275 18.7552L23.0222 18.8168L23.0554 18.7914C23.0733 18.6684 22.9915 18.748 23.1015 18.6901C23.0145 18.5236 22.6588 18.7589 22.5513 18.853C22.4976 18.9 22.124 19.0013 22.083 19.1063Z" fill="black"/>
<path fill-rule="evenodd" clip-rule="evenodd" d="M23.9219 13.3664C24.0396 13.7536 23.8963 17.6477 23.9577 18.5199C24.0396 18.5524 24.0729 18.5778 24.188 18.5524L24.0524 18.4873C24.0166 18.0928 24.037 13.5039 24.078 13.3844C24.1931 13.2723 24.5181 13.3591 24.6256 13.4134C24.6691 13.6016 24.6896 17.9915 24.6102 18.2593C24.6384 18.2231 24.6793 18.2738 24.6793 17.9444V13.6921C24.6793 13.3374 24.5693 13.2795 24.1573 13.2831C24.0114 13.2867 24.0345 13.341 23.9219 13.3664Z" fill="black"/>
<path fill-rule="evenodd" clip-rule="evenodd" d="M19.7351 20.4886C19.7325 20.6587 19.7274 20.6189 19.9142 20.7745C20.2162 21.0278 20.4951 21.3897 20.7407 21.2631C20.8968 21.1798 21.1297 21.0206 21.2858 20.9084C21.4675 20.7817 21.6619 20.6695 21.8513 20.5501L23.4967 19.4825C23.7884 19.2798 23.9854 19.2654 23.9803 19.0374L20.7791 21.1183C20.5411 21.2594 20.3953 21.0713 20.2213 20.9193C20.0601 20.7745 19.8707 20.6297 19.7351 20.4886Z" fill="black"/>
<path fill-rule="evenodd" clip-rule="evenodd" d="M19.5616 19.3558C19.5667 19.0808 19.4797 18.4764 19.4464 18.1652C19.4003 17.7743 19.3543 17.3835 19.3159 16.9926C19.275 16.5945 19.06 14.937 19.0984 14.6909C19.2954 14.6113 20.5493 14.6149 20.8794 14.6004C21.1839 14.5859 21.4756 14.5787 21.7827 14.5642C21.9618 14.5534 22.4966 14.4774 22.6067 14.6258C22.5529 14.4303 22.4583 14.4918 22.2842 14.4991L22.2715 13.7861C22.2075 13.8875 22.2535 14.376 22.2587 14.5027C21.6855 14.5208 21.0867 14.5787 20.516 14.5715C20.2371 14.5678 19.9198 14.6221 19.6537 14.6149C18.7964 14.5932 18.9628 14.5498 19.2596 17.217L19.4643 19.1278C19.4899 19.3088 19.4848 19.2907 19.5616 19.3558Z" fill="black"/>
<path fill-rule="evenodd" clip-rule="evenodd" d="M20.578 20.7204L20.6138 20.829C20.4859 20.8796 20.468 20.9484 20.381 20.8217L20.578 20.7204ZM20.578 20.7204C20.6727 20.6444 20.6804 20.6263 20.793 20.6082L20.8339 20.6987C20.6906 20.7457 20.7264 20.8036 20.578 20.7204ZM20.793 20.6082C20.8902 20.4888 20.9081 20.4779 21.0437 20.525C20.9491 20.648 20.9056 20.6444 20.793 20.6082ZM21.0437 20.525L21.0233 20.4743C21.0233 20.4635 21.0207 20.4562 21.0156 20.4526C21.1128 20.373 21.1307 20.344 21.2331 20.4381L21.0437 20.525ZM21.2101 20.3368C21.3022 20.2536 21.3252 20.2391 21.4199 20.3006C21.3355 20.4092 21.274 20.4345 21.2101 20.3368ZM22.7633 19.3669L22.8862 19.3958C22.858 19.4356 22.8964 19.4248 22.812 19.4718C22.7864 19.4863 22.7608 19.4791 22.7403 19.4791C22.7122 19.5261 22.7403 19.508 22.6738 19.5551C22.6405 19.5768 22.6226 19.5804 22.5945 19.5985C22.4972 19.66 22.5407 19.6817 22.4077 19.6492C22.5074 19.7686 22.3155 19.5225 22.446 19.7107L22.3027 19.7541C22.3181 19.841 22.3309 19.8229 22.272 19.8229C22.1799 19.8374 21.924 20.0147 21.8191 20.0798L21.4711 20.2789C21.3431 20.2861 21.3969 20.2246 21.3943 20.2174C21.4225 20.1993 21.4429 20.1848 21.4685 20.1667C21.5248 20.1233 21.512 20.1269 21.5274 20.1052C21.4916 20.1088 21.4557 20.1124 21.4225 20.1305C21.3201 20.1739 21.4353 20.1233 21.3278 20.1956C21.2408 20.2572 21.2459 20.2391 21.1589 20.2246C21.2254 20.3332 21.0924 20.1016 21.1896 20.2934C21.1384 20.3151 21.1103 20.3296 21.0591 20.344L20.9721 20.3911C20.8723 20.4852 20.8825 20.4671 20.7725 20.4562L20.7879 20.5141C20.6855 20.5648 20.5985 20.6227 20.4987 20.6842C20.3963 20.7494 20.294 20.8579 20.2454 20.6878L20.1225 20.6227L20.2274 20.5286L20.0534 20.5937C19.9357 20.4779 20.0688 20.5431 19.9716 20.4924C19.8359 20.4273 19.9178 20.4598 19.8922 20.5286C20.2633 20.7023 20.3324 21.1221 20.6573 20.9158L22.7096 19.6456C22.8222 19.5768 23.0448 19.461 23.119 19.3596C22.9706 19.2981 22.9783 19.4248 22.8887 19.385C22.7966 19.3416 22.8734 19.3596 22.8887 19.3416L22.8683 19.28C22.8375 19.2981 22.8375 19.2909 22.8068 19.3162C22.7736 19.3452 22.7685 19.356 22.7633 19.3669Z" fill="black"/>
<path fill-rule="evenodd" clip-rule="evenodd" d="M21.0214 18.7985C21.0623 18.8709 21.0649 18.6972 21.0419 18.9071C21.024 19.0663 20.9804 18.9686 20.832 19.1061L21.0214 19.0374L20.9984 19.3305C21.4794 19.468 21.4666 19.3522 21.505 18.9831C21.6509 18.9903 21.7584 19.0555 21.9196 19.0627C21.8121 18.9758 21.6125 19.012 21.5178 18.9071L21.569 18.5958C21.5255 18.5198 21.7072 18.4402 21.2901 18.6357C21.18 18.6827 21.0726 18.7008 21.0214 18.7985Z" fill="black"/>
<path fill-rule="evenodd" clip-rule="evenodd" d="M19.6777 19.2147C19.8593 19.2401 20.1997 19.0012 20.4095 18.9542C20.3942 18.8058 20.3839 18.5923 20.3327 18.4873L19.6418 18.7696L19.6367 18.9976C19.647 19.0881 19.6597 19.1351 19.6777 19.2147Z" fill="black"/>
<path fill-rule="evenodd" clip-rule="evenodd" d="M21.7024 19.9131C21.7177 20.0362 21.577 20.029 21.5258 19.9711L21.7024 19.9131ZM21.7024 19.9131C21.7254 19.7792 21.8329 19.801 21.8892 19.8589L21.7024 19.9131ZM21.6486 19.7937C21.6409 19.6634 21.7587 19.696 21.8201 19.7069C21.7919 19.7431 21.8636 19.725 21.7459 19.7792C21.6998 19.801 21.6921 19.7901 21.6486 19.7937ZM21.7714 19.5911L21.5028 19.7792C21.4439 19.7829 21.4388 19.7467 21.4234 19.7286L21.5795 19.6562C21.6998 19.5802 21.6307 19.5766 21.7714 19.5911ZM22.2193 19.3269C22.2321 19.2871 22.1758 19.2798 22.273 19.2509C22.3523 19.2328 22.3114 19.2509 22.337 19.269L22.2193 19.3269ZM22.2193 19.3269C22.2346 19.5874 22.3242 19.269 22.2448 19.5042L22.1297 19.5151C22.1092 19.5512 22.1297 19.544 22.0683 19.5911C21.7868 19.8046 21.8738 19.6381 21.7714 19.5911C21.7433 19.4861 21.7228 19.5947 21.8175 19.4825C21.6742 19.4897 21.623 19.5874 21.5002 19.6417C21.4081 19.6815 21.4848 19.6707 21.3825 19.649C21.3953 19.7141 21.4004 19.6055 21.3774 19.6924L21.3467 19.7684C21.4439 19.772 21.4158 19.7829 21.4618 19.8227C21.4669 19.8263 21.4746 19.8335 21.4797 19.8408C21.5642 19.7611 21.5411 19.7829 21.6486 19.7937C21.6307 19.8516 21.6819 19.8408 21.5744 19.8842C21.5258 19.9023 21.5181 19.8878 21.4797 19.877L21.4593 19.9312C21.4593 19.9312 21.4541 19.9421 21.4516 19.9493L21.298 20C21.3211 19.9493 21.2034 20.0579 21.3799 19.8697L21.3339 19.8154C21.2725 19.7358 21.4106 19.7503 21.2622 19.7503L21.0319 19.8914C20.9833 19.9457 21.014 19.924 20.9961 19.9602L21.0729 19.9566C21.1547 19.8516 21.1547 19.8625 21.275 19.8661C21.2366 19.9385 21.275 19.8842 21.229 19.9385L21.1727 19.9891L21.3032 19.9855L21.2366 20.105C21.3799 20.1267 21.3518 20.0181 21.5079 20.0145C21.5591 20.0977 21.5258 19.9855 21.5283 20.105L21.989 19.8625C22.0555 19.8082 22.0325 19.8154 22.0478 19.7937L21.8585 19.8154C21.9327 19.7069 21.9173 19.7503 22.0094 19.696C22.1169 19.6309 22.0632 19.6164 22.209 19.6309C22.2039 19.6236 22.1834 19.5802 22.1783 19.573L22.3319 19.5331C22.3856 19.4354 22.3881 19.4535 22.4931 19.4499L22.5698 19.3305L22.4137 19.2871C22.3754 19.1821 22.36 19.2111 22.4444 19.1387C22.3498 19.164 22.3421 19.1351 22.2883 19.1857C22.273 19.1966 22.2679 19.2545 22.1425 19.2255C22.1578 19.2871 22.1732 19.1857 22.1399 19.2762C22.1399 19.2762 22.122 19.3486 22.1143 19.3124C22.1118 19.3051 22.1015 19.3232 22.0939 19.3305L22.2193 19.3269Z" fill="black"/>
<path fill-rule="evenodd" clip-rule="evenodd" d="M23.0542 18.7913C23.0593 18.8311 23.0875 18.8347 23.0056 18.8419C22.916 18.8492 22.9775 18.8383 22.9314 18.8058L23.021 18.8166L22.9263 18.7551L22.8905 18.8383C22.8802 18.8456 22.7907 18.8094 22.7881 18.8564L22.7907 18.936C22.76 18.9722 22.8163 18.9433 22.7395 18.9867C22.7139 19.0012 22.6832 19.0048 22.6602 19.0157L22.719 19.117C22.696 19.2111 22.7062 19.1532 22.742 19.1604C22.76 19.0265 22.7344 19.1025 22.7907 19.0772L22.8111 19.1423L22.8495 19.1894C22.9212 19.2219 22.8598 19.2075 22.9544 19.2147C23.0158 19.1278 22.9672 19.1713 22.9877 19.1134L23.2206 18.9614C23.2845 18.8564 23.108 18.9433 23.3383 18.8673C23.3383 18.8709 23.3408 18.8745 23.3408 18.8818C23.3408 18.889 23.3459 18.8962 23.3459 18.8998C23.3459 18.9035 23.3511 18.9179 23.3511 18.9216L23.3639 18.9831C23.4483 18.9939 23.4074 19.0084 23.5072 19.0229C23.6402 18.9903 23.6044 18.9469 23.7298 18.9831C23.8833 18.9614 23.7323 19.0084 23.8014 18.8818C23.6428 18.8745 23.5609 18.8238 23.4176 18.7768C23.0977 18.6755 23.2154 18.8166 23.1156 18.8275C23.1591 18.7985 23.1259 18.8347 23.1489 18.8058L23.2282 18.6936L23.1003 18.6899C22.9903 18.7478 23.0721 18.6682 23.0542 18.7913Z" fill="black"/>
<path fill-rule="evenodd" clip-rule="evenodd" d="M24.2368 17.6189C24.183 17.4995 24.1523 17.3945 24.0858 17.2606L24.0781 18.0242L24.6053 17.8107L24.6104 17.1882C24.5438 17.5031 24.4876 17.5755 24.2368 17.6189Z" fill="black"/>
<path fill-rule="evenodd" clip-rule="evenodd" d="M24.0742 16.2219C24.151 16.1098 24.1843 15.9686 24.2303 15.8275L24.4836 15.7949L24.6039 16.0953L24.609 15.509L24.0793 15.5054L24.0742 16.2219Z" fill="black"/>
<path fill-rule="evenodd" clip-rule="evenodd" d="M20.6322 20.2969L20.755 20.3222C20.755 20.3222 20.6783 20.4996 20.5401 20.3874L20.6322 20.2969ZM20.3124 20.3729C20.3968 20.2607 20.4377 20.2643 20.5401 20.2897C20.4531 20.4163 20.3942 20.4055 20.3124 20.3729ZM20.6322 20.2969L20.5145 20.2679C20.5964 20.1521 20.6117 20.2028 20.622 20.1594C20.6245 20.1449 20.6348 20.1485 20.6399 20.1449C20.6808 20.1702 20.6578 20.1485 20.6936 20.1883C20.6988 20.1919 20.709 20.2209 20.7141 20.21C20.7167 20.2028 20.7269 20.2281 20.732 20.2318L20.6322 20.2969ZM20.6399 20.1449C20.4736 20.163 20.5682 20.1413 20.471 20.2137C20.3942 20.2716 20.3917 20.2824 20.3072 20.2318L20.3124 20.3729L20.3354 20.4199C20.3379 20.4127 20.3431 20.4417 20.3482 20.4489L20.2305 20.5285C20.3559 20.5032 20.3251 20.4634 20.4173 20.5611C20.3303 20.6154 20.3124 20.5973 20.2484 20.6878C20.4377 20.6443 20.5913 20.4489 20.7755 20.4561C20.8088 20.3403 20.8318 20.3693 20.9111 20.3367C20.9674 20.3114 20.9546 20.3258 20.9905 20.2933C21.0979 20.1956 21.0033 20.2788 21.0416 20.2209L20.9214 20.1847L21.0365 20.0689L20.9086 20.0617C20.883 20.1485 20.9751 20.0942 20.8369 20.1413L20.9009 20.1956C20.9521 20.2498 20.9163 20.2064 20.9546 20.2643C20.8497 20.2933 20.8395 20.3258 20.7269 20.3041L20.8344 20.1847L20.7423 20.1051C20.7653 19.982 20.7678 20.1702 20.7448 20.0508C20.6297 20.0255 20.7371 20.0182 20.6808 20.0834C20.6783 20.087 20.6706 20.1015 20.668 20.1015C20.6655 20.1087 20.6476 20.134 20.6399 20.1449Z" fill="black"/>
<path fill-rule="evenodd" clip-rule="evenodd" d="M22.7643 17.8722L23.1379 17.7166L23.0969 17.3728C22.9767 17.409 22.7796 17.4705 22.6875 17.5574L22.7643 17.8722Z" fill="black"/>
<path fill-rule="evenodd" clip-rule="evenodd" d="M22.0483 19.7939C22.033 19.8156 22.056 19.8083 21.9894 19.8626L21.5288 20.1051C21.5135 20.1268 21.5263 20.1232 21.47 20.1666C21.4444 20.1847 21.4239 20.1992 21.3958 20.2173C21.3983 20.2245 21.3446 20.2861 21.4725 20.2788L21.8206 20.0798C21.9255 20.0146 22.1814 19.8373 22.2735 19.8228C22.253 19.7758 22.2556 19.7613 22.2095 19.7251C22.1174 19.783 22.1481 19.7794 22.0483 19.7939Z" fill="black"/>
<path fill-rule="evenodd" clip-rule="evenodd" d="M24.5794 15.2989L24.1828 15.317C24.1367 15.2591 24.1725 15.3242 24.1546 15.2229L24.1341 15.2736C24.1316 15.2772 24.1265 15.2953 24.1239 15.2989C24.1214 15.3025 24.1162 15.3134 24.1137 15.3242L24.1214 15.1179L24.5666 15.1288L24.5794 15.2989ZM24.0625 15.1976C24.0625 15.4979 24.1674 15.3604 24.6255 15.3677L24.6383 15.0673C24.321 15.06 24.0625 14.9804 24.0625 15.1976Z" fill="black"/>
<path fill-rule="evenodd" clip-rule="evenodd" d="M22.2734 18.2304C22.4782 18.1291 22.8364 18.2666 23.059 18.3028C23.3431 18.3499 23.6066 18.3969 23.883 18.4693C23.8216 18.386 23.8421 18.4005 23.7116 18.3752L23.2023 18.2775C23.013 18.2485 22.7187 18.158 22.5447 18.158V18.0422C22.4858 18.0784 22.4654 18.0893 22.3988 18.1146C22.2837 18.1653 22.2862 18.2015 22.2862 18.2015C22.2811 18.1942 22.276 18.2196 22.2734 18.2304Z" fill="black"/>
<path fill-rule="evenodd" clip-rule="evenodd" d="M20.8786 19.7286L20.9604 19.7575C21.0372 19.7105 21.0935 19.6707 21.1447 19.6273C20.9835 19.6815 20.6431 19.4861 20.4947 19.421L20.4384 19.2834C20.4 19.544 20.4 19.5404 20.5792 19.6019C20.6764 19.6381 20.7941 19.6888 20.8786 19.7286Z" fill="black"/>
<path fill-rule="evenodd" clip-rule="evenodd" d="M22.2695 13.7861C22.441 13.6884 22.8658 13.6522 23.0807 13.6015C23.2087 13.5726 23.352 13.5509 23.4901 13.5219C23.549 13.511 23.6155 13.5002 23.6821 13.4857C23.9968 13.4242 23.8663 13.4676 23.7998 13.4133L22.3565 13.6884C22.2081 13.7463 22.3028 13.7065 22.2695 13.7861Z" fill="black"/>
<path fill-rule="evenodd" clip-rule="evenodd" d="M23.5064 19.023L23.491 19.0483L23.3912 19.0845L23.3605 19.1315C23.2505 19.1967 23.1865 19.2872 23.0842 19.175L22.9844 19.2075C22.9844 19.2075 23.0432 19.2401 23.0458 19.2401C23.2147 19.3197 23.2428 19.3197 23.3784 19.2365C23.4475 19.1931 23.7316 19.0519 23.729 18.9832C23.6036 18.947 23.6395 18.9904 23.5064 19.023Z" fill="black"/>
<path fill-rule="evenodd" clip-rule="evenodd" d="M20.2461 20.6876C20.2947 20.8577 20.3971 20.7491 20.4994 20.684C20.5992 20.6225 20.6862 20.5646 20.7886 20.5139L20.7732 20.456C20.589 20.4488 20.4355 20.6442 20.2461 20.6876Z" fill="black"/>
<path fill-rule="evenodd" clip-rule="evenodd" d="M22.4947 19.4499C22.464 19.573 22.4282 19.544 22.3335 19.5332C22.3821 19.6092 22.3514 19.5477 22.3284 19.6019L22.2106 19.6309C22.1518 19.7395 22.1492 19.7141 22.0469 19.7214L22.0494 19.7937C22.1492 19.7793 22.1185 19.7829 22.2106 19.725L22.2644 19.6816L22.4102 19.649C22.4333 19.6128 22.3923 19.6309 22.4742 19.573C22.5075 19.5513 22.5228 19.5513 22.5535 19.5332C22.6687 19.4608 22.5996 19.4536 22.7429 19.4789L22.7096 19.421C22.8376 19.3993 22.7378 19.4246 22.7659 19.3667L22.4947 19.4499Z" fill="black"/>
<path fill-rule="evenodd" clip-rule="evenodd" d="M24.1542 15.2229L24.5381 15.2048L24.579 15.2989L24.5662 15.1288L24.121 15.1179L24.1133 15.3242C24.1158 15.3133 24.121 15.3025 24.1235 15.2989C24.1261 15.2953 24.1312 15.2772 24.1338 15.2735L24.1542 15.2229Z" fill="black"/>
<path fill-rule="evenodd" clip-rule="evenodd" d="M20.7734 20.4561C20.8835 20.4669 20.8732 20.485 20.973 20.3909L21.06 20.3439C21.1112 20.3294 21.1394 20.3149 21.1905 20.2932C21.0933 20.1014 21.2264 20.333 21.1598 20.2244L21.0396 20.2208C21.0012 20.2787 21.0959 20.1955 20.9884 20.2932C20.9526 20.3258 20.9654 20.3113 20.9091 20.3366C20.8297 20.3692 20.8067 20.3402 20.7734 20.4561Z" fill="black"/>
<path fill-rule="evenodd" clip-rule="evenodd" d="M24.581 15.2989L24.5401 15.2048L24.1562 15.2229C24.1742 15.3243 24.1383 15.2591 24.1844 15.317L24.581 15.2989Z" fill="black"/>
<path fill-rule="evenodd" clip-rule="evenodd" d="M21.3344 19.8156L21.3805 19.8699C21.2039 20.0581 21.3216 19.9495 21.2986 20.0002L21.4521 19.9495C21.4547 19.9423 21.4598 19.9314 21.4598 19.9314L21.4803 19.8771C21.5187 19.888 21.5263 19.9025 21.575 19.8844C21.6824 19.8409 21.6313 19.8518 21.6492 19.7939C21.5417 19.783 21.5647 19.7613 21.4803 19.8409C21.4752 19.8337 21.4675 19.8265 21.4624 19.8228C21.4163 19.783 21.4445 19.7722 21.3472 19.7686C21.3754 19.8446 21.3958 19.8446 21.3344 19.8156Z" fill="black"/>
<path fill-rule="evenodd" clip-rule="evenodd" d="M21.2369 20.1051L21.1602 20.2246C21.2472 20.239 21.242 20.2571 21.329 20.1956C21.4365 20.1232 21.3214 20.1739 21.4237 20.1305C21.457 20.1124 21.4928 20.1087 21.5286 20.1051C21.5261 19.9857 21.5593 20.0979 21.5082 20.0146C21.3521 20.0183 21.3802 20.1268 21.2369 20.1051Z" fill="black"/>
<path fill-rule="evenodd" clip-rule="evenodd" d="M23.2224 18.9615L23.207 19.0448C23.2173 19.0665 23.2301 19.0629 23.2326 19.0773C23.2352 19.0882 23.248 19.0882 23.2531 19.0882C23.2582 19.0918 23.2838 19.0991 23.2889 19.0991C23.3222 19.1099 23.3478 19.1208 23.3631 19.1316L23.3938 19.0846L23.3478 19.052C23.4552 19.005 23.4117 18.9688 23.4936 19.0484L23.509 19.0231C23.4092 19.0086 23.4501 18.9941 23.3657 18.9832L23.3529 18.9217C23.3529 18.9181 23.3478 18.9036 23.3478 18.9C23.3478 18.8964 23.3427 18.8891 23.3427 18.8819C23.3427 18.8747 23.3401 18.8711 23.3401 18.8674C23.1098 18.9434 23.2864 18.8566 23.2224 18.9615Z" fill="black"/>
<path fill-rule="evenodd" clip-rule="evenodd" d="M22.131 19.5151C22.1489 19.4427 22.1464 19.4536 22.1975 19.4066L22.0645 19.4174C22.0287 19.5115 22.0773 19.4862 21.9442 19.5043C21.9442 19.497 21.9417 19.4789 21.9417 19.4826C21.9391 19.4898 21.9365 19.4645 21.9365 19.4608C21.934 19.4572 21.9314 19.4427 21.9314 19.4391L21.8316 19.3704C21.9007 19.4464 21.8905 19.374 21.8086 19.4319C21.8547 19.4862 21.7702 19.4934 21.9263 19.5079C21.9186 19.5151 21.911 19.5187 21.9084 19.5332C21.9058 19.5513 21.893 19.5549 21.8905 19.5586L21.8521 19.6056C22.0978 19.6056 21.8905 19.5006 22.131 19.5151Z" fill="black"/>
<path fill-rule="evenodd" clip-rule="evenodd" d="M20.9856 20.0111H20.9114L20.9062 20.0617L21.0342 20.069L20.919 20.1848L21.0393 20.221L21.134 20.1486L21.0393 20.0654L21.1033 20.0292C21.0572 19.9676 21.0828 19.993 21.0726 19.9568L20.9958 19.9604C21.0188 20.0364 21.0393 20.0364 20.9856 20.0111Z" fill="black"/>
<path fill-rule="evenodd" clip-rule="evenodd" d="M22.4102 19.6492C22.5432 19.6818 22.4997 19.66 22.597 19.5985C22.6251 19.5804 22.643 19.5768 22.6763 19.5551C22.7428 19.508 22.7147 19.5261 22.7428 19.4791C22.5995 19.4538 22.6686 19.461 22.5535 19.5334C22.5227 19.5515 22.5074 19.5515 22.4741 19.5732C22.3922 19.6311 22.4332 19.613 22.4102 19.6492Z" fill="black"/>
<path fill-rule="evenodd" clip-rule="evenodd" d="M20.2299 20.5284L20.125 20.6225L20.2478 20.6877C20.3118 20.5972 20.3297 20.6153 20.4167 20.561C20.3246 20.4633 20.3553 20.5031 20.2299 20.5284Z" fill="black"/>
<path fill-rule="evenodd" clip-rule="evenodd" d="M22.0487 19.7937L22.0462 19.7213C22.1485 19.7141 22.1511 19.7394 22.2099 19.6309C22.0641 19.6164 22.1178 19.6309 22.0104 19.696C21.9182 19.7503 21.9336 19.7069 21.8594 19.8154L22.0487 19.7937Z" fill="black"/>
<path fill-rule="evenodd" clip-rule="evenodd" d="M20.5781 20.7203C20.7265 20.8036 20.6907 20.7457 20.834 20.6986L20.7931 20.6082C20.6805 20.6262 20.6728 20.6443 20.5781 20.7203Z" fill="black"/>
<path fill-rule="evenodd" clip-rule="evenodd" d="M20.5798 20.7202L20.3828 20.8215C20.4698 20.9482 20.4877 20.8795 20.6157 20.8288L20.5798 20.7202Z" fill="black"/>
<path fill-rule="evenodd" clip-rule="evenodd" d="M21.7738 19.5912C21.6331 19.5767 21.7021 19.5803 21.5819 19.6563L21.4258 19.7287C21.4411 19.7468 21.4463 19.783 21.5051 19.7794L21.7738 19.5912Z" fill="black"/>
<path fill-rule="evenodd" clip-rule="evenodd" d="M20.793 20.6082C20.9056 20.6444 20.9491 20.648 21.0437 20.525C20.9081 20.4779 20.8902 20.4888 20.793 20.6082Z" fill="black"/>
<path fill-rule="evenodd" clip-rule="evenodd" d="M21.711 18.2268C21.6189 18.158 21.6624 18.2304 21.5984 18.0603C21.5831 18.1761 21.6086 18.2304 21.6317 18.3136L21.7903 18.3028C21.7443 18.2376 21.7775 18.2774 21.711 18.2268Z" fill="black"/>
<path fill-rule="evenodd" clip-rule="evenodd" d="M21.2109 20.3367C21.2749 20.4344 21.3363 20.4091 21.4208 20.3005C21.3261 20.239 21.3031 20.2535 21.2109 20.3367Z" fill="black"/>
<path fill-rule="evenodd" clip-rule="evenodd" d="M20.6294 20.2968L20.7292 20.2316C20.7241 20.228 20.7139 20.2027 20.7113 20.2099C20.7062 20.2208 20.696 20.1918 20.6908 20.1882C20.655 20.1484 20.678 20.1701 20.6371 20.1448C20.632 20.1484 20.6218 20.1448 20.6192 20.1593C20.609 20.2027 20.5936 20.152 20.5117 20.2678L20.6294 20.2968Z" fill="black"/>
<path fill-rule="evenodd" clip-rule="evenodd" d="M21.0391 20.2209L21.1593 20.2245L21.2361 20.1051L21.1363 20.0978L21.103 20.0291L21.0391 20.0652L21.1337 20.1485L21.0391 20.2209Z" fill="black"/>
<path fill-rule="evenodd" clip-rule="evenodd" d="M21.0438 20.5249L21.2331 20.4381C21.1308 20.344 21.1129 20.3729 21.0156 20.4525C21.0207 20.4562 21.0233 20.4634 21.0233 20.4742L21.0438 20.5249Z" fill="black"/>
<path fill-rule="evenodd" clip-rule="evenodd" d="M20.6312 20.2969L20.5391 20.3874C20.6772 20.4995 20.754 20.3222 20.754 20.3222L20.6312 20.2969Z" fill="black"/>
<path fill-rule="evenodd" clip-rule="evenodd" d="M20.3125 20.373C20.3944 20.4056 20.4532 20.4164 20.5402 20.2898C20.4379 20.2644 20.3969 20.2608 20.3125 20.373Z" fill="black"/>
<path fill-rule="evenodd" clip-rule="evenodd" d="M21.1055 20.029L21.1387 20.0978L21.2385 20.105L21.3051 19.9856L21.1746 19.9892L21.1055 20.029Z" fill="black"/>
<path fill-rule="evenodd" clip-rule="evenodd" d="M21.0742 19.9566L21.174 19.9892L21.2303 19.9386C21.2764 19.8843 21.238 19.9386 21.2764 19.8662C21.1561 19.8626 21.1561 19.8517 21.0742 19.9566Z" fill="black"/>
<path fill-rule="evenodd" clip-rule="evenodd" d="M22.6519 19.1134L22.7185 19.117L22.6596 19.0157C22.6826 19.0048 22.7133 19.0012 22.7389 18.9867C22.8157 18.9433 22.7594 18.9722 22.7901 18.936L22.5547 19.0446L22.6519 19.1134Z" fill="black"/>
<path fill-rule="evenodd" clip-rule="evenodd" d="M20.9091 20.0615L20.9142 20.0109H20.9884C20.9219 19.9312 21.0703 19.9421 20.9091 19.9457L20.7734 20.0651L20.9091 20.0615Z" fill="black"/>
<path fill-rule="evenodd" clip-rule="evenodd" d="M21.6488 19.7938C21.6923 19.7902 21.7 19.8011 21.746 19.7794C21.8637 19.7251 21.7921 19.7432 21.8202 19.707C21.7588 19.6961 21.6411 19.6635 21.6488 19.7938Z" fill="black"/>
<path fill-rule="evenodd" clip-rule="evenodd" d="M22.7403 19.4789C22.7608 19.4789 22.7864 19.4861 22.8119 19.4717C22.8964 19.4246 22.858 19.4355 22.8862 19.3957L22.7633 19.3667C22.7352 19.4246 22.835 19.3993 22.707 19.421L22.7403 19.4789Z" fill="black"/>
<path fill-rule="evenodd" clip-rule="evenodd" d="M22.2617 19.6817C22.2873 19.7432 22.2464 19.7034 22.3027 19.7541L22.446 19.7107C22.3155 19.5225 22.5074 19.7686 22.4076 19.6491L22.2617 19.6817Z" fill="black"/>
<path fill-rule="evenodd" clip-rule="evenodd" d="M22.0657 19.4175C22.0708 19.4103 22.0734 19.3849 22.076 19.3922C22.0964 19.4718 22.0964 19.3307 22.1015 19.3198C21.971 19.3126 22.0325 19.3089 21.9531 19.4139L22.0657 19.4175Z" fill="black"/>
<path fill-rule="evenodd" clip-rule="evenodd" d="M22.332 19.5332C22.4267 19.544 22.4625 19.573 22.4932 19.45C22.3883 19.4536 22.3858 19.4355 22.332 19.5332Z" fill="black"/>
<path fill-rule="evenodd" clip-rule="evenodd" d="M19.7695 19.3777C19.8847 19.3378 19.8744 19.3089 19.9998 19.3161C19.964 19.2763 20.051 19.2112 19.8719 19.2836C19.8668 19.2872 19.813 19.3198 19.8105 19.3198C19.7542 19.3632 19.7849 19.3487 19.7695 19.3777Z" fill="black"/>
<path fill-rule="evenodd" clip-rule="evenodd" d="M21.7039 19.9133L21.5273 19.9712C21.5785 20.0291 21.7193 20.0364 21.7039 19.9133Z" fill="black"/>
<path fill-rule="evenodd" clip-rule="evenodd" d="M20.7734 18.918C20.8784 18.8674 20.886 18.842 21.0012 18.8457C20.9654 18.8059 21.0268 18.7552 20.8758 18.8203C20.863 18.824 20.8272 18.8457 20.8144 18.8565C20.7376 18.918 20.8016 18.8638 20.7734 18.918Z" fill="black"/>
<path fill-rule="evenodd" clip-rule="evenodd" d="M21.7031 19.9133L21.8899 19.859C21.8336 19.8011 21.7262 19.7794 21.7031 19.9133Z" fill="black"/>
<path fill-rule="evenodd" clip-rule="evenodd" d="M22.2104 19.6309L22.3281 19.602C22.3511 19.5477 22.3818 19.6092 22.3332 19.5332L22.1797 19.573C22.1848 19.5803 22.2053 19.6237 22.2104 19.6309Z" fill="black"/>
<path fill-rule="evenodd" clip-rule="evenodd" d="M22.8796 15.9286C22.8412 15.8056 22.8668 15.8888 22.8438 15.8381C22.8514 15.9829 22.8821 16.1494 22.9333 16.2543L22.8796 15.9286Z" fill="black"/>
<path fill-rule="evenodd" clip-rule="evenodd" d="M21.9609 19.1931C22.1784 19.1859 22.0172 19.2076 22.0838 19.1063C22.0403 19.1171 22.0505 19.1316 22.0505 19.0701C22.0428 19.0809 22.0326 19.0809 22.0275 19.1026L21.9609 19.1931Z" fill="black"/>
<path fill-rule="evenodd" clip-rule="evenodd" d="M22.2109 19.7251C22.257 19.7613 22.2544 19.7757 22.2749 19.8228C22.3338 19.8228 22.321 19.8409 22.3056 19.754C22.2493 19.7034 22.2903 19.7432 22.2647 19.6816L22.2109 19.7251Z" fill="black"/>
<path fill-rule="evenodd" clip-rule="evenodd" d="M22.5703 19.3306C22.6164 19.3198 22.6368 19.3161 22.6778 19.2944C22.7673 19.2438 22.6701 19.3053 22.7187 19.2691C22.7853 19.2184 22.7469 19.2438 22.7776 19.2112C22.7162 19.2293 22.7111 19.2257 22.6599 19.2582C22.5626 19.3125 22.6727 19.2438 22.6189 19.2836C22.5575 19.3306 22.5857 19.3161 22.5703 19.3306Z" fill="black"/>
<path fill-rule="evenodd" clip-rule="evenodd" d="M22.8312 15.6827C22.8056 15.5741 22.8031 15.6067 22.7852 15.5669C22.7903 15.6429 22.7877 15.6429 22.8031 15.7189C22.8287 15.8275 22.8312 15.8021 22.8491 15.8383C22.8415 15.7587 22.8491 15.7732 22.8312 15.6827Z" fill="black"/>
<path fill-rule="evenodd" clip-rule="evenodd" d="M20.0145 19.2617C20.1322 19.2219 20.0426 19.2292 20.1629 19.2364C20.1194 19.1894 20.168 19.1785 20.0759 19.193C19.9607 19.2111 20.0196 19.2509 20.0145 19.2617Z" fill="black"/>
<path fill-rule="evenodd" clip-rule="evenodd" d="M23.0859 19.175L23.219 19.1424C23.1832 19.1171 23.2318 19.0881 23.1499 19.1062C23.0424 19.1243 23.109 19.1243 23.0859 19.175Z" fill="black"/>
<path fill-rule="evenodd" clip-rule="evenodd" d="M23.3937 19.0845L23.4935 19.0483C23.4116 18.9687 23.4551 19.0049 23.3477 19.0519L23.3937 19.0845Z" fill="black"/>
<path fill-rule="evenodd" clip-rule="evenodd" d="M21.6024 18.5236C21.7201 18.4874 21.6228 18.4947 21.7482 18.5019C21.7047 18.4585 21.7508 18.4476 21.6638 18.4621C21.5486 18.4766 21.6024 18.5236 21.6024 18.5236Z" fill="black"/>
<path fill-rule="evenodd" clip-rule="evenodd" d="M22.7411 15.2917C22.7232 15.1108 22.736 15.147 22.6797 15.0239C22.6874 15.1144 22.6822 15.0927 22.7002 15.1795C22.7334 15.3315 22.7232 15.2519 22.7411 15.2917Z" fill="black"/>
<path fill-rule="evenodd" clip-rule="evenodd" d="M22.6851 15.0202C22.6774 14.9442 22.6876 14.9551 22.6672 14.8718C22.6441 14.7669 22.639 14.7886 22.6211 14.7488C22.639 14.8791 22.6288 14.8935 22.6851 15.0202Z" fill="black"/>
<path fill-rule="evenodd" clip-rule="evenodd" d="M22.7958 15.5669C22.7779 15.4076 22.7856 15.4149 22.7344 15.2991C22.7421 15.4655 22.7497 15.4692 22.7958 15.5669Z" fill="black"/>
<path fill-rule="evenodd" clip-rule="evenodd" d="M24.4508 16.8697C24.4201 16.8299 24.438 16.8443 24.3894 16.8009C24.3638 16.7792 24.3485 16.7756 24.3203 16.7502C24.3536 16.8733 24.3485 16.8443 24.4508 16.8697Z" fill="black"/>
<path fill-rule="evenodd" clip-rule="evenodd" d="M22.2196 19.3269L22.3374 19.269C22.3118 19.2509 22.3527 19.2328 22.2734 19.2509C22.1761 19.2799 22.2324 19.2871 22.2196 19.3269Z" fill="black"/>
<path fill-rule="evenodd" clip-rule="evenodd" d="M22.9883 19.1134C23.1034 19.0809 23.042 19.0917 23.1111 19.0519C23.1239 19.0447 23.1597 19.0302 23.17 19.0193C23.2442 18.9687 23.2109 18.9868 23.2211 18.9614L22.9883 19.1134Z" fill="black"/>
<path fill-rule="evenodd" clip-rule="evenodd" d="M20.5859 18.9613H20.7497C20.7036 18.8998 20.7548 18.9179 20.6729 18.9215C20.6729 18.9215 20.5936 18.9577 20.5859 18.9613Z" fill="black"/>
<path fill-rule="evenodd" clip-rule="evenodd" d="M22.7422 19.1604L22.8113 19.1423L22.7908 19.0771C22.7345 19.1025 22.7601 19.0265 22.7422 19.1604Z" fill="black"/>
<path fill-rule="evenodd" clip-rule="evenodd" d="M20.2151 20.3765C20.1511 20.3801 20.1767 20.3692 20.1307 20.3909C20.0513 20.4308 20.1076 20.4127 20.082 20.4597L20.2151 20.3765Z" fill="black"/>
<path fill-rule="evenodd" clip-rule="evenodd" d="M23.0525 18.7913L23.0192 18.8166L22.9297 18.8057C22.9757 18.8383 22.9143 18.8492 23.0039 18.8419C23.0858 18.8347 23.0576 18.8311 23.0525 18.7913Z" fill="black"/>
<path fill-rule="evenodd" clip-rule="evenodd" d="M21.1049 20.0292L21.174 19.9894L21.0742 19.9568C21.0845 19.993 21.0589 19.9676 21.1049 20.0292Z" fill="black"/>
<path fill-rule="evenodd" clip-rule="evenodd" d="M22.8894 19.3415L22.9354 19.2619C22.7666 19.2148 22.9124 19.2474 22.8689 19.2799L22.8894 19.3415Z" fill="black"/>
<path fill-rule="evenodd" clip-rule="evenodd" d="M24.3945 18.3933C24.4432 18.4005 24.4815 18.3933 24.5122 18.3716L24.3945 18.3933Z" fill="black"/>
</svg>
