<svg width="105" height="77" viewBox="0 0 105 77" fill="none" xmlns="http://www.w3.org/2000/svg">
<path fill-rule="evenodd" clip-rule="evenodd" d="M50.2817 62.4435L50.2711 67.5029H53.7463V56.6856L50.2711 56.6964C50.2711 56.8991 50.3489 57.7206 50.1969 57.8545L48.6448 60.3227C48.4009 60.6991 47.2378 62.7837 47.1105 62.885C47.1529 61.7921 47.2767 57.4528 47.16 56.606C46.7852 56.729 44.2893 56.6421 43.6777 56.6421C43.6034 56.9679 43.6105 67.2785 43.6812 67.5536L47.16 67.5427C47.2307 67.1917 47.114 66.6959 47.2166 66.3846C47.259 66.2543 47.5666 65.8092 47.6549 65.6681C48.1746 64.8284 50.0625 61.9621 50.3064 61.2492L50.2817 62.4435Z" fill="black"/>
<path fill-rule="evenodd" clip-rule="evenodd" d="M62.8448 60.9814C62.7317 61.0791 62.8236 61.061 62.3958 61.0574H59.1292V62.9864C59.3837 62.9864 62.7388 62.8923 62.9615 63.0479L62.912 63.5003C62.7706 64.6149 61.9999 65.2664 60.7979 65.2446C60.2145 65.2374 59.7408 65.0601 59.4049 64.7524C59.2105 64.5715 58.7226 64.0033 58.7509 63.6414L55.3711 64.1444C55.6575 65.3134 56.7817 66.4281 57.6196 66.9311C60.3383 68.5561 66.2034 68.0458 66.5463 62.5665C66.7443 59.3637 65.1075 57.1814 62.5054 56.6204C61.1266 56.3237 59.3943 56.4612 58.2277 57.0185C57.3085 57.4564 55.965 58.6507 55.7812 59.5338C56.6155 59.6785 58.2736 60.301 58.9772 60.3083C59.4544 59.5229 59.8645 58.8064 61.2433 58.962C62.3075 59.085 62.7246 59.8523 62.8448 60.9814Z" fill="black"/>
<path fill-rule="evenodd" clip-rule="evenodd" d="M73.439 67.5175L73.4425 59.3312L75.8678 59.3276C75.9632 58.9693 75.9031 57.1815 75.9031 56.6748H67.5703V59.2914C68.0688 59.2914 69.6208 59.2299 70.0203 59.3276L70.0238 67.5175H73.439Z" fill="black"/>
<path fill-rule="evenodd" clip-rule="evenodd" d="M76.5162 40.8741C76.7637 40.78 76.8592 40.704 77.0784 40.5737C77.1738 40.5158 77.2269 40.4941 77.3365 40.4254C77.4637 40.3494 77.4531 40.3711 77.4849 40.2987L76.9652 38.7063C76.8875 38.4892 76.8945 38.1707 76.6365 37.4722C76.5764 37.3166 76.5622 37.2587 76.5092 37.0741L74.2147 29.8577C74.1582 29.6623 74.1794 29.6261 74.1405 29.4054C74.1193 29.2859 74.0627 29.1701 74.0061 29.0254L70.1173 16.612C69.9935 15.8918 69.6046 15.0993 69.5127 14.5636C69.4314 14.4297 68.3743 13.8398 68.1445 13.7566L68.696 15.5154C68.7738 15.776 68.7526 15.881 68.9188 16.3949L70.2233 20.5966C70.3152 20.9295 70.4178 21.1684 70.5168 21.4688C70.6122 21.7619 70.6723 22.0116 70.7819 22.3012L71.3263 23.9587C71.5349 24.5956 71.4678 24.6137 71.5385 24.8526C71.6162 25.1204 71.7435 25.3882 71.8213 25.6705C71.9061 25.9962 71.9804 26.2025 72.0935 26.4993L76.039 39.1949C76.1274 39.4627 76.5516 40.6895 76.5162 40.8741Z" fill="black"/>
<path fill-rule="evenodd" clip-rule="evenodd" d="M69.9896 23.0538C70.2017 23.3506 70.732 23.394 70.8911 23.727L70.8629 35.9738C71.029 35.9014 70.8947 36.01 70.9618 35.8472C71.0007 35.7494 70.9866 35.8001 71.0007 35.6879C71.0078 35.6119 70.9937 35.3658 70.9937 35.2717V31.6997V29.1085V25.9672C70.9618 26.0757 71.432 27.4582 71.5134 27.8418C71.7043 28.7068 72.4538 30.6357 72.7437 31.6599C72.8568 32.0616 72.8038 32.0327 73.0124 32.6696L73.6098 34.5624C74.0058 35.6445 74.2427 36.7809 74.5149 37.4866L75.6957 41.3626L76.5159 40.874C76.5512 40.6894 76.127 39.4626 76.0386 39.1948L72.0932 26.4992C71.98 26.2024 71.9058 25.9961 71.8209 25.6704C71.7432 25.3881 71.6159 25.1203 71.5381 24.8525C71.4674 24.6136 71.5346 24.5955 71.326 23.9586L70.7815 22.3011C70.6719 22.0115 70.6118 21.7618 70.5164 21.4687C70.4174 21.1683 70.3149 20.9294 70.223 20.5965L68.9184 16.3948C68.7522 15.8809 68.7735 15.7759 68.6957 15.5154L68.1442 13.7565L66.9492 13.0508C67.027 13.5249 67.2568 13.9302 67.3558 14.3717C67.5714 15.3308 68.2078 17.2308 68.5048 18.0994C68.7629 18.8557 68.7593 19.0801 68.8548 19.3733L69.9896 23.0538Z" fill="black"/>
<path fill-rule="evenodd" clip-rule="evenodd" d="M77.7963 34.4177L77.8211 36.4769L77.8388 39.0754C77.8282 39.4228 77.8883 39.7956 77.7893 40.1177L77.8246 40.0996C77.8246 39.1876 77.8741 27.9903 77.8176 27.4185C77.7787 27.024 77.2554 25.4931 77.1069 25.0371L75.5938 20.2274C75.5266 20.003 75.5443 19.8148 75.4701 19.5977C75.4064 19.4204 75.3216 19.1996 75.2544 19.0005L74.862 17.7266C74.7771 17.6145 73.3135 16.7459 73.0625 16.6663L73.911 19.3842C74.2327 20.3324 74.0489 19.8945 74.208 20.4807L77.0574 29.5754C77.9979 32.4453 77.7044 31.0809 77.7963 34.4177Z" fill="black"/>
<path fill-rule="evenodd" clip-rule="evenodd" d="M77.8398 39.0753L77.8222 36.4769C77.6949 36.3285 77.6065 36.0462 77.5358 35.8399L76.8535 33.502C76.6802 32.7746 75.6232 29.9409 75.51 29.275C75.4252 28.7719 74.552 26.358 74.3009 25.446L72.8903 20.9512C72.7206 20.5241 72.8479 20.4553 72.5085 19.5904L71.6883 17.0462C71.5717 16.6915 71.3419 16.0148 71.3666 15.6601L71.3206 15.6167C71.3136 15.6131 71.2994 15.5986 71.2924 15.595L71.1262 15.4864C71.0095 15.4176 70.9636 15.3923 70.8717 15.3344C70.6666 15.2077 70.5252 15.1064 70.2812 15.0195L71.2429 18.0414C71.5116 18.8376 71.4939 19.0367 71.6954 19.5578L72.6535 22.5399C72.6994 22.6919 72.7277 22.7498 72.7631 22.8946C72.8055 23.0574 72.8126 23.2022 72.8479 23.3325C72.8833 23.4628 72.9328 23.5677 72.9717 23.6763C73.0176 23.803 73.0494 23.9296 73.0919 24.0744C73.3924 25.0515 73.7318 26.0612 74.0605 27.0492C74.1489 27.3098 74.156 27.574 74.255 27.8418L74.7429 29.3256C75.305 30.8999 75.8494 33.2016 76.3868 34.5805L76.8747 36.0643C77.0055 36.5529 76.9312 36.5167 77.1787 37.2115L77.5499 38.3479C77.5959 38.4927 77.6136 38.5542 77.6631 38.6953C77.6807 38.746 77.7055 38.8184 77.7267 38.8654C77.7338 38.8799 77.755 38.9342 77.7656 38.9487C77.8186 39.0572 77.7691 38.9921 77.8398 39.0753Z" fill="black"/>
<path fill-rule="evenodd" clip-rule="evenodd" d="M77.4839 40.2985L77.7915 40.1176C77.8905 39.7955 77.8304 39.4227 77.841 39.0753C77.7703 38.992 77.8198 39.0572 77.7668 38.9486C77.7562 38.9341 77.735 38.8799 77.7279 38.8654C77.7067 38.8183 77.6819 38.746 77.6642 38.6953C77.6147 38.5541 77.5971 38.4926 77.5511 38.3479L77.1799 37.2115C76.9324 36.5166 77.0067 36.5528 76.8759 36.0642L76.388 34.5804C75.8506 33.2016 75.3062 30.8999 74.744 29.3256L74.2562 27.8418C74.1572 27.574 74.1501 27.3098 74.0617 27.0492C73.7329 26.0612 73.3935 25.0515 73.093 24.0743C73.0506 23.9296 73.0188 23.8029 72.9728 23.6762C72.9339 23.5677 72.8844 23.4627 72.8491 23.3324C72.8137 23.2021 72.8067 23.0574 72.7642 22.8945C72.7289 22.7498 72.7006 22.6919 72.6546 22.5399L71.6966 19.5578C71.4951 19.0366 71.5127 18.8376 71.244 18.0414L70.2824 15.0195L69.5117 14.5635C69.6036 15.0991 69.9925 15.8917 70.1163 16.6119L74.0052 29.0252C74.0617 29.17 74.1183 29.2858 74.1395 29.4052C74.1784 29.626 74.1572 29.6621 74.2137 29.8576L76.5082 37.074C76.5612 37.2585 76.5754 37.3164 76.6355 37.472C76.8935 38.1705 76.8865 38.489 76.9642 38.7061L77.4839 40.2985Z" fill="black"/>
<path fill-rule="evenodd" clip-rule="evenodd" d="M56.1403 47.7249C56.3206 47.9783 56.7872 48.1592 57.1266 48.3619C57.3494 48.4958 57.9044 48.8685 58.1201 48.8975L58.2084 48.8577C58.1236 48.7093 58.0741 48.5175 58.0034 48.3293C57.862 47.9457 57.9256 47.7828 57.6569 47.0518C57.5756 46.8383 57.5297 46.6428 57.4625 46.4329C57.3988 46.2375 57.3423 46.0493 57.261 45.8213C57.215 45.6802 57.1973 45.6585 57.1549 45.5245L56.5716 43.6644C56.3595 42.5316 55.2918 39.944 55.161 38.9379C55.069 38.7678 54.4327 38.4746 54.21 38.3444C53.8953 38.1598 53.5206 37.892 53.1953 37.7798C53.3403 38.2611 53.4605 38.6013 53.6054 39.032L55.1433 43.9901C55.2211 44.2217 55.2387 44.399 55.3024 44.6451L56.2569 47.5729C56.31 47.6887 56.2605 47.6019 56.317 47.6779C56.2958 47.6851 56.3524 47.7249 56.1403 47.7249Z" fill="black"/>
<path fill-rule="evenodd" clip-rule="evenodd" d="M56.3008 24.393C56.4599 24.4437 56.4387 24.4835 56.5023 24.6825L56.8382 25.9094C57.0927 26.7997 57.7079 28.3342 57.8811 29.1593C58.026 29.8469 58.5174 31.2149 58.7685 31.9822L59.1467 33.1728C59.2351 33.4443 59.274 33.7555 59.373 34.0486C59.4861 34.3888 60.3629 36.9909 60.3912 37.3058C60.1331 37.3239 60.1614 37.2696 59.9952 37.4071C60.0129 37.4542 59.9988 37.4578 60.0235 37.5012C60.4124 37.5989 60.4159 37.7907 60.7412 37.6098C60.9392 37.5012 61.275 37.3383 61.3705 37.1972C61.42 36.9222 61.2609 36.6543 61.1831 36.3938L60.6563 34.7145C60.6174 34.5553 60.6033 34.4395 60.5573 34.2911L59.8998 32.2246C59.8114 31.9098 59.7159 31.7252 59.6169 31.4067C59.518 31.0955 59.4685 30.8566 59.3589 30.5635C59.2104 30.169 59.2634 30.1075 59.1467 29.7311L58.0755 26.4559C57.8599 25.9058 57.9624 26.0143 57.8528 25.5728C57.7538 25.1856 57.4144 24.3423 57.319 23.9008L57.174 23.8755C56.9937 23.9008 56.8876 23.9877 56.7144 24.0926C56.6366 24.1361 56.5659 24.1723 56.4988 24.2193C56.3432 24.3206 56.4174 24.2338 56.3008 24.393Z" fill="black"/>
<path fill-rule="evenodd" clip-rule="evenodd" d="M57.1719 23.8755L57.3168 23.9008C57.4123 24.3424 57.7517 25.1856 57.8507 25.5728C57.9603 26.0144 57.8577 25.9058 58.0734 26.4559L59.1446 29.7311C59.2613 30.1075 59.2082 30.169 59.3567 30.5635C59.4663 30.8566 59.5158 31.0955 59.6148 31.4067C59.7138 31.7252 59.8092 31.9098 59.8976 32.2246L60.5552 34.2911C60.6012 34.4395 60.6153 34.5553 60.6542 34.7146L61.181 36.3938C61.2587 36.6544 61.4178 36.9222 61.3683 37.1972L62.337 36.6435C62.2486 36.4951 62.0896 36.021 62.0365 35.8618C61.9446 35.5867 61.9269 35.2827 61.8244 34.9679L59.4345 27.4475C59.3815 27.2883 59.3426 27.1833 59.3037 27.0566L58.2749 23.6765C58.2113 23.51 58.2289 23.434 58.0734 23.3435C57.9002 23.3616 57.9779 23.3435 57.7941 23.4485C57.7234 23.4919 57.6562 23.5353 57.582 23.5787C57.4229 23.6728 57.2779 23.738 57.1719 23.8755Z" fill="black"/>
<path fill-rule="evenodd" clip-rule="evenodd" d="M59.2539 22.6414C59.4731 22.7391 59.5297 23.1408 59.6039 23.3724L60.5514 26.3075C60.615 26.5065 60.5973 26.5102 60.6468 26.7345L60.8978 27.585C60.9862 27.8528 61.0958 28.1351 61.1842 28.4029L61.7145 30.0713C61.7923 30.3536 61.9337 30.625 61.9832 30.9073C62.1175 31.6926 62.5135 32.6625 62.7645 33.4298C62.8635 33.7338 62.9236 33.9871 63.0191 34.2766C63.1074 34.5481 63.2276 34.7978 63.2984 35.0982C63.3443 35.2755 63.4645 35.8039 63.4362 35.9703L64.412 35.3985C64.1574 34.7688 64.0585 34.3309 63.864 33.741L61.3186 25.562C61.2655 25.3882 60.3675 22.6884 60.3888 22.3844C60.3888 22.37 60.3958 22.3482 60.3994 22.3338C60.3994 22.3229 60.4135 22.3121 60.4135 22.2831C60.417 22.2542 60.4241 22.2469 60.4347 22.2324C60.6539 22.1962 60.5196 22.2578 60.6963 22.341L60.714 22.0153C60.661 21.9393 60.8625 22.0406 60.615 21.9284C60.4842 21.8705 60.6186 21.9067 60.4347 21.885C60.3499 21.9791 60.0494 22.1166 59.8549 22.2361C59.664 22.3519 59.3812 22.4822 59.2539 22.6414Z" fill="black"/>
<path fill-rule="evenodd" clip-rule="evenodd" d="M77.8259 40.0995C77.9532 39.9765 77.9002 40.1285 77.9214 39.8245C77.9249 39.7448 77.9178 39.5639 77.9143 39.4734C77.8683 34.6058 77.9143 29.5428 77.9143 24.6607C77.9143 22.9778 77.9673 21.1972 77.9214 19.5035L74.8633 17.7266L75.2557 19.0005C75.3229 19.1995 75.4077 19.4203 75.4714 19.5976C75.5456 19.8148 75.5279 20.0029 75.5951 20.2273L77.1082 25.037C77.2567 25.493 77.7799 27.0239 77.8188 27.4184C77.8754 27.9902 77.8259 39.1875 77.8259 40.0995Z" fill="black"/>
<path fill-rule="evenodd" clip-rule="evenodd" d="M77.798 34.4177C77.706 31.081 77.9995 32.4454 77.0591 29.5755L74.2096 20.4808C74.0505 19.8945 74.2343 20.3324 73.9126 19.3842L73.0641 16.6663C72.9545 16.5179 72.304 16.1669 72.0742 16.0764L72.7919 18.3673C72.8449 18.74 73.3399 20.1949 73.499 20.6798C73.6333 21.0888 73.75 21.4471 73.8702 21.8198L74.9379 25.2724C75.0616 25.6416 75.15 26.0324 75.2843 26.3798C75.6131 27.2376 75.4717 27.1579 75.6025 27.5669L76.7303 30.9579C76.9848 31.8048 77.0343 32.2753 77.4232 33.285C77.5505 33.6107 77.6389 34.1137 77.798 34.4177Z" fill="black"/>
<path fill-rule="evenodd" clip-rule="evenodd" d="M77.8246 36.4769L77.7998 34.4177C77.6408 34.1137 77.5524 33.6106 77.4251 33.2849C77.0362 32.2752 76.9867 31.8047 76.7322 30.9579L75.6044 27.5668C75.4736 27.1579 75.615 27.2375 75.2862 26.3798C75.1519 26.0323 75.0635 25.6415 74.9397 25.2723L73.8721 21.8198C73.7519 21.447 73.6352 21.0887 73.5009 20.6798C73.3418 20.1948 72.8468 18.74 72.7938 18.3672L72.0761 16.0763L71.369 15.6602C71.3443 16.0148 71.5741 16.6916 71.6908 17.0463L72.511 19.5904C72.8503 20.4554 72.7231 20.5242 72.8928 20.9512L74.3034 25.4461C74.5544 26.3581 75.4276 28.772 75.5125 29.275C75.6256 29.9409 76.6827 32.7746 76.8559 33.5021L77.5382 35.84C77.6089 36.0463 77.6973 36.3285 77.8246 36.4769Z" fill="black"/>
<path fill-rule="evenodd" clip-rule="evenodd" d="M70.9937 29.1086L72.7013 34.624C72.8074 34.8955 72.825 35.1995 72.9028 35.4637C72.9912 35.7532 73.0831 35.9595 73.175 36.2345L73.9281 38.6159C74.0412 38.9307 74.1013 39.0393 74.1649 39.4193L74.7836 41.4134C74.8437 41.5835 74.8862 41.6233 74.9109 41.8296L75.6957 41.3627L74.5149 37.4867C74.2427 36.781 74.0059 35.6446 73.6099 34.5625L73.0124 32.6698C72.8038 32.0328 72.8569 32.0618 72.7437 31.66C72.4538 30.6359 71.7043 28.7069 71.5134 27.842C71.4321 27.4583 70.9619 26.0759 70.9937 25.9673V29.1086Z" fill="black"/>
<path fill-rule="evenodd" clip-rule="evenodd" d="M55.4062 24.9212L55.5936 24.9176L56.0674 26.405C56.3113 27.0347 56.4704 27.726 56.6401 28.3267L59.2138 36.4732C59.2598 36.6867 59.2032 36.6759 59.2951 36.846L59.1537 36.8785C59.2669 37.0342 59.38 37.0703 59.5674 37.1789C59.6911 37.2549 59.8113 37.3309 59.9951 37.4069C60.1613 37.2694 60.133 37.3237 60.3911 37.3056C60.3628 36.9907 59.486 34.3886 59.3729 34.0484C59.2739 33.7553 59.235 33.4441 59.1467 33.1726L58.7684 31.982C58.5174 31.2147 58.0259 29.8467 57.881 29.1591C57.7078 28.334 57.0926 26.7995 56.8381 25.9092L56.5022 24.6823C56.4386 24.4833 56.4598 24.4435 56.3007 24.3928C56.1027 24.4145 55.5194 24.762 55.4062 24.9212Z" fill="black"/>
<path fill-rule="evenodd" clip-rule="evenodd" d="M54.6094 25.3918L54.7579 25.4208C54.7685 25.837 55.0654 26.369 55.1609 26.7598C55.5639 28.4029 55.9528 29.228 56.3912 30.748C56.6599 31.6853 56.8508 32.4634 57.1973 33.4189C57.3563 33.8532 57.4553 34.3019 57.6215 34.7326L58.0033 36.0861L57.8831 36.1295C58.0281 36.3032 58.972 36.857 59.1523 36.8787L59.2937 36.8461C59.2018 36.676 59.2584 36.6869 59.2124 36.4733L56.6387 28.3269C56.469 27.7261 56.3099 27.0349 56.0659 26.4052L55.5922 24.9177L55.4048 24.9213C55.2139 24.9467 55.1821 24.9973 54.9806 25.1168C54.818 25.2145 54.7119 25.2543 54.6094 25.3918Z" fill="black"/>
<path fill-rule="evenodd" clip-rule="evenodd" d="M61.2888 49.8745L62.4873 49.1724C62.4272 48.6368 62.0949 48.1302 61.9818 47.3557C61.9535 47.1494 61.9146 47.1023 61.8439 46.9142L61.4196 45.5968C61.3136 45.3182 61.2181 45.0286 61.1368 44.721L60.7126 43.4073C60.656 43.201 60.656 43.1503 60.6065 42.9332C60.4403 42.1913 60.3201 42.3578 60.1646 42.2963C59.9489 42.1913 60.0691 42.4084 60.0232 42.0972V41.9199C60.1116 41.8294 59.8959 41.7534 60.1575 41.8728C60.0479 41.7643 58.6974 40.9862 58.5312 40.9102C58.5984 41.2902 58.7575 41.6665 58.8777 42.0284L59.2312 43.1214C59.2878 43.3349 59.2949 43.4761 59.355 43.6932C59.4222 43.9321 59.4504 44.0515 59.5353 44.2686C59.6873 44.6595 59.758 45.025 59.903 45.4086L60.6171 47.5909C60.6701 47.9022 60.6525 47.9239 60.7408 48.1663C60.8151 48.3726 60.8717 48.4848 60.9388 48.7201C61.0626 49.1507 61.1757 49.4511 61.2888 49.8745Z" fill="black"/>
<path fill-rule="evenodd" clip-rule="evenodd" d="M66.338 20.8969C66.5607 21.2081 67.4163 21.4687 67.6001 21.7329L67.731 21.7257L67.8193 21.6858C67.5506 21.2479 67.3809 20.2237 67.2643 19.8257L66.4618 17.3828C66.3946 17.1657 66.3451 16.9702 66.2673 16.7712C65.9951 16.0691 66.0022 15.7072 65.9208 15.4937L65.1219 13.0399C65.0158 12.7106 64.7506 12.1171 64.7613 11.7552C64.7577 11.7479 64.7471 11.7298 64.6905 11.6864C64.6835 11.6792 64.6693 11.6683 64.6623 11.6647C64.6552 11.6575 64.6375 11.6502 64.6304 11.643C64.5633 11.5996 64.5032 11.5706 64.4466 11.538C64.0754 11.3281 63.7148 11.0567 63.3047 10.8975L64.5633 14.6287C64.9203 15.975 65.4719 17.6578 65.9208 19.0077L66.437 20.7557C66.4971 20.8933 66.4512 20.7992 66.4971 20.886L66.338 20.8969Z" fill="black"/>
<path fill-rule="evenodd" clip-rule="evenodd" d="M58.6602 22.9996L59.1905 24.5595C59.3637 25.1711 59.4733 25.6958 59.6889 26.264C59.8975 26.8069 60.0496 27.3715 60.244 27.9143L60.7248 29.6334C61.0182 30.625 61.7288 32.5431 61.9445 33.3429C62.1107 33.9654 62.0046 33.7337 62.3051 34.6638C62.4041 34.9642 62.4819 35.2031 62.5773 35.4962C62.6586 35.7495 62.7612 36.0391 62.8213 36.3395C63.0405 36.2635 63.3233 36.1295 63.4364 35.9703C63.4647 35.8038 63.3445 35.2755 63.2985 35.0981C63.2278 34.7977 63.1076 34.548 63.0192 34.2766C62.9238 33.9871 62.8637 33.7337 62.7647 33.4297C62.5137 32.6625 62.1177 31.6926 61.9834 30.9073C61.9339 30.625 61.7925 30.3535 61.7147 30.0713L61.1844 28.4029C61.096 28.1351 60.9864 27.8528 60.898 27.585L60.647 26.7345C60.5975 26.5101 60.6152 26.5065 60.5516 26.3075L59.6041 23.3724C59.5299 23.1408 59.4733 22.7391 59.2541 22.6414C59.0561 22.6667 58.7804 22.8295 58.6602 22.9996Z" fill="black"/>
<path fill-rule="evenodd" clip-rule="evenodd" d="M67.0625 38.2213C67.3736 39.1116 67.363 39.3142 67.5857 39.9946C67.8544 40.8125 68.6958 43.2011 68.7984 43.8923C68.862 44.323 69.265 44.826 69.113 45.2495L70.4812 44.4388C70.4812 44.1529 69.3216 40.5302 69.1342 40.0127C68.8549 39.2418 68.7206 38.471 68.4802 37.7616C68.4378 37.6314 68.4448 37.5807 68.2928 37.53C68.063 37.5698 67.2145 38.0837 67.0625 38.2213Z" fill="black"/>
<path fill-rule="evenodd" clip-rule="evenodd" d="M60.758 41.9524L60.9206 41.9777C60.9065 42.2057 60.9348 42.2202 60.6838 42.289C60.507 42.336 60.3479 42.3143 60.1641 42.2962C60.3196 42.3577 60.4398 42.1913 60.606 42.9332C60.6555 43.1503 60.6555 43.201 60.712 43.4073L61.1363 44.721C61.2176 45.0286 61.3131 45.3181 61.4191 45.5968L61.8434 46.9141C61.9141 47.1023 61.953 47.1494 61.9812 47.3556C62.0944 48.1301 62.4267 48.6368 62.4868 49.1724L63.6464 48.4776C63.7277 48.1518 63.4625 47.7139 63.3388 47.0697L61.6454 41.5471L61.4969 41.5435C61.3131 41.5652 61.2918 41.6195 61.1115 41.7172C60.9631 41.8004 60.8641 41.8149 60.758 41.9524Z" fill="black"/>
<path fill-rule="evenodd" clip-rule="evenodd" d="M70.9921 31.6999C70.9178 31.8193 71.0769 32.0871 71.1299 32.2536C71.1936 32.4707 71.2537 32.706 71.3279 32.9267C71.4092 33.1728 71.4516 33.3646 71.5082 33.6107L72.6678 37.2117C72.8304 37.6532 72.7421 37.6025 72.834 37.9138L74.2163 42.2385L74.9092 41.8296C74.8845 41.6233 74.8421 41.5835 74.782 41.4134L74.1633 39.4193C74.0996 39.0393 74.0395 38.9307 73.9264 38.6159L73.1734 36.2345C73.0814 35.9595 72.9895 35.7532 72.9011 35.4637C72.8234 35.1995 72.8057 34.8955 72.6996 34.6241L70.9921 29.1086V31.6999Z" fill="black"/>
<path fill-rule="evenodd" clip-rule="evenodd" d="M59.1008 49.4766C59.2034 49.5996 59.2034 49.5924 59.366 49.6901C59.6064 49.8276 59.9422 50.0882 60.1897 50.1172C60.3771 49.929 60.3241 49.8095 60.2463 49.6033L59.2564 46.5235C59.1645 46.0059 59.0337 45.7309 58.8852 45.2749C58.7438 44.8406 58.6306 44.4715 58.4857 44.0516L57.9059 42.1915C57.8458 41.873 57.8493 41.8187 57.7433 41.5473C57.6407 41.2758 57.3862 40.5303 57.3473 40.2335C57.2306 40.0779 56.3397 39.5821 56.1523 39.5278C56.2478 40.0309 56.4635 40.3276 56.5554 40.7836C56.7675 41.8006 57.1776 42.9225 57.4993 43.8996C57.5629 44.0987 57.6549 44.3014 57.7079 44.5004C57.7751 44.7465 57.8422 44.913 57.8811 45.1374C57.9412 45.4775 57.9801 45.5029 58.0614 45.7743L59.2564 49.4404L59.1008 49.4766Z" fill="black"/>
<path fill-rule="evenodd" clip-rule="evenodd" d="M44.0219 37.7942L44.8562 37.7978L45.8532 37.8123L46.7229 37.8195L47.8224 37.8376H48.6143H49.24H50.389H51.3754H52.4077C52.4219 38.2827 53.2173 40.6279 53.4507 41.33L55.236 47.0879C55.2395 47.077 55.2466 47.1205 55.2537 47.1205L55.137 47.1313C55.2431 47.2942 55.9537 47.6995 56.1411 47.7248C56.3532 47.7248 56.2966 47.685 56.3178 47.6778C56.2613 47.6018 56.3108 47.6886 56.2577 47.5728L55.3032 44.645C55.2395 44.3989 55.2219 44.2216 55.1441 43.99L53.6062 39.0319C53.4613 38.6012 53.3411 38.261 53.1961 37.7797C53.1466 37.7363 53.2385 37.7688 53.0936 37.7363L52.6022 37.7218C49.5618 37.7399 45.9946 37.6313 43.1133 37.7218L43.131 37.8376C43.4173 37.758 43.7178 37.7942 44.0219 37.7942Z" fill="black"/>
<path fill-rule="evenodd" clip-rule="evenodd" d="M70.9921 35.2717C71.0097 35.5395 71.1971 35.934 71.2643 36.1584C71.3279 36.361 71.3491 36.4515 71.4163 36.6469C71.4905 36.8786 71.4764 36.922 71.533 37.1717C71.5966 37.4685 71.7274 37.7942 71.8264 38.0909L72.7527 40.9319C72.841 41.2214 72.7774 41.1816 73.0072 41.8982C73.0673 42.0828 73.1133 42.2022 73.1663 42.3795C73.2618 42.6763 73.2511 42.6148 73.1981 42.7704C73.1946 42.7848 73.1628 42.8428 73.1557 42.8608L74.2163 42.2384L72.834 37.9136C72.7421 37.6024 72.8304 37.653 72.6678 37.2115L71.5082 33.6106C71.4516 33.3645 71.4092 33.1727 71.3279 32.9266C71.2537 32.7058 71.1936 32.4706 71.1299 32.2534C71.0769 32.0869 70.9178 31.8191 70.9921 31.6997V35.2717Z" fill="black"/>
<path fill-rule="evenodd" clip-rule="evenodd" d="M64.4142 35.3984L64.9693 35.0835C64.9728 35.0799 64.9834 35.0654 64.9905 35.0582C64.9304 34.7433 64.7996 34.5877 64.7359 34.262C64.4354 32.7601 63.7284 31.2908 63.3819 29.8793L63.0248 28.6127C62.8445 28.0553 62.6925 27.5957 62.5122 27.0384C62.3637 26.5824 62.0597 25.8043 61.9925 25.4062C61.9006 24.8452 61.9466 25.1311 61.7733 24.5883C61.6743 24.2915 61.6072 24.078 61.5223 23.7921L61.0168 22.2468C61.0097 22.2287 60.9779 22.1635 60.9708 22.1454L60.7162 22.0151L60.6986 22.3409C60.5218 22.2576 60.6561 22.1961 60.437 22.2323C60.4263 22.2468 60.4193 22.254 60.4157 22.2829C60.4157 22.3119 60.4016 22.3228 60.4016 22.3336C60.3981 22.3481 60.391 22.3698 60.391 22.3843C60.3698 22.6883 61.2678 25.3881 61.3208 25.5618L63.8662 33.7409C64.0607 34.3308 64.1597 34.7687 64.4142 35.3984Z" fill="black"/>
<path fill-rule="evenodd" clip-rule="evenodd" d="M60.1901 50.117C60.4022 50.4138 60.5259 50.3703 60.7982 50.2003L61.2896 49.8745C61.1764 49.4511 61.0633 49.1507 60.9396 48.7201C60.8724 48.4848 60.8158 48.3726 60.7416 48.1664C60.6532 47.9239 60.6709 47.9022 60.6179 47.5909L59.9037 45.4086C59.7588 45.025 59.6881 44.6595 59.536 44.2686C59.4512 44.0515 59.4229 43.9321 59.3557 43.6932C59.2956 43.4761 59.2886 43.3349 59.232 43.1214L58.8785 42.0284C58.7583 41.6665 58.5992 41.2902 58.532 40.9102L57.3477 40.2334C57.3865 40.5302 57.6411 41.2757 57.7436 41.5471C57.8497 41.8185 57.8461 41.8728 57.9062 42.1913L58.486 44.0515C58.631 44.4713 58.7441 44.8404 58.8855 45.2747C59.034 45.7307 59.1648 46.0058 59.2567 46.5233L60.2466 49.6031C60.3244 49.8094 60.3775 49.9288 60.1901 50.117Z" fill="black"/>
<path fill-rule="evenodd" clip-rule="evenodd" d="M68.6882 22.2867C68.8049 22.4677 69.1337 22.6016 69.314 22.7065C69.4342 22.7789 69.5085 22.826 69.6322 22.902C69.8054 23.0069 69.809 23.0323 69.9893 23.054L68.8544 19.3734C68.759 19.0803 68.7625 18.8559 68.5044 18.0995C68.2074 17.2309 67.5711 15.3309 67.3554 14.3719C67.2564 13.9304 67.0266 13.525 66.9489 13.0509C66.8569 12.9025 65.9837 12.4285 65.7539 12.3452C65.8352 12.6058 65.9059 12.765 65.9731 12.9966L67.3271 17.325C67.3978 17.5639 67.3802 17.7485 67.465 18.0018L68.6635 21.6715C68.7236 21.8597 68.7554 22.1601 68.812 22.265L68.6882 22.2867Z" fill="black"/>
<path fill-rule="evenodd" clip-rule="evenodd" d="M58.0195 10.7492C58.1928 10.8325 58.1716 10.8904 58.2281 11.0713L58.6382 12.3416C58.8291 12.9315 58.9882 13.4382 59.1721 14.0136C59.2357 14.2054 59.2322 14.285 59.2781 14.4841L60.1902 17.3105C60.2751 17.2454 60.2998 17.202 60.3953 17.1694C60.5402 17.1187 60.6428 17.1368 60.8125 17.1332L60.915 17.7086C60.9963 17.8353 61.5337 18.1176 61.6857 18.1465L61.1094 16.1669C60.9786 15.6928 60.7524 15.2368 60.6322 14.6686C60.5685 14.3683 60.5933 14.3646 60.4943 14.1185L59.2392 10.1231L59.0978 10.1086C58.8716 10.1412 58.1609 10.5465 58.0195 10.7492Z" fill="black"/>
<path fill-rule="evenodd" clip-rule="evenodd" d="M53.9699 46.4437C54.1078 46.6319 54.3306 46.7007 54.5321 46.8237C54.776 46.9721 54.9245 47.0916 55.1366 47.1314L55.2533 47.1205C55.2462 47.1205 55.2391 47.0771 55.2356 47.0879L53.4503 41.33C53.2169 40.6279 52.4215 38.2828 52.4073 37.8376H51.375L52.0503 39.962C52.3755 40.8813 52.3437 40.9898 52.5205 41.5797L53.3831 44.2542C53.6164 44.8839 53.8851 46.0818 54.0583 46.3967L53.9699 46.4437Z" fill="black"/>
<path fill-rule="evenodd" clip-rule="evenodd" d="M51.4055 44.9274C51.5539 45.1228 51.865 45.2531 52.0736 45.3725C52.3034 45.5064 52.5438 45.7127 52.7842 45.7416C52.8797 45.6874 52.8408 45.7344 52.7171 45.3978C52.4979 44.7898 52.3034 43.8272 51.9499 42.8573C51.8226 42.5098 51.7448 42.1733 51.6353 41.8331L51.0873 40.1104C50.9423 39.3359 50.6135 38.5976 50.3873 37.8376H49.2383C49.4221 38.1344 49.6873 39.2129 49.7863 39.6327L50.8009 42.803C51.0908 43.61 51.0413 43.7874 51.2004 44.2036C51.264 44.3736 51.2994 44.4641 51.356 44.6306C51.462 44.9418 51.4868 44.8803 51.4055 44.9274Z" fill="black"/>
<path fill-rule="evenodd" clip-rule="evenodd" d="M66.0696 34.4213L66.759 34.0159C66.7165 33.7735 66.6352 33.5057 66.5645 33.3139C66.4867 33.1076 66.4125 32.8687 66.3418 32.6624L65.7726 30.6828C65.6984 30.4657 65.6383 30.3318 65.5605 30.082L64.7332 27.5487C64.666 27.3135 64.6625 27.0782 64.5777 26.8285L63.9519 24.9647C63.7963 24.5087 63.6938 24.0889 63.5312 23.6619C63.4605 23.5352 62.764 23.1588 62.5625 23.0864L63.2625 25.1601C63.358 25.4171 63.3403 25.6415 63.4322 25.9165C63.7468 26.8683 64.0332 27.7586 64.3443 28.714L64.6837 29.7672C64.8499 30.5091 65.0726 31.1967 65.3165 31.9169C65.359 32.0363 65.4049 32.1521 65.4403 32.2571C65.7231 33.1184 65.8857 33.5346 66.0696 34.4213Z" fill="black"/>
<path fill-rule="evenodd" clip-rule="evenodd" d="M59.0977 10.1084L59.2391 10.1229L60.4941 14.1183C60.5931 14.3644 60.5684 14.368 60.632 14.6684C60.7522 15.2366 60.9785 15.6926 61.1093 16.1667L61.6855 18.1463C61.7916 18.3092 62.7214 18.8484 62.8946 18.8665C62.9547 18.7724 62.8275 18.4901 62.7815 18.3635C62.7002 18.1391 62.6613 18.0595 62.5906 17.7989L61.4982 14.2522C61.2613 13.5212 60.7275 12.012 60.5931 11.328C60.5613 11.1507 60.4729 10.9227 60.4022 10.7092C60.2997 10.3907 60.1583 9.80804 59.9992 9.57642C59.8118 9.59813 59.6881 9.7067 59.5148 9.81165C59.4371 9.85508 59.3522 9.89851 59.2921 9.93832L59.0977 10.1084Z" fill="black"/>
<path fill-rule="evenodd" clip-rule="evenodd" d="M67.7278 21.7256C67.8834 21.9029 68.5162 22.2576 68.6859 22.2866L68.8096 22.2648C68.7531 22.1599 68.7213 21.8595 68.6612 21.6713L67.4627 18.0016C67.3778 17.7483 67.3955 17.5637 67.3248 17.3248L65.9707 12.9965C65.9036 12.7648 65.8329 12.6056 65.7516 12.345C65.6667 12.193 64.995 11.842 64.7581 11.7551C64.7475 12.117 65.0127 12.7106 65.1187 13.0399L65.9177 15.4936C65.999 15.7071 65.992 16.069 66.2642 16.7711C66.342 16.9702 66.3915 17.1656 66.4586 17.3827L67.2612 19.8256C67.3778 20.2237 67.5475 21.2479 67.8162 21.6858L67.7278 21.7256Z" fill="black"/>
<path fill-rule="evenodd" clip-rule="evenodd" d="M50.9062 14.9507C51.083 15.1787 51.0794 15.4899 51.1607 15.812C51.3552 16.5865 52.3981 19.4347 52.4936 19.992C52.5678 20.4263 52.8365 21.208 53.0062 21.6278H52.2037H51.5426L50.7436 21.6351L50.0754 21.6532L49.2587 21.664L48.5905 21.6785L47.8057 21.6894L46.388 21.6966H45.3769L44.2279 21.7038L43.1708 21.7111C43.1744 21.1827 43.1107 19.8907 43.2274 19.46C43.0011 19.6736 43.1213 21.2225 43.1249 21.74C45.7022 21.816 48.9299 21.74 51.6309 21.74C52.4335 21.7364 53.5754 21.892 53.9855 21.3347C53.8936 21.1972 53.6496 20.1332 53.4623 19.6157L52.6244 17.0317C52.4299 16.4454 52.49 16.4816 52.3981 16.1558C52.2744 15.7324 51.9138 14.8747 51.8749 14.5019L51.6946 14.4802C51.486 14.5128 51.037 14.7697 50.9062 14.9507Z" fill="black"/>
<path fill-rule="evenodd" clip-rule="evenodd" d="M58.1192 48.8974C58.2501 49.0711 58.9147 49.4511 59.0985 49.4764L59.2541 49.4402L58.0591 45.7741C57.9778 45.5027 57.9389 45.4774 57.8788 45.1372C57.84 44.9128 57.7728 44.7463 57.7056 44.5002C57.6526 44.3012 57.5607 44.0985 57.497 43.8995C57.1753 42.9223 56.7652 41.8004 56.5531 40.7835C56.4612 40.3275 56.2455 40.0307 56.1501 39.5276C56.0546 39.3937 55.3793 39.021 55.1602 38.9377C55.291 39.9438 56.3586 42.5315 56.5708 43.6642L57.1541 45.5244C57.1965 45.6583 57.2142 45.68 57.2602 45.8212C57.3415 46.0492 57.398 46.2374 57.4617 46.4328C57.5288 46.6427 57.5748 46.8381 57.6561 47.0516C57.9248 47.7827 57.8612 47.9456 58.0026 48.3292C58.0733 48.5174 58.1228 48.7092 58.2076 48.8576L58.1192 48.8974Z" fill="black"/>
<path fill-rule="evenodd" clip-rule="evenodd" d="M58.0742 23.3433C58.2298 23.4338 58.2121 23.5098 58.2757 23.6763L59.3045 27.0565C59.3434 27.1831 59.3823 27.2881 59.4353 27.4473L61.8252 34.9677C61.9278 35.2826 61.9454 35.5866 62.0374 35.8616C62.0904 36.0208 62.2495 36.4949 62.3379 36.6433L62.8222 36.3393C62.7621 36.0389 62.6596 35.7494 62.5783 35.4961C62.4828 35.2029 62.405 34.9641 62.306 34.6637C62.0055 33.7336 62.1116 33.9652 61.9454 33.3427C61.7298 32.5429 61.0192 30.6248 60.7257 29.6332L60.2449 27.9142C60.0505 27.3713 59.8985 26.8067 59.6899 26.2639C59.4742 25.6957 59.3646 25.1709 59.1914 24.5593L58.6611 22.9995C58.4596 23.0248 58.198 23.1732 58.0742 23.3433Z" fill="black"/>
<path fill-rule="evenodd" clip-rule="evenodd" d="M52.7837 45.7416C52.911 45.919 53.7559 46.4148 53.968 46.4437L54.0564 46.3967C53.8832 46.0818 53.6145 44.8839 53.3812 44.2542L52.5185 41.5797C52.3418 40.9898 52.3736 40.8813 52.0483 39.962L51.3731 37.8376H50.3867C50.613 38.5976 50.9418 39.3359 51.0867 40.1104L51.6347 41.8331C51.7443 42.1733 51.8221 42.5098 51.9493 42.8573C52.3029 43.8272 52.4973 44.7898 52.7165 45.3978C52.8403 45.7344 52.8791 45.6874 52.7837 45.7416Z" fill="black"/>
<path fill-rule="evenodd" clip-rule="evenodd" d="M60.6836 9.60188L61.8573 13.1956C61.9316 13.467 61.9457 13.5647 62.0129 13.8543L62.9816 16.8255C63.222 17.4516 63.5119 18.8232 63.7028 19.2322L63.5826 19.272C63.7028 19.424 63.9114 19.5217 64.1094 19.6375C64.3109 19.7533 64.4594 19.8872 64.6715 19.9125C64.7846 19.7461 64.6149 19.4891 64.5619 19.3444L63.2008 14.9689C63.077 14.5129 62.9073 14.1329 62.8013 13.7421C62.6351 13.1341 62.0942 11.6865 62.0058 11.2305C61.8785 10.5645 61.7725 10.4705 61.6169 9.90588C61.5321 9.78283 61.4119 9.74302 61.2669 9.65978C61.0654 9.54036 61.0407 9.48245 60.8462 9.46436C60.7013 9.62721 60.8639 9.52588 60.6836 9.60188Z" fill="black"/>
<path fill-rule="evenodd" clip-rule="evenodd" d="M65.4958 34.7579L66.0721 34.4213C65.8882 33.5346 65.7256 33.1184 65.4428 32.2571C65.4074 32.1522 65.3615 32.0363 65.319 31.9169C65.0751 31.1967 64.8524 30.5091 64.6862 29.7672L64.3468 28.7141C64.0357 27.7586 63.7493 26.8683 63.4347 25.9165C63.3428 25.6415 63.3604 25.4171 63.265 25.1602L62.565 23.0864L61.7695 22.616C61.8685 22.9779 61.9251 23.0683 61.9887 23.4375C62.0418 23.7306 62.1443 23.9116 62.2256 24.1866C62.5862 25.399 63.0918 26.767 63.3958 27.9468L64.5907 31.6817C64.6332 31.8192 64.6685 31.8988 64.7003 32.0327L65.0291 33.2125C65.1529 33.5853 65.4817 34.4503 65.4958 34.7579Z" fill="black"/>
<path fill-rule="evenodd" clip-rule="evenodd" d="M65.359 20.318C65.4827 20.4881 66.1333 20.8717 66.3383 20.897L66.4974 20.8862C66.4514 20.7993 66.4974 20.8934 66.4373 20.7559L65.9211 19.0079C65.4721 17.658 64.9206 15.9751 64.5636 14.6288L63.305 10.8976C63.2201 10.7492 62.612 10.4308 62.4141 10.3765C62.5378 10.8904 62.6969 11.1763 62.8277 11.6287C62.8949 11.8711 62.9338 12.0159 63.0115 12.2548L64.3656 16.5831C64.5777 17.2418 65.2636 19.681 65.4792 20.166C65.5252 20.2673 65.4934 20.2094 65.5393 20.2746C65.4439 20.3108 65.6631 20.3397 65.359 20.318Z" fill="black"/>
<path fill-rule="evenodd" clip-rule="evenodd" d="M61.4961 41.5435L61.6446 41.5471L63.338 47.0698C63.4618 47.714 63.7269 48.1519 63.6456 48.4776C63.886 48.3907 64.5825 48.036 64.6708 47.8768C64.6532 47.6199 64.5259 47.2362 64.441 46.9901L63.0623 42.6256C62.9845 42.3867 62.6309 41.1562 62.4931 40.95C62.334 40.9644 61.634 41.3589 61.4961 41.5435Z" fill="black"/>
<path fill-rule="evenodd" clip-rule="evenodd" d="M56.2383 11.7951L56.415 11.8313C56.6166 12.2656 56.5529 12.4538 56.6378 12.7071L58.5257 18.6749C58.7166 18.5917 58.8368 18.5048 59.0135 18.3999C59.0984 18.3492 59.1656 18.3166 59.2363 18.2732C59.413 18.1646 59.3529 18.2298 59.3741 18.1502C59.3777 17.9439 59.3176 17.8679 59.2681 17.6905C59.2221 17.5241 59.2327 17.3902 59.1832 17.1911L58.0448 13.7494C57.9954 13.5576 57.9565 13.4454 57.914 13.3043C57.861 13.1269 57.8716 13.0111 57.8186 12.8193L57.6701 12.385C57.6312 12.2547 57.5888 12.1172 57.5322 11.9471C57.4615 11.73 57.3661 11.3319 57.2211 11.2161C57.0231 11.2414 56.8782 11.3644 56.6943 11.473C56.613 11.5201 56.5211 11.5671 56.4398 11.6214C56.2878 11.7191 56.3514 11.6504 56.2383 11.7951Z" fill="black"/>
<path fill-rule="evenodd" clip-rule="evenodd" d="M64.9884 35.0583L65.494 34.7579C65.4799 34.4503 65.1511 33.5853 65.0273 33.2126L64.6985 32.0327C64.6667 31.8988 64.6314 31.8192 64.589 31.6817L63.394 27.9468C63.09 26.767 62.5844 25.399 62.2238 24.1867C62.1425 23.9116 62.04 23.7307 61.9869 23.4375C61.9233 23.0684 61.8667 22.9779 61.7677 22.616L60.9688 22.1455C60.9758 22.1636 61.0076 22.2287 61.0147 22.2468L61.5203 23.7922C61.6051 24.0781 61.6723 24.2916 61.7713 24.5884C61.9445 25.1312 61.8985 24.8453 61.9905 25.4063C62.0576 25.8044 62.3617 26.5825 62.5102 27.0385C62.6905 27.5958 62.8425 28.0554 63.0228 28.6127L63.3799 29.8794C63.7263 31.2908 64.4334 32.7602 64.7339 34.2621C64.7975 34.5878 64.9283 34.7434 64.9884 35.0583Z" fill="black"/>
<path fill-rule="evenodd" clip-rule="evenodd" d="M54.0273 25.7357C54.1935 25.9021 54.5576 27.2014 54.6566 27.509C54.8475 28.0917 55.1233 28.7901 55.2258 29.3764C55.3036 29.8107 55.4945 30.1943 55.6253 30.5997L56.5869 33.6976C56.6329 33.9762 56.6895 34.0848 56.7637 34.3345L57.1561 35.565L56.9829 35.5976C57.0996 35.7496 57.0536 35.6917 57.2233 35.7894C57.3082 35.84 57.34 35.8509 57.439 35.9124C57.5945 36.0065 57.7041 36.1115 57.8844 36.1296L58.0046 36.0861L57.6228 34.7326C57.4566 34.3019 57.3576 33.8532 57.1986 33.4189C56.8521 32.4635 56.6612 31.6854 56.3925 30.748C55.9541 29.228 55.5652 28.4029 55.1622 26.7598C55.0667 26.369 54.7698 25.837 54.7592 25.4208L54.6107 25.3918C54.4445 25.4136 54.4728 25.4099 54.2925 25.5185C54.1369 25.609 54.1299 25.5981 54.0273 25.7357Z" fill="black"/>
<path fill-rule="evenodd" clip-rule="evenodd" d="M68.293 37.5301C68.445 37.5808 68.4379 37.6315 68.4803 37.7617C68.7207 38.4711 68.8551 39.2419 69.1344 40.0128C69.3218 40.5303 70.4814 44.153 70.4814 44.4389L71.2945 43.9865C71.3051 43.9793 71.3404 43.9648 71.344 43.9431C71.3475 43.9286 71.3581 43.9286 71.3652 43.9214C71.3016 43.5993 71.2202 43.3387 71.1071 43.0166L70.1278 39.9947C70.0394 39.4555 69.6399 38.3299 69.4561 37.769C69.2581 37.1646 69.343 37.1429 69.1096 37.0452C68.9293 37.0633 68.399 37.36 68.293 37.5301Z" fill="black"/>
<path fill-rule="evenodd" clip-rule="evenodd" d="M57.2227 11.2159C57.3676 11.3317 57.4631 11.7298 57.5338 11.9469C57.5903 12.117 57.6328 12.2545 57.6716 12.3848L57.8201 12.8191C57.8732 13.0109 57.8626 13.1267 57.9156 13.3041C57.958 13.4452 57.9969 13.5574 58.0464 13.7492L59.1848 17.1909C59.2343 17.39 59.2237 17.5239 59.2696 17.6904C59.3191 17.8677 59.3792 17.9437 59.3757 18.15C59.5913 18.074 60.0156 17.8496 60.1181 17.7193C60.1499 17.4877 60.111 17.513 60.1888 17.3104L59.2767 14.4839C59.2307 14.2848 59.2343 14.2052 59.1706 14.0134C58.9868 13.438 58.8277 12.9313 58.6368 12.3414L58.2267 11.0711C58.1701 10.8902 58.1913 10.8323 58.0181 10.749C57.8025 10.7816 57.3605 11.0349 57.2227 11.2159Z" fill="black"/>
<path fill-rule="evenodd" clip-rule="evenodd" d="M64.6717 19.9124C64.7813 20.0608 64.8414 20.068 65.0111 20.173C65.1738 20.2707 65.1738 20.296 65.3576 20.3178C65.6616 20.3395 65.4424 20.3105 65.5379 20.2743C65.4919 20.2092 65.5238 20.2671 65.4778 20.1658C65.2621 19.6808 64.5763 17.2416 64.3642 16.5829L63.0101 12.2545C62.9323 12.0157 62.8935 11.8709 62.8263 11.6284C62.6955 11.176 62.5364 10.8901 62.4126 10.3762C62.296 10.2134 61.8435 9.97452 61.6172 9.90576C61.7727 10.4703 61.8788 10.5644 62.0061 11.2303C62.0945 11.6863 62.6354 13.134 62.8015 13.742C62.9076 14.1328 63.0773 14.5128 63.201 14.9688L64.5621 19.3442C64.6152 19.489 64.7849 19.746 64.6717 19.9124Z" fill="black"/>
<path fill-rule="evenodd" clip-rule="evenodd" d="M52.3867 14.075C52.6731 14.1401 52.5847 14.2089 52.7473 14.759C52.8428 15.0702 52.9524 15.3308 53.0478 15.6203L54.1296 19.1778C54.2322 19.4963 54.6706 20.6834 54.6493 20.9439C54.8862 20.8643 55.3423 20.6327 55.4695 20.459L53.8574 15.2548C53.716 14.6142 53.3802 13.6805 53.3837 13.4417C53.115 13.5792 52.5423 13.8651 52.3867 14.075Z" fill="black"/>
<path fill-rule="evenodd" clip-rule="evenodd" d="M65.4492 39.1985C65.7179 39.3071 65.6012 39.3614 65.8063 39.9441C66.029 40.5665 65.9406 40.1685 66.0573 40.8561L66.8881 43.4437C67.1108 44.1928 67.2629 44.3991 67.4219 45.2279C67.482 45.521 67.6942 45.8323 67.6341 46.1254L68.4755 45.6296C68.4543 45.2822 68.327 45.0361 68.2421 44.7285C68.1149 44.2399 67.4785 42.4955 67.4149 42.1336C67.3124 41.5907 66.7962 40.1504 66.6124 39.517C66.524 39.213 66.4462 38.8294 66.2517 38.7317C66.0891 38.7425 65.6684 39.0067 65.5199 39.1298L65.4492 39.1985Z" fill="black"/>
<path fill-rule="evenodd" clip-rule="evenodd" d="M53.9115 33.7952V29.6225V27.0095C53.8655 27.3135 55.0782 30.52 55.1913 31.0954C55.3433 31.8771 56.0539 33.987 56.3368 34.7651L56.4004 35.2573C56.411 35.2682 56.4287 35.2826 56.4358 35.2899L56.6797 35.4745C56.8317 35.5685 56.8246 35.5794 56.9837 35.5975L57.157 35.5649L56.7645 34.3345C56.6903 34.0847 56.6337 33.9762 56.5878 33.6975L55.6262 30.5996C55.4953 30.1943 55.3044 29.8106 55.2267 29.3764C55.1241 28.7901 54.8484 28.0916 54.6575 27.5089C54.5585 27.2013 54.1943 25.9021 54.0282 25.7356L53.8125 25.8044V32.8832C53.8125 33.3935 53.7277 33.6396 53.9115 33.7952Z" fill="black"/>
<path fill-rule="evenodd" clip-rule="evenodd" d="M59.9961 9.57657C60.1552 9.80819 60.2966 10.3909 60.3991 10.7093C60.4698 10.9229 60.5582 11.1509 60.59 11.3282C60.7244 12.0122 61.2582 13.5213 61.4951 14.2524L62.5875 17.799C62.6582 18.0596 62.6971 18.1392 62.7784 18.3636C62.8244 18.4903 62.9516 18.7726 62.8915 18.8667L63.5809 19.272L63.7011 19.2322C63.5102 18.8232 63.2203 17.4516 62.9799 16.8255L62.0112 13.8543C61.9441 13.5648 61.9299 13.467 61.8557 13.1956L60.682 9.6019H60.3426C60.2011 9.44628 60.339 9.50781 60.187 9.468C60.0244 9.47885 60.0986 9.42457 59.9961 9.57657Z" fill="black"/>
<path fill-rule="evenodd" clip-rule="evenodd" d="M48.2605 43.0708C48.3136 43.136 48.2817 43.1034 48.356 43.1685C48.4514 43.2482 49.4484 43.8598 49.6323 43.8851C49.7525 43.82 49.6853 43.8815 49.6853 43.7946L49.254 42.4628C49.0843 41.9381 48.9358 41.4821 48.7555 40.932L48.5222 40.1828C48.455 39.9946 48.4338 39.9765 48.3984 39.7702C48.3666 39.5821 48.3595 39.5314 48.303 39.3577L47.8222 37.8377L46.7227 37.8196L48.3701 43.0274L48.2605 43.0708Z" fill="black"/>
<path fill-rule="evenodd" clip-rule="evenodd" d="M66.759 34.016L67.1196 33.7988V33.1402L66.4338 30.947C66.3666 30.7407 66.303 30.6032 66.2464 30.4367L65.7479 28.6742C65.5004 27.8998 65.2742 27.2122 65.0232 26.4413C64.8959 26.0504 64.7651 25.7537 64.7015 25.3085C64.6555 25.0082 64.408 24.4942 64.3267 24.1323L63.5312 23.6619C63.6939 24.0889 63.7964 24.5087 63.952 24.9647L64.5777 26.8285C64.6626 27.0782 64.6661 27.3135 64.7333 27.5487L65.5605 30.0821C65.6383 30.3318 65.6984 30.4657 65.7727 30.6828L66.3419 32.6624C66.4126 32.8687 66.4868 33.1076 66.5646 33.3139C66.6353 33.5057 66.7166 33.7735 66.759 34.016Z" fill="black"/>
<path fill-rule="evenodd" clip-rule="evenodd" d="M66.25 38.7315C66.4444 38.8292 66.5222 39.2128 66.6106 39.5168C66.7944 40.1501 67.3106 41.5905 67.4131 42.1334C67.4768 42.4953 68.1131 44.2397 68.2404 44.7282C68.3253 45.0359 68.4525 45.282 68.4737 45.6294L69.1101 45.2494C69.2621 44.826 68.8591 44.3229 68.7955 43.8922C68.6929 43.201 67.8515 40.8124 67.5828 39.9945C67.3601 39.3141 67.3707 39.1115 67.0596 38.2212C66.8934 38.2863 66.7662 38.3732 66.6354 38.4492L66.25 38.7315Z" fill="black"/>
<path fill-rule="evenodd" clip-rule="evenodd" d="M51.6953 14.4803L51.8756 14.502C51.9145 14.8748 52.2751 15.7325 52.3988 16.1559C52.4908 16.4816 52.4307 16.4454 52.6251 17.0317L53.463 19.6157C53.6504 20.1332 53.8943 21.1972 53.9862 21.3348C54.1418 21.2841 54.5908 21.0778 54.6473 20.9439C54.6685 20.6833 54.2302 19.4963 54.1276 19.1778L53.0458 15.6203C52.9504 15.3308 52.8408 15.0702 52.7453 14.759C52.5827 14.2089 52.6711 14.1401 52.3847 14.075C52.1726 14.1003 51.8297 14.2993 51.6953 14.4803Z" fill="black"/>
<path fill-rule="evenodd" clip-rule="evenodd" d="M36.3814 23.4845H36.9224H37.5976H38.0784H38.6335L39.3688 23.4881H39.8284L40.3835 23.4917H40.8713H41.6597L42.441 23.4953H42.8724L43.6325 23.5026L44.4951 23.5062L45.3966 23.5134L45.9799 23.517L46.4784 23.5207L47.4683 23.5388L48.4229 23.5496H49.0592H49.7946H50.6183V26.6041C51.0107 26.6077 51.9158 26.7235 52.089 26.4087L52.1067 23.6727C51.8663 23.2999 50.7774 23.4555 50.2648 23.4555C48.0976 23.4555 36.2153 23.347 35.9961 23.517L36.3814 23.4845Z" fill="black"/>
<path fill-rule="evenodd" clip-rule="evenodd" d="M64.2734 39.9005C64.5704 40.1755 64.7154 41.2576 64.8356 41.5797L66.2002 45.9551C66.2851 46.2627 66.4618 46.5559 66.3805 46.8671C66.5962 46.7875 67.031 46.5667 67.1406 46.4111C67.1406 46.089 66.179 43.4725 66.0659 42.9441L65.8184 42.0321C65.6734 41.5869 65.0689 39.6363 64.9593 39.4951C64.7719 39.5205 64.7578 39.5603 64.581 39.6688C64.5527 39.6833 64.4184 39.7629 64.4007 39.7774C64.2416 39.8968 64.3441 39.81 64.2734 39.9005Z" fill="black"/>
<path fill-rule="evenodd" clip-rule="evenodd" d="M69.1094 37.0452C69.3427 37.1429 69.2579 37.1646 69.4558 37.769C69.6397 38.3299 70.0392 39.4555 70.1276 39.9947L71.1068 43.0166C71.22 43.3387 71.3013 43.5993 71.3649 43.9214L72.0791 43.516C71.9624 43.2663 71.8705 42.9117 71.7786 42.6294L71.0114 40.0924C70.9089 39.7739 70.8276 39.5387 70.725 39.2202C70.5235 38.576 70.0851 37.2478 69.9649 36.6616L69.7952 36.6362C69.6467 36.6579 69.5584 36.7231 69.417 36.8063C69.4028 36.8172 69.2402 36.9149 69.2366 36.9185C69.1129 37.0126 69.1872 36.9402 69.1094 37.0452Z" fill="black"/>
<path fill-rule="evenodd" clip-rule="evenodd" d="M53.7812 13.2462C54.004 13.3511 54.0535 13.7347 54.1348 13.9844C54.3858 14.7625 55.1035 16.8399 55.2237 17.4732C55.2767 17.7555 55.4004 18.0776 55.4994 18.3599L56.0439 20.1187L56.6414 19.7677C56.6979 19.5505 56.553 19.0222 56.4823 18.8086L55.3792 15.3922C55.1565 14.8313 55.2555 14.9362 55.153 14.5164C55.0504 14.1002 54.6757 13.2606 54.6368 12.8444L54.4706 12.8408C54.308 12.8553 54.011 13.0399 53.8802 13.1484L53.8131 13.2136C53.806 13.2027 53.7919 13.2353 53.7812 13.2462Z" fill="black"/>
<path fill-rule="evenodd" clip-rule="evenodd" d="M67.1211 33.1401C67.1211 32.5828 67.213 30.9977 67.0751 30.5923L66.0993 27.6247C66.0428 27.4329 66.0463 27.2918 65.9968 27.0891C65.8483 26.4992 65.3604 25.2723 65.2049 24.6535C65.0988 24.5051 64.5509 24.2156 64.3281 24.1323C64.4094 24.4942 64.6569 25.0081 64.7029 25.3085C64.7665 25.7537 64.8973 26.0504 65.0246 26.4413C65.2756 27.2121 65.5019 27.8998 65.7493 28.6742L66.2478 30.4367C66.3044 30.6032 66.368 30.7407 66.4352 30.947L67.1211 33.1401Z" fill="black"/>
<path fill-rule="evenodd" clip-rule="evenodd" d="M70.8632 35.9738C70.7042 36.0353 70.492 36.1367 70.3789 36.2959C70.538 36.3611 70.5203 36.419 70.5734 36.5818C70.6264 36.7519 70.6723 36.8894 70.7077 37.0306C70.8915 37.7146 71.436 39.0717 71.5244 39.6942L71.8107 40.5664C71.938 40.9971 72.6239 42.9188 72.5885 43.1974L73.1577 42.8609C73.1648 42.8428 73.1966 42.7849 73.2001 42.7704C73.2531 42.6148 73.2638 42.6763 73.1683 42.3795C73.1153 42.2022 73.0693 42.0828 73.0092 41.8982C72.7794 41.1816 72.843 41.2214 72.7547 40.9319L71.8284 38.091C71.7294 37.7942 71.5986 37.4685 71.535 37.1717C71.4784 36.922 71.4925 36.8786 71.4183 36.647C71.3511 36.4515 71.3299 36.3611 71.2663 36.1584C71.1991 35.934 71.0117 35.5395 70.9941 35.2717C70.9941 35.3658 71.0082 35.6119 71.0011 35.6879C70.987 35.8001 71.0011 35.7494 70.9622 35.8472C70.8951 36.01 71.0294 35.9014 70.8632 35.9738Z" fill="black"/>
<path fill-rule="evenodd" clip-rule="evenodd" d="M67.1193 33.1402V33.7989C67.2925 33.6397 67.2112 33.3646 67.2112 32.8833V25.8261C66.9779 25.6271 65.4541 24.7296 65.2031 24.6536C65.3587 25.2724 65.8466 26.4993 65.995 27.0892C66.0445 27.2919 66.041 27.433 66.0976 27.6248L67.0733 30.5924C67.2112 30.9978 67.1193 32.5829 67.1193 33.1402Z" fill="black"/>
<path fill-rule="evenodd" clip-rule="evenodd" d="M45.2969 18.2623C45.456 18.4469 45.7388 19.6484 45.8307 19.985C45.905 20.2528 46.011 20.5785 46.1135 20.8608C46.2055 21.1105 46.2832 21.4507 46.3893 21.6968L47.807 21.6896C47.7787 21.3421 47.1671 19.7715 47.0716 19.2901C46.955 18.6894 46.8418 18.4795 46.6757 17.9511C46.6226 17.7882 46.6226 17.6579 46.4706 17.5747C46.2514 17.6037 46.1312 17.7231 45.8661 17.8787L45.4312 18.132C45.4206 18.1429 45.4065 18.1538 45.3959 18.161L45.2969 18.2623Z" fill="black"/>
<path fill-rule="evenodd" clip-rule="evenodd" d="M62.4922 40.95C62.6301 41.1563 62.9836 42.3867 63.0614 42.6256L64.4402 46.9902C64.525 47.2363 64.6523 47.6199 64.67 47.8768L65.3558 47.4896C65.324 47.1747 65.1932 46.9214 65.0801 46.5703C64.7902 45.6801 64.6346 44.949 64.3094 44.0334C64.0866 43.4073 63.3301 41.0404 63.2947 40.6025L63.0791 40.6062C62.9058 40.6279 62.7962 40.6966 62.6301 40.8233L62.4922 40.95Z" fill="black"/>
<path fill-rule="evenodd" clip-rule="evenodd" d="M55.5547 12.2003L55.735 12.2364C55.7597 12.5224 55.9118 12.7721 55.9966 13.0761C56.085 13.4018 56.1486 13.6262 56.2547 13.9193L57.3082 17.3321C57.4072 17.6397 57.4779 17.8568 57.5804 18.1608C57.6724 18.4503 57.835 18.7869 57.8173 19.0801L58.5279 18.6747L56.64 12.7069C56.5552 12.4536 56.6188 12.2654 56.4173 11.8311L56.2405 11.7949C56.0602 11.8166 56.039 11.8564 55.8658 11.9614C55.8446 11.9759 55.6855 12.0736 55.6855 12.0736C55.537 12.1858 55.6289 12.1062 55.5547 12.2003Z" fill="black"/>
<path fill-rule="evenodd" clip-rule="evenodd" d="M40.2947 28.3811L41.122 28.4173L41.6841 28.4499V31.3669H41.122H40.2947H39.6972L38.9053 31.385L37.9084 31.4103H37.4099L36.4164 31.4248L35.5644 31.4284L34.9316 31.432H34.3907L33.5139 31.4392L32.6089 31.4429H31.9972H31.3043L30.3427 31.4465H29.519L28.6528 31.4501C28.3169 31.4501 28.119 31.4827 27.8008 31.3922C27.9775 31.584 29.2962 31.4827 29.6533 31.4827L35.4584 31.4791C38.0038 31.4754 40.6624 31.3958 43.1902 31.4754L43.1725 31.4465L43.1548 28.4499C42.9993 28.4318 42.8508 28.4246 42.6917 28.4137L42.2427 28.345C42.2321 28.3232 42.2073 28.3305 42.1897 28.3232H39.8245C39.8846 28.3558 39.8316 28.3413 39.9659 28.3703C40.072 28.392 39.9553 28.3739 40.0685 28.3848C40.1427 28.392 40.2205 28.3848 40.2947 28.3811Z" fill="black"/>
<path fill-rule="evenodd" clip-rule="evenodd" d="M53.9114 29.6225C53.8973 29.8505 54.5549 31.707 54.668 32.0436C54.82 32.4924 55.1453 33.4768 55.223 33.9255L55.421 34.5408C55.4246 34.548 55.4352 34.5661 55.4422 34.5806L55.322 34.6131C55.3326 34.624 55.3468 34.6421 55.3539 34.6493C55.3609 34.6566 55.3786 34.6747 55.3857 34.6819C55.3963 34.6891 55.4104 34.7036 55.421 34.7145L56.4003 35.2573L56.3367 34.7651C56.0539 33.987 55.3432 31.8771 55.1912 31.0954C55.0781 30.52 53.8655 27.3135 53.9114 27.0095V29.6225Z" fill="black"/>
<path fill-rule="evenodd" clip-rule="evenodd" d="M50.1367 15.4033C50.3135 15.4938 50.2781 15.4938 50.3488 15.7109L50.7307 16.8944C51.0135 17.6905 51.1832 18.5627 51.4413 19.3155C51.5473 19.6195 51.6145 19.7679 51.7029 20.0972L52.2049 21.6281H53.0074C52.8377 21.2083 52.569 20.4265 52.4948 19.9923C52.3993 19.4349 51.3564 16.5867 51.162 15.8123C51.0807 15.4902 51.0842 15.1789 50.9074 14.9509C50.7271 14.9726 50.6458 15.0486 50.4832 15.1427L50.1367 15.4033Z" fill="black"/>
<path fill-rule="evenodd" clip-rule="evenodd" d="M62.9123 63.5002C62.6719 63.6667 62.6471 63.6233 62.3396 63.6161C61.781 63.6052 58.8431 63.5835 58.7512 63.6414C58.7229 64.0033 59.2108 64.5715 59.4052 64.7524C59.7411 65.0601 60.2148 65.2374 60.7981 65.2446C62.0002 65.2663 62.7709 64.6149 62.9123 63.5002Z" fill="black"/>
<path fill-rule="evenodd" clip-rule="evenodd" d="M49.6304 43.8851C49.7011 43.9756 49.6057 43.8887 49.7612 44.0117C49.9274 44.1384 50.4259 44.4424 50.6132 44.4605C50.7193 44.3592 50.6486 44.3302 50.592 44.1927L49.7895 41.6738C49.7718 41.6123 49.7047 41.3083 49.6728 41.2142C49.4996 40.6714 49.2946 40.0815 49.1319 39.5531C48.9905 39.0898 48.6476 38.1851 48.6122 37.8376H47.8203L48.3011 39.3576C48.3577 39.5314 48.3648 39.582 48.3966 39.7702C48.4319 39.9765 48.4531 39.9946 48.5203 40.1828L48.7536 40.9319C48.9339 41.482 49.0824 41.938 49.2521 42.4628L49.6834 43.7946C49.6834 43.8815 49.7506 43.8199 49.6304 43.8851Z" fill="black"/>
<path fill-rule="evenodd" clip-rule="evenodd" d="M49.0547 28.3665H49.7017L50.5572 28.428V31.3667H49.7017L49.0547 31.3884L48.3759 31.4101L47.63 31.421L47.0396 31.4246L46.1628 31.4355L45.6325 31.4391L44.9572 31.4427H44.3279L43.787 31.4463H43.1719L43.1896 31.4753C44.6567 31.5115 46.1734 31.4753 47.6441 31.4753C48.284 31.4753 51.6956 31.5838 51.936 31.3703L51.9431 28.4389C51.6709 28.2109 48.9769 28.3158 48.3865 28.3231L48.3795 28.3484L49.0547 28.3665Z" fill="black"/>
<path fill-rule="evenodd" clip-rule="evenodd" d="M53.3828 13.4418C53.3793 13.6806 53.7152 14.6143 53.8566 15.2549L55.4687 20.4591C55.6525 20.4048 55.6313 20.4084 55.8046 20.2999L56.045 20.1189L55.5005 18.3601C55.4015 18.0778 55.2778 17.7557 55.2248 17.4734C55.1046 16.8401 54.3869 14.7627 54.1359 13.9846C54.0546 13.7349 54.0051 13.3513 53.7823 13.2463C53.6126 13.2644 53.5172 13.3585 53.3828 13.4418Z" fill="black"/>
<path fill-rule="evenodd" clip-rule="evenodd" d="M69.793 36.6361L69.9627 36.6614C70.0829 37.2477 70.5213 38.5759 70.7228 39.2201C70.8253 39.5386 70.9066 39.7738 71.0091 40.0923L71.7763 42.6292C71.8682 42.9115 71.9601 43.2662 72.0768 43.5159L72.5859 43.1974C72.6213 42.9188 71.9354 40.997 71.8081 40.5664L71.5218 39.6942C71.4334 39.0717 70.8889 37.7146 70.7051 37.0306C70.6697 36.8894 70.6238 36.7519 70.5707 36.5818C70.5177 36.4189 70.5354 36.361 70.3763 36.2959C70.2031 36.314 70.2455 36.3104 70.0617 36.4226C69.8884 36.5275 69.9026 36.4913 69.793 36.6361Z" fill="black"/>
<path fill-rule="evenodd" clip-rule="evenodd" d="M48.9414 16.1054C49.1677 16.2357 49.0722 16.2248 49.2207 16.7025C49.2808 16.9052 49.3727 17.1477 49.454 17.3938L49.8677 18.8378C49.9985 19.3661 50.1752 19.7172 50.3202 20.2419C50.4263 20.6256 50.7338 21.3277 50.7444 21.6353L51.5434 21.628C51.5151 21.3856 51.4126 21.1648 51.3348 20.9513C51.2359 20.6871 51.1899 20.4953 51.1298 20.1768L50.2 17.2743C50.0444 16.7858 49.8111 16.1597 49.7793 15.7073L49.5283 15.7616C49.3692 15.7833 49.3727 15.7905 49.2172 15.8882L48.9768 16.0728C48.9697 16.0619 48.952 16.0945 48.9414 16.1054Z" fill="black"/>
<path fill-rule="evenodd" clip-rule="evenodd" d="M63.082 40.6063L63.2977 40.6027C63.333 41.0406 64.0896 43.4075 64.3123 44.0336C64.6376 44.9492 64.7931 45.6802 65.083 46.5705C65.1962 46.9216 65.327 47.1749 65.3588 47.4898L65.8679 47.1677C65.9421 46.7877 65.5391 45.9227 65.3871 45.3871C65.2209 44.7972 65.0265 44.2507 64.8356 43.6789C64.7366 43.3821 64.7154 43.0637 64.5987 42.7524L64.026 41.0117C63.8492 40.4688 63.8952 40.3421 63.6866 40.248C63.5416 40.2625 63.4957 40.3023 63.3507 40.3892C63.1881 40.4833 63.1881 40.4616 63.082 40.6063Z" fill="black"/>
<path fill-rule="evenodd" clip-rule="evenodd" d="M55.0547 12.4972L55.2173 12.5298C55.2173 13.0002 56.0198 15.2513 56.2496 15.9606L56.635 17.3214C56.7799 17.8462 57.2714 19.0839 57.236 19.4168L57.8158 19.0802C57.8335 18.7871 57.6708 18.4505 57.5789 18.161C57.4764 17.857 57.4057 17.6399 57.3067 17.3322L56.2532 13.9195C56.1471 13.6263 56.0835 13.402 55.9951 13.0762C55.9102 12.7722 55.7582 12.5225 55.7335 12.2366L55.5532 12.2004C55.3693 12.2222 55.1643 12.3488 55.0547 12.4972Z" fill="black"/>
<path fill-rule="evenodd" clip-rule="evenodd" d="M54.4727 12.8409L54.6388 12.8445C54.6777 13.2607 55.0525 14.1003 55.155 14.5165C55.2575 14.9363 55.1585 14.8314 55.3812 15.3923L56.4843 18.8087C56.555 19.0222 56.6999 19.5506 56.6434 19.7677C56.8519 19.699 57.1348 19.5361 57.2373 19.4167C57.2727 19.0837 56.7812 17.846 56.6363 17.3213L56.2509 15.9605C56.0211 15.2512 55.2186 13.0001 55.2186 12.5296L55.056 12.4971C54.8934 12.5115 54.7307 12.6129 54.5681 12.7468L54.4727 12.8409Z" fill="black"/>
<path fill-rule="evenodd" clip-rule="evenodd" d="M64.957 39.4952C65.0666 39.6364 65.6712 41.5871 65.8161 42.0322L66.0636 42.9442C66.1767 43.4726 67.1383 46.0892 67.1383 46.4112C67.3045 46.3642 67.5626 46.2339 67.6333 46.1253C67.6934 45.8322 67.4813 45.521 67.4212 45.2278C67.2621 44.3991 67.1101 44.1928 66.8873 43.4436L66.0565 40.856C65.9399 40.1684 66.0282 40.5665 65.8055 39.944C65.6005 39.3613 65.7171 39.3071 65.4484 39.1985C65.2717 39.2202 65.0596 39.3577 64.957 39.4952Z" fill="black"/>
<path fill-rule="evenodd" clip-rule="evenodd" d="M50.6143 44.4605C50.738 44.627 51.1941 44.902 51.4062 44.9274C51.4875 44.8803 51.4628 44.9418 51.3567 44.6306C51.3001 44.4641 51.2648 44.3736 51.2012 44.2036C51.0421 43.7874 51.0916 43.61 50.8017 42.803L49.787 39.6327C49.688 39.2129 49.4229 38.1344 49.239 37.8376H48.6133C48.6486 38.1851 48.9916 39.0898 49.133 39.5531C49.2956 40.0815 49.5007 40.6714 49.6739 41.2142C49.7057 41.3083 49.7729 41.6123 49.7906 41.6738L50.5931 44.1927C50.6496 44.3302 50.7204 44.3592 50.6143 44.4605Z" fill="black"/>
<path fill-rule="evenodd" clip-rule="evenodd" d="M47.1526 42.4157C47.2551 42.5604 48.093 43.0563 48.2591 43.0707L48.3687 43.0273L46.7213 37.8195L45.8516 37.8123L47.2763 42.3867L47.1526 42.4157Z" fill="black"/>
<path fill-rule="evenodd" clip-rule="evenodd" d="M63.6836 40.2481C63.8922 40.3422 63.8462 40.4688 64.023 41.0117L64.5957 42.7524C64.7124 43.0637 64.7336 43.3822 64.8326 43.6789C65.0235 44.2507 65.2179 44.7972 65.3841 45.3871C65.5361 45.9227 65.9391 46.7877 65.8649 47.1677L66.3775 46.8673C66.4588 46.5561 66.2821 46.2629 66.1972 45.9553L64.8326 41.5799C64.7124 41.2578 64.5674 40.1757 64.2705 39.9006C64.0937 39.9151 64.1503 39.9079 63.9594 40.0237C63.9169 40.049 63.8568 40.0888 63.8179 40.1178C63.6942 40.2119 63.7614 40.1503 63.6836 40.2481Z" fill="black"/>
<path fill-rule="evenodd" clip-rule="evenodd" d="M45.7782 41.6015C45.9302 41.8078 46.2201 41.9163 46.4428 42.0466C46.6903 42.1914 46.906 42.3832 47.1534 42.4158L47.2772 42.3868L45.8524 37.8123L44.8555 37.7979C44.8731 37.9571 44.9439 38.0946 44.9898 38.2575L45.7322 40.5339C45.7853 40.7582 45.8383 41.3228 45.9939 41.4567C45.8949 41.6702 46.2024 41.5906 45.7782 41.6015Z" fill="black"/>
<path fill-rule="evenodd" clip-rule="evenodd" d="M47.7344 16.8256C47.7556 16.8437 48.0844 17.8823 48.1162 17.98C48.1869 18.2008 48.2399 18.3564 48.3177 18.5917C48.399 18.845 48.4026 19.0079 48.4697 19.2467L49.2616 21.6642L50.0783 21.6534C49.898 21.4218 49.799 20.6726 49.6894 20.3433L48.8339 17.7195C48.742 17.4372 48.5475 16.5759 48.346 16.4673C48.1586 16.489 47.8546 16.6374 47.7344 16.8256Z" fill="black"/>
<path fill-rule="evenodd" clip-rule="evenodd" d="M42.5593 33.2306L43.0154 33.2342H43.4184L43.9134 33.2378H44.3447L45.1331 33.2414L45.9816 33.2487L46.6709 33.2559L47.3497 33.2631L48.0179 33.2776L48.428 33.2885H48.8452H49.3543H49.9659H50.4432H50.9629V36.2633H50.4432H49.9659H49.3543H48.8452L48.428 36.267L48.0179 36.2742L47.3497 36.285L46.6709 36.2959L45.9816 36.3031L45.1331 36.3104L44.3447 36.314H43.9134L43.4184 36.3176H43.0154L42.5593 36.3212L42.0997 36.285L42.0078 36.267C42.3613 36.4913 46.1442 36.361 46.9078 36.3574C47.728 36.3574 51.2528 36.4551 51.7477 36.3176C51.8467 35.9847 51.8396 33.607 51.7583 33.2414C51.624 33.1582 44.5603 33.1944 43.2629 33.1944C42.9376 33.1944 42.3613 33.0967 42.1209 33.2704L42.5593 33.2306Z" fill="black"/>
<path fill-rule="evenodd" clip-rule="evenodd" d="M49.5312 15.7616L49.7823 15.7073C49.8141 16.1597 50.0474 16.7858 50.203 17.2744L51.1328 20.1768C51.1929 20.4953 51.2388 20.6871 51.3378 20.9513C51.4156 21.1648 51.5181 21.3856 51.5464 21.6281H52.2075L51.7055 20.0972C51.6171 19.7679 51.5499 19.6195 51.4439 19.3155C51.1858 18.5627 51.0161 17.6906 50.7333 16.8944L50.3515 15.7109C50.2807 15.4938 50.3161 15.4938 50.1393 15.4033C49.9343 15.4287 49.6585 15.5915 49.5312 15.7616Z" fill="black"/>
<path fill-rule="evenodd" clip-rule="evenodd" d="M48.3438 16.4671C48.5453 16.5757 48.7397 17.437 48.8316 17.7193L49.6872 20.3431C49.7968 20.6725 49.8958 21.4216 50.0761 21.6532L50.7443 21.6351C50.7336 21.3275 50.4261 20.6254 50.32 20.2418C50.1751 19.717 49.9983 19.366 49.8675 18.8376L49.4539 17.3936C49.3725 17.1475 49.2806 16.905 49.2205 16.7024C49.072 16.2247 49.1675 16.2355 48.9412 16.1052C48.7432 16.1306 48.4675 16.297 48.3438 16.4671Z" fill="black"/>
<path fill-rule="evenodd" clip-rule="evenodd" d="M44.7946 41.0225C45.0774 41.0551 44.9325 41.0044 44.9891 40.99L44.4729 39.4048C44.4305 39.2492 44.3986 39.1515 44.3704 38.9922C44.3173 38.7136 44.3315 38.7823 44.2572 38.5761C44.1582 38.3155 44.0981 38.0658 44.0204 37.7943C43.7163 37.7943 43.4158 37.7581 43.1295 37.8378C43.1259 40.3349 42.9527 40.002 43.5148 40.3241C43.8224 40.5014 44.586 40.9972 44.7946 41.0225Z" fill="black"/>
<path fill-rule="evenodd" clip-rule="evenodd" d="M46.4727 17.5746C46.6247 17.6578 46.6247 17.7881 46.6777 17.951C46.8439 18.4794 46.957 18.6893 47.0737 19.29C47.1691 19.7714 47.7807 21.342 47.809 21.6895L48.5939 21.6786C48.4772 21.2588 47.4413 17.77 47.2257 17.2525L47.0701 17.2163C46.8686 17.2416 46.5929 17.4045 46.4727 17.5746Z" fill="black"/>
<path fill-rule="evenodd" clip-rule="evenodd" d="M53.9104 33.7953C54.0377 33.9473 55.176 34.5951 55.321 34.6132L55.4412 34.5807C55.4341 34.5662 55.4235 34.5481 55.42 34.5408L55.222 33.9256C55.1442 33.4768 54.819 32.4925 54.6669 32.0437C54.5538 31.7071 53.8962 29.8506 53.9104 29.6226V33.7953Z" fill="black"/>
<path fill-rule="evenodd" clip-rule="evenodd" d="M44.4023 18.7942C44.4837 18.8593 45.3003 21.4035 45.3781 21.6967H46.3892C46.2832 21.4506 46.2054 21.1104 46.1135 20.8607C46.0109 20.5784 45.9049 20.2527 45.8306 19.9849C45.7387 19.6483 45.4559 18.4468 45.2968 18.2622C45.1271 18.2803 44.9539 18.4142 44.816 18.4974C44.7382 18.5409 44.6675 18.5807 44.5968 18.6241C44.4448 18.7218 44.5155 18.6422 44.4023 18.7942Z" fill="black"/>
<path fill-rule="evenodd" clip-rule="evenodd" d="M34.3896 28.3884L34.9305 28.3992L35.5634 28.4246L36.4154 28.4535V31.4248L37.4088 31.4103V28.3848C37.2214 28.3992 37.3664 28.3992 37.3098 28.3232H34.0078L34.3896 28.3884Z" fill="black"/>
<path fill-rule="evenodd" clip-rule="evenodd" d="M28.6528 28.3593L29.519 28.3666L30.3427 28.3702L31.3043 28.3883L31.9972 28.41L32.6089 28.4353L33.5139 28.4534V31.4391L34.3907 31.4319V28.3883L34.0089 28.3231C33.2382 28.334 28.027 28.1892 27.8008 28.4208C28.126 28.3847 28.2604 28.3557 28.6528 28.3593Z" fill="black"/>
<path fill-rule="evenodd" clip-rule="evenodd" d="M44.7938 41.0224L44.9246 41.1454C45.1013 41.283 45.5998 41.5833 45.7766 41.6014C46.2008 41.5906 45.8933 41.6702 45.9923 41.4567C45.8367 41.3228 45.7837 40.7582 45.7306 40.5338L44.9882 38.2574C44.9423 38.0946 44.8716 37.957 44.8539 37.7978L44.0195 37.7942C44.0973 38.0656 44.1574 38.3153 44.2564 38.5759C44.3306 38.7822 44.3165 38.7134 44.3695 38.9921C44.3978 39.1513 44.4296 39.249 44.4721 39.4047L44.9882 40.9898C44.9317 41.0043 45.0766 41.055 44.7938 41.0224Z" fill="black"/>
<path fill-rule="evenodd" clip-rule="evenodd" d="M36.3818 26.6042V23.4846L35.9965 23.5172C35.2222 23.6366 35.2116 24.4618 35.2152 25.3014C35.2187 26.1627 35.544 26.597 36.3818 26.6042Z" fill="black"/>
<path fill-rule="evenodd" clip-rule="evenodd" d="M46.4766 26.6042H47.4665V23.5388L46.4766 23.5208V26.6042Z" fill="black"/>
<path fill-rule="evenodd" clip-rule="evenodd" d="M43.4219 19.3732C43.588 19.5144 43.5951 19.6555 43.6517 19.8546C43.7153 20.079 43.7719 20.231 43.8497 20.4662C43.9274 20.7014 43.9875 20.886 44.0512 21.0814C44.1113 21.2732 44.2103 21.4976 44.2279 21.7039L45.3769 21.6967C45.2991 21.4035 44.4825 18.8593 44.4012 18.7942L43.5173 19.2719C43.4431 19.3334 43.4784 19.3009 43.4219 19.3732Z" fill="black"/>
<path fill-rule="evenodd" clip-rule="evenodd" d="M47.0703 17.2163L47.2259 17.2525C47.4415 17.77 48.4774 21.2588 48.594 21.6786L49.2622 21.6641L48.4703 19.2466C48.4031 19.0077 48.3996 18.8449 48.3183 18.5915C48.2405 18.3563 48.1875 18.2007 48.1168 17.9799C48.085 17.8822 47.7562 16.8435 47.735 16.8254C47.5653 16.858 47.544 16.8833 47.3814 16.9811L47.0703 17.2163Z" fill="black"/>
<path fill-rule="evenodd" clip-rule="evenodd" d="M37.9102 31.4103L38.9071 31.385V28.4463L37.9102 28.3848V31.4103Z" fill="black"/>
<path fill-rule="evenodd" clip-rule="evenodd" d="M30.3438 31.4466L31.3054 31.4429V28.3885L30.3438 28.3704V31.4466Z" fill="black"/>
<path fill-rule="evenodd" clip-rule="evenodd" d="M47.4688 26.6042H48.4233V23.5497L47.4688 23.5388V26.6042Z" fill="black"/>
<path fill-rule="evenodd" clip-rule="evenodd" d="M44.4961 26.6043H45.3976V23.5136L44.4961 23.5063V26.6043Z" fill="black"/>
<path fill-rule="evenodd" clip-rule="evenodd" d="M32.6094 31.4427L33.5144 31.4391V28.4534L32.6094 28.4353V31.4427Z" fill="black"/>
<path fill-rule="evenodd" clip-rule="evenodd" d="M43.6328 26.6042H44.4954V23.5063L43.6328 23.5027V26.6042Z" fill="black"/>
<path fill-rule="evenodd" clip-rule="evenodd" d="M28.6523 31.45L29.5185 31.4464V28.3666L28.6523 28.3594V31.45Z" fill="black"/>
<path fill-rule="evenodd" clip-rule="evenodd" d="M46.1641 31.4355L47.0408 31.4247V28.4317L46.1641 28.3774V31.4355Z" fill="black"/>
<path fill-rule="evenodd" clip-rule="evenodd" d="M45.1328 36.3104L45.9813 36.3032V33.2487L45.1328 33.2415V36.3104Z" fill="black"/>
<path fill-rule="evenodd" clip-rule="evenodd" d="M35.5664 31.4284L36.4184 31.4248V28.4535L35.5664 28.4246V31.4284Z" fill="black"/>
<path fill-rule="evenodd" clip-rule="evenodd" d="M49.7031 31.3669H50.5587V28.4282L49.7031 28.3667V31.3669Z" fill="black"/>
<path fill-rule="evenodd" clip-rule="evenodd" d="M29.5195 31.4465H30.3433V28.3703L29.5195 28.3667V31.4465Z" fill="black"/>
<path fill-rule="evenodd" clip-rule="evenodd" d="M49.793 26.604H50.6167V23.5496H49.793V26.604Z" fill="black"/>
<path fill-rule="evenodd" clip-rule="evenodd" d="M46.1625 28.3775L47.0393 28.4318L47.6297 28.4535V31.4211L48.3756 31.4103L48.3792 28.3486L48.3862 28.3232H45.8125C45.9645 28.4029 45.9539 28.3811 46.1625 28.3775Z" fill="black"/>
<path fill-rule="evenodd" clip-rule="evenodd" d="M40.2969 31.3668H41.1241V28.4173L40.2969 28.3811V31.3668Z" fill="black"/>
<path fill-rule="evenodd" clip-rule="evenodd" d="M40.8711 26.6041H41.6595V23.4917H40.8711V26.6041Z" fill="black"/>
<path fill-rule="evenodd" clip-rule="evenodd" d="M41.6602 26.6041H42.4415V23.4953L41.6602 23.4917V26.6041Z" fill="black"/>
<path fill-rule="evenodd" clip-rule="evenodd" d="M44.3438 36.314L45.1321 36.3104V33.2414L44.3438 33.2378V36.314Z" fill="black"/>
<path fill-rule="evenodd" clip-rule="evenodd" d="M42.8711 26.6041H43.6312V23.5026L42.8711 23.4954V26.6041Z" fill="black"/>
<path fill-rule="evenodd" clip-rule="evenodd" d="M38.9062 31.385L39.6982 31.3669V28.4499L38.9062 28.4463V31.385Z" fill="black"/>
<path fill-rule="evenodd" clip-rule="evenodd" d="M38.6328 26.6042H39.3682V23.4882L38.6328 23.4846V26.6042Z" fill="black"/>
<path fill-rule="evenodd" clip-rule="evenodd" d="M27.6808 31.3343L27.953 31.3162V28.45L27.6702 28.4753C27.1081 28.5513 27.0586 29.2244 27.0586 29.9084C27.0586 30.5707 27.1046 31.28 27.6808 31.3343Z" fill="black"/>
<path fill-rule="evenodd" clip-rule="evenodd" d="M49.0586 26.604H49.7939V23.5496H49.0586V26.604Z" fill="black"/>
<path fill-rule="evenodd" clip-rule="evenodd" d="M27.6825 31.3343C27.7143 31.4284 27.6259 31.4067 27.8027 31.3922C28.1209 31.4827 28.3188 31.4501 28.6547 31.4501V28.3594C28.2623 28.3558 28.1279 28.3848 27.8027 28.421C27.6047 28.3992 27.7072 28.3884 27.6719 28.4752L27.9547 28.4499V31.3162L27.6825 31.3343Z" fill="black"/>
<path fill-rule="evenodd" clip-rule="evenodd" d="M34.8984 36.3104L35.6161 36.2996V33.2523L34.8984 33.2415V36.3104Z" fill="black"/>
<path fill-rule="evenodd" clip-rule="evenodd" d="M34.4706 33.2379L34.8984 33.2415L35.6161 33.2524L36.0792 33.2632L36.4751 33.2777L36.8251 33.2886H37.2105H37.564H37.9741V36.2634H37.564H37.2105H36.8251L36.4751 36.2743L36.0792 36.2888L35.6161 36.2996L34.8984 36.3105L34.4706 36.3141L34.0075 36.2996C34.1984 36.4444 35.9201 36.3575 36.3125 36.3575C36.7615 36.3539 38.2039 36.4697 38.4196 36.1983C38.5292 35.8689 38.5256 33.6903 38.4196 33.3537C38.1933 33.104 36.6731 33.2017 36.256 33.1981C35.8565 33.1981 35.457 33.1981 35.061 33.1981C34.7499 33.1945 34.1383 33.0895 33.9297 33.2886L34.4706 33.2379Z" fill="black"/>
<path fill-rule="evenodd" clip-rule="evenodd" d="M33.6367 33.4332C33.8701 33.4477 33.7923 33.3572 33.817 33.6323L33.7216 36.1692C33.8382 36.3212 33.8064 36.2814 34.0079 36.2995L34.4711 36.314V33.2378L33.9302 33.2885C33.8559 33.2812 33.9408 33.2342 33.7711 33.3138C33.5483 33.4151 33.7216 33.3247 33.6367 33.4332Z" fill="black"/>
<path fill-rule="evenodd" clip-rule="evenodd" d="M31.3047 31.4429H31.9976V28.4101L31.3047 28.3884V31.4429Z" fill="black"/>
<path fill-rule="evenodd" clip-rule="evenodd" d="M36.9219 26.6042H37.5971V23.4846H36.9219V26.6042Z" fill="black"/>
<path fill-rule="evenodd" clip-rule="evenodd" d="M45.9805 36.3033L46.6699 36.296V33.256L45.9805 33.2488V36.3033Z" fill="black"/>
<path fill-rule="evenodd" clip-rule="evenodd" d="M48.375 31.4103L49.0538 31.3886V28.3667L48.3785 28.3486L48.375 31.4103Z" fill="black"/>
<path fill-rule="evenodd" clip-rule="evenodd" d="M46.668 36.2959L47.3468 36.285V33.2631L46.668 33.2559V36.2959Z" fill="black"/>
<path fill-rule="evenodd" clip-rule="evenodd" d="M44.957 31.4427L45.6323 31.4391V28.457L44.957 28.4136V31.4427Z" fill="black"/>
<path fill-rule="evenodd" clip-rule="evenodd" d="M37.4084 28.3848H37.9069L38.9039 28.4463L39.6958 28.4499V31.3669H40.2933V28.3811C40.219 28.3848 40.1412 28.392 40.067 28.3848C39.9539 28.3739 40.0705 28.392 39.9645 28.3703C39.8301 28.3413 39.8832 28.3558 39.8231 28.3232H37.3094C37.366 28.3992 37.221 28.3992 37.4084 28.3848Z" fill="black"/>
<path fill-rule="evenodd" clip-rule="evenodd" d="M47.3477 36.2851L48.0158 36.2742V33.2777L47.3477 33.2632V36.2851Z" fill="black"/>
<path fill-rule="evenodd" clip-rule="evenodd" d="M51.7461 36.3176C52.5062 36.1512 52.5804 35.6119 52.5804 34.747C52.5804 33.9363 52.4779 33.3717 51.7567 33.2415C51.838 33.607 51.8451 35.9847 51.7461 36.3176Z" fill="black"/>
<path fill-rule="evenodd" clip-rule="evenodd" d="M44.3302 31.4428H44.9595V28.4137L44.3125 28.3811L44.3302 31.4428Z" fill="black"/>
<path fill-rule="evenodd" clip-rule="evenodd" d="M49.0547 31.3886L49.7017 31.3669V28.3667H49.0547V31.3886Z" fill="black"/>
<path fill-rule="evenodd" clip-rule="evenodd" d="M48.4219 26.604H49.0582V23.5496H48.4219V26.604Z" fill="black"/>
<path fill-rule="evenodd" clip-rule="evenodd" d="M34.9336 31.4319L35.5664 31.4283V28.4245L34.9336 28.3992V31.4319Z" fill="black"/>
<path fill-rule="evenodd" clip-rule="evenodd" d="M42.0041 36.2671L42.096 36.2852L42.0854 33.2524C41.4173 33.4189 41.3359 33.9726 41.3359 34.7471C41.3359 35.5361 41.3819 36.0572 42.0041 36.2671Z" fill="black"/>
<path fill-rule="evenodd" clip-rule="evenodd" d="M43.1739 31.4465H43.7891V28.45H43.1562L43.1739 31.4465Z" fill="black"/>
<path fill-rule="evenodd" clip-rule="evenodd" d="M31.9961 31.4429H32.6077V28.4355L31.9961 28.4102V31.4429Z" fill="black"/>
<path fill-rule="evenodd" clip-rule="evenodd" d="M49.3516 36.2634H49.9632V33.2886H49.3516V36.2634Z" fill="black"/>
<path fill-rule="evenodd" clip-rule="evenodd" d="M43.1566 28.4499H43.7894V31.4465L44.3303 31.4429L44.3126 28.3811L44.2949 28.3232H42.1914C42.2091 28.3305 42.2338 28.3232 42.2444 28.345L42.6934 28.4137C42.8525 28.4246 43.001 28.4318 43.1566 28.4499Z" fill="black"/>
<path fill-rule="evenodd" clip-rule="evenodd" d="M45.3945 26.6041H45.9779V23.517L45.3945 23.5134V26.6041Z" fill="black"/>
<path fill-rule="evenodd" clip-rule="evenodd" d="M44.9576 28.4137L45.6329 28.4571V31.4392L46.1632 31.4356V28.3775C45.9546 28.3811 45.9652 28.4029 45.8132 28.3232H44.293L44.3106 28.3811L44.9576 28.4137Z" fill="black"/>
<path fill-rule="evenodd" clip-rule="evenodd" d="M47.0391 31.4248L47.6295 31.4212V28.4536L47.0391 28.4319V31.4248Z" fill="black"/>
<path fill-rule="evenodd" clip-rule="evenodd" d="M39.8281 26.604H40.3832V23.4917L39.8281 23.488V26.604Z" fill="black"/>
<path fill-rule="evenodd" clip-rule="evenodd" d="M38.0781 26.6042H38.6332V23.4846H38.0781V26.6042Z" fill="black"/>
<path fill-rule="evenodd" clip-rule="evenodd" d="M50.1957 57.8547C50.3477 57.7208 50.2699 56.8993 50.2699 56.6966L53.7452 56.6858V67.5031H50.2699L50.2805 62.4437L50.2239 62.7368C50.1992 63.6633 50.1603 67.1991 50.2345 67.5683L53.7734 67.5538C53.8441 67.2968 53.8512 56.9536 53.777 56.6424C53.381 56.5953 50.5068 56.5845 50.2345 56.6605L50.1957 57.8547Z" fill="black"/>
<path fill-rule="evenodd" clip-rule="evenodd" d="M36.3828 26.6042H36.9237V23.4846H36.3828V26.6042Z" fill="black"/>
<path fill-rule="evenodd" clip-rule="evenodd" d="M41.1211 31.3668H41.6832V28.4498L41.1211 28.4172V31.3668Z" fill="black"/>
<path fill-rule="evenodd" clip-rule="evenodd" d="M34.3906 31.432H34.9315V28.3993L34.3906 28.3884V31.432Z" fill="black"/>
<path fill-rule="evenodd" clip-rule="evenodd" d="M43.2309 19.4602C43.1142 19.8909 43.1779 21.1829 43.1743 21.7113L44.2314 21.704C44.2137 21.4977 44.1147 21.2734 44.0546 21.0816C43.991 20.8861 43.9309 20.7016 43.8531 20.4663C43.7753 20.2311 43.7188 20.0791 43.6551 19.8547C43.5986 19.6556 43.5915 19.5145 43.4253 19.3734C43.291 19.3842 43.3971 19.2829 43.2309 19.4602Z" fill="black"/>
<path fill-rule="evenodd" clip-rule="evenodd" d="M73.4403 67.5175H70.0251L70.0216 59.3276C69.6221 59.2299 68.0701 59.2914 67.5716 59.2914V56.6748H75.9044C75.8585 56.6495 75.8726 56.6422 75.7736 56.6205C75.7559 56.6169 75.6676 56.6133 75.6676 56.6133L67.5433 56.6422C67.4867 56.9209 67.4832 59.067 67.5468 59.3493L69.958 59.3674C69.958 60.3771 69.8908 67.1519 69.9898 67.5537C70.1135 67.5754 73.2246 67.6586 73.4403 67.5175Z" fill="black"/>
<path fill-rule="evenodd" clip-rule="evenodd" d="M50.4414 36.2634H50.9611V33.2886H50.4414V36.2634Z" fill="black"/>
<path fill-rule="evenodd" clip-rule="evenodd" d="M45.9805 26.6041H46.479V23.5207L45.9805 23.5171V26.6041Z" fill="black"/>
<path fill-rule="evenodd" clip-rule="evenodd" d="M51.9375 31.3704C52.5491 31.175 52.5845 30.6357 52.5845 29.9083C52.5845 29.1953 52.5314 28.6344 51.9446 28.439L51.9375 31.3704Z" fill="black"/>
<path fill-rule="evenodd" clip-rule="evenodd" d="M48.8438 36.2634H49.3528V33.2886H48.8438V36.2634Z" fill="black"/>
<path fill-rule="evenodd" clip-rule="evenodd" d="M43.418 36.3176L43.9129 36.3139V33.2377L43.418 33.2341V36.3176Z" fill="black"/>
<path fill-rule="evenodd" clip-rule="evenodd" d="M40.3828 26.6041H40.8707V23.4917H40.3828V26.6041Z" fill="black"/>
<path fill-rule="evenodd" clip-rule="evenodd" d="M37.4102 31.4103H37.9086V28.3848H37.4102V31.4103Z" fill="black"/>
<path fill-rule="evenodd" clip-rule="evenodd" d="M37.5977 26.6042H38.0785V23.4846H37.5977V26.6042Z" fill="black"/>
<path fill-rule="evenodd" clip-rule="evenodd" d="M39.3672 26.604H39.8268V23.488H39.3672V26.604Z" fill="black"/>
<path fill-rule="evenodd" clip-rule="evenodd" d="M49.9648 36.2634H50.4421V33.2886H49.9648V36.2634Z" fill="black"/>
<path fill-rule="evenodd" clip-rule="evenodd" d="M42.0965 36.2852L42.5561 36.3214V33.2307L42.1178 33.2705L42.0859 33.2524L42.0965 36.2852Z" fill="black"/>
<path fill-rule="evenodd" clip-rule="evenodd" d="M42.5586 36.3214L43.0147 36.3178V33.2343L42.5586 33.2307V36.3214Z" fill="black"/>
<path fill-rule="evenodd" clip-rule="evenodd" d="M35.6172 36.2997L36.0803 36.2888V33.2633L35.6172 33.2524V36.2997Z" fill="black"/>
<path fill-rule="evenodd" clip-rule="evenodd" d="M33.7245 36.1694L33.82 33.6324C33.7952 33.3574 33.873 33.4479 33.6397 33.4334C33.569 33.4479 33.5195 33.4081 33.3639 33.6505C33.0882 34.0776 32.9821 36.0283 33.7245 36.1694Z" fill="black"/>
<path fill-rule="evenodd" clip-rule="evenodd" d="M42.4414 26.6041H42.8727V23.4954H42.4414V26.6041Z" fill="black"/>
<path fill-rule="evenodd" clip-rule="evenodd" d="M43.9102 36.314H44.3415V33.2378H43.9102V36.314Z" fill="black"/>
<path fill-rule="evenodd" clip-rule="evenodd" d="M34.4727 36.314L34.9004 36.3104V33.2414L34.4727 33.2378V36.314Z" fill="black"/>
<path fill-rule="evenodd" clip-rule="evenodd" d="M43.0117 36.3176H43.4147V33.2341H43.0117V36.3176Z" fill="black"/>
<path fill-rule="evenodd" clip-rule="evenodd" d="M48.4258 36.2671L48.843 36.2634V33.2886H48.4258V36.2671Z" fill="black"/>
<path fill-rule="evenodd" clip-rule="evenodd" d="M48.0156 36.2742L48.4257 36.2669V33.2884L48.0156 33.2776V36.2742Z" fill="black"/>
<path fill-rule="evenodd" clip-rule="evenodd" d="M37.5664 36.2634H37.9765V33.2886H37.5664V36.2634Z" fill="black"/>
<path fill-rule="evenodd" clip-rule="evenodd" d="M36.082 36.2887L36.478 36.2742V33.2777L36.082 33.2632V36.2887Z" fill="black"/>
<path fill-rule="evenodd" clip-rule="evenodd" d="M36.8281 36.2634H37.2135V33.2886H36.8281V36.2634Z" fill="black"/>
<path fill-rule="evenodd" clip-rule="evenodd" d="M38.4219 36.1983C38.9663 35.9667 38.9734 35.4999 38.9734 34.7471C38.9769 34.0197 38.9416 33.5673 38.4219 33.3538C38.5279 33.6903 38.5315 35.869 38.4219 36.1983Z" fill="black"/>
<path fill-rule="evenodd" clip-rule="evenodd" d="M52.0898 26.4086C52.6025 26.1553 52.5813 25.7065 52.5848 25.008C52.5848 24.3711 52.5636 23.8536 52.1075 23.6726L52.0898 26.4086Z" fill="black"/>
<path fill-rule="evenodd" clip-rule="evenodd" d="M37.2109 36.2634H37.5645V33.2886H37.2109V36.2634Z" fill="black"/>
<path fill-rule="evenodd" clip-rule="evenodd" d="M36.4766 36.2742L36.8266 36.2633V33.2884L36.4766 33.2776V36.2742Z" fill="black"/>
<path fill-rule="evenodd" clip-rule="evenodd" d="M62.9588 63.0479C62.7361 62.8923 59.3811 62.9864 59.1265 62.9864V61.0574H62.3932C62.821 61.0611 62.729 61.0792 62.8422 60.9814L59.0664 61.0032L59.0805 63.0334L62.9588 63.0479Z" fill="black"/>
<path fill-rule="evenodd" clip-rule="evenodd" d="M60.1879 17.3105C60.1101 17.5131 60.149 17.4878 60.1172 17.7194L60.5131 17.5312L60.9126 17.7086L60.8101 17.1331C60.6404 17.1367 60.5379 17.1187 60.3929 17.1693C60.2975 17.2019 60.2727 17.2453 60.1879 17.3105Z" fill="black"/>
<path fill-rule="evenodd" clip-rule="evenodd" d="M60.1655 42.2964C60.3493 42.3145 60.5084 42.3362 60.6852 42.2892C60.9362 42.2204 60.9079 42.2059 60.922 41.9779L60.7594 41.9526C60.5614 41.9743 60.7453 41.9671 60.5862 41.996C60.4837 42.0178 60.5579 42.0322 60.4342 42.0033C60.3387 41.9816 60.2857 41.92 60.1584 41.873C59.8968 41.7536 60.1124 41.8296 60.0241 41.92V42.0974C60.07 42.4086 59.9498 42.1915 60.1655 42.2964Z" fill="black"/>
<path fill-rule="evenodd" clip-rule="evenodd" d="M60.1875 9.46796C60.3395 9.50777 60.2016 9.44625 60.3431 9.60187H60.6824C60.8628 9.52587 60.7001 9.6272 60.8451 9.46434L60.5128 9.25806C60.5021 9.26529 60.3749 9.31958 60.3572 9.33044C60.1663 9.43901 60.2794 9.35215 60.1875 9.46796Z" fill="black"/>
</svg>
