<svg width="89" height="79" viewBox="0 0 89 79" fill="none" xmlns="http://www.w3.org/2000/svg">
<path d="M2.56318 63.1596C2.40233 62.863 2.49616 62.4921 2.56318 62.3438C2.88486 62.2844 3.23336 62.3685 3.36739 62.4179C3.43441 62.591 3.51483 62.9816 3.30038 63.1596C3.08592 63.3376 2.71955 63.2338 2.56318 63.1596Z" fill="#008F6A" stroke="#595C58"/>
<path d="M11.2756 72.2921V71.03L9.46606 71.8467V73.183L11.2756 72.2921Z" fill="#008F6A" stroke="#595C58"/>
<path d="M8.52775 70.5846V69.3225L6.71826 69.9907L6.78528 71.1043L8.52775 70.5846Z" fill="#008F6A" stroke="#595C58"/>
<path d="M6.24929 68.6543V67.6149H5.04297V68.6543H6.24929Z" fill="#008F6A" stroke="#595C58"/>
<path d="M3.63538 65.9074C3.52815 65.7292 3.5907 65.2887 3.63538 65.0907C3.65067 65.0165 4.30556 64.7195 4.50661 65.0907C4.66746 65.3877 4.52895 65.8084 4.43959 65.9816C4.2162 66.0311 3.74261 66.0855 3.63538 65.9074Z" fill="#008F6A" stroke="#595C58"/>
<path d="M77.7358 7.75596V6.41961L79.6123 5.52872V6.71658L77.7358 7.75596Z" fill="#2B1E74" stroke="#595C58"/>
<path d="M80.2825 9.38928V8.27566L82.226 7.68173V8.64687L80.2825 9.38928Z" fill="#2B1E74" stroke="#595C58"/>
<path d="M82.6951 11.1711V10.2059L83.9014 9.98322V10.9484L82.6951 11.1711Z" fill="#2B1E74" stroke="#595C58"/>
<path d="M84.4375 13.6945V12.9529H85.2417V13.6945H84.4375Z" fill="#2B1E74" stroke="#595C58"/>
<path d="M85.7108 16.4413C85.6036 16.1446 85.6661 15.7243 85.7108 15.5512C85.9789 15.4326 86.2693 15.5018 86.381 15.5512C86.5418 15.7886 86.448 16.194 86.381 16.3671C86.1665 16.4858 85.8449 16.466 85.7108 16.4413Z" fill="#2B1E74" stroke="#595C58"/>
<path d="M71.2349 5.23175V3.5242L73.7145 2.93027V4.26661L71.2349 5.23175Z" fill="#2B1E74" stroke="#595C58"/>
<path d="M74.8539 6.12263L74.7869 4.71205L76.7974 3.96964V5.5287L74.8539 6.12263Z" fill="#2B1E74" stroke="#595C58"/>
<path d="M1 43.8373H8.57304C16.1327 30.1175 28.5668 23.3219 33.8389 21.6391C48.7437 15.8186 53.006 26.5885 53.2741 32.7011L79.8133 32.8495C81.4217 24.5939 80.5728 19.1644 79.9473 17.4816C77.481 8.57261 66.7671 6.39486 61.7184 6.41961H54.0113V2.33633C47.0414 2.98966 36.1398 7.70646 31.5602 9.98319C11.9374 20.5552 3.01054 36.9576 1 43.8373Z" fill="#2B1E74" stroke="#595C58"/>
<path d="M55.2847 5.30598V2.70754L58.7026 1.44543V3.59843L55.2847 5.30598Z" fill="#2B1E74" stroke="#595C58"/>
<path d="M59.7078 2.48484V4.41511L62.6566 3.52422V1.37122L59.7078 2.48484Z" fill="#2B1E74" stroke="#595C58"/>
<path d="M63.863 2.18786V3.89541L66.8118 2.93028V1L63.863 2.18786Z" fill="#2B1E74" stroke="#595C58"/>
<path d="M67.4819 4.63784V2.7818L70.6318 1.66818V3.44998L67.4819 4.63784Z" fill="#2B1E74" stroke="#595C58"/>
<path d="M35.5249 46.2872H9.05275C8.2262 49.8755 7.31028 58.5667 10.2591 64.6248C13.2079 70.6829 23.1936 72.5439 27.8178 72.7171C30.1635 72.7419 34.8547 72.7765 34.8547 72.7171V76.7262C44.3445 75.4789 55.3399 70.3167 59.6514 67.8914C63.8065 65.3425 73.4974 58.4182 79.0196 51.1129C84.5419 43.8075 87.3075 37.4277 88.0001 35.151H80.494C75.1996 43.5403 74.1943 43.6888 70.7764 47.3266C68.0421 50.2368 63.114 53.4886 60.9918 54.7507C41.7442 65.9166 35.994 53.7608 35.5249 46.2872Z" fill="#008F6A" stroke="#595C58"/>
<path d="M33.8607 75.93L33.7266 73.4058L30.2417 75.1133V77.4148L33.8607 75.93Z" fill="#008F6A" stroke="#595C58"/>
<path d="M29.3034 76.3012V74.2967L26.2876 75.1876V77.3406L29.3034 76.3012Z" fill="#008F6A" stroke="#595C58"/>
<path d="M25.2154 76.5239V74.7421L22.1326 75.8557V77.7118L25.2154 76.5239Z" fill="#008F6A" stroke="#595C58"/>
<path d="M21.4623 76.0784V74.0739L18.4465 75.1875V77.1178L21.4623 76.0784Z" fill="#008F6A" stroke="#595C58"/>
<path d="M17.6424 75.1133V73.48L15.3638 74.2967V75.8557L17.6424 75.1133Z" fill="#008F6A" stroke="#595C58"/>
<path d="M12.1467 74.7421V73.183L14.0232 72.5149L14.2913 73.9254L12.1467 74.7421Z" fill="#008F6A" stroke="#595C58"/>
</svg>
