<svg width="22" height="23" viewBox="0 0 22 23" fill="none" xmlns="http://www.w3.org/2000/svg">
<g clip-path="url(#clip0_3_57)">
<path fill-rule="evenodd" clip-rule="evenodd" d="M7.49108 14.8658C11.0157 18.3904 14.2817 18.7763 15.2406 18.812C16.3992 18.8542 17.5817 17.9082 18.0932 16.9393C17.2774 15.9823 16.215 15.2398 15.0517 14.435C14.3652 15.1206 13.5191 16.3948 12.3925 15.9383C11.7517 15.6807 10.1696 14.952 8.78725 13.5687C7.404 12.1864 6.67616 10.6042 6.41675 9.96438C5.96025 8.83596 7.23808 7.98805 7.92466 7.30146C7.11983 6.11896 6.39016 5.02905 5.435 4.25446C4.45233 4.7678 3.50083 5.94113 3.54391 7.11538C3.57966 8.07421 3.96558 11.3403 7.49108 14.8658ZM15.1727 20.6445C13.8527 20.5959 10.1118 20.0789 6.194 16.162C2.27708 12.2441 1.761 8.50413 1.7115 7.18321C1.63816 5.17021 3.18 3.21496 4.96108 2.45138C5.17556 2.35877 5.41043 2.32351 5.64265 2.34906C5.87487 2.37461 6.09645 2.4601 6.28566 2.59713C7.75966 3.67238 8.77625 5.3013 9.64983 6.5773C9.83156 6.84263 9.91481 7.16314 9.88518 7.48337C9.85555 7.8036 9.71491 8.1034 9.48758 8.33088L8.24458 9.5748C8.53333 10.2119 9.12091 11.31 10.0834 12.2725C11.0459 13.235 12.1441 13.8226 12.7821 14.1114L14.0242 12.8684C14.2525 12.6406 14.5536 12.5001 14.8748 12.4715C15.1961 12.4428 15.5173 12.5278 15.7823 12.7116C17.084 13.6136 18.613 14.6155 19.7277 16.0428C19.8758 16.2334 19.9701 16.4603 20.0005 16.6997C20.031 16.9392 19.9966 17.1824 19.9009 17.404C19.1337 19.1943 17.1922 20.7187 15.1727 20.6445Z" fill="#008F6A"/>
</g>
<defs>
<clipPath id="clip0_3_57">
<rect width="22" height="22" fill="white" transform="translate(0 0.355865)"/>
</clipPath>
</defs>
</svg>
