<svg width="50" height="50" viewBox="0 0 50 50" fill="none" xmlns="http://www.w3.org/2000/svg">
<path d="M5.72852 43.2905H44.2702" stroke="#2B1E74" stroke-width="2" stroke-linecap="round" stroke-linejoin="round"/>
<path d="M13.0866 9.56348H9.1043C8.13089 9.56348 7.3418 10.3526 7.3418 11.326V36.4343C7.3418 37.4077 8.13089 38.1968 9.1043 38.1968H13.0866C14.06 38.1968 14.8491 37.4077 14.8491 36.4343V11.326C14.8491 10.3526 14.06 9.56348 13.0866 9.56348Z" stroke="#2B1E74" stroke-width="2" stroke-linecap="round" stroke-linejoin="round"/>
<path d="M7.3418 14.9324H14.848" stroke="#2B1E74" stroke-width="2" stroke-linecap="round" stroke-linejoin="round"/>
<path d="M20.5924 6.70947H16.6102C15.6368 6.70947 14.8477 7.49857 14.8477 8.47197V36.4366C14.8477 37.41 15.6368 38.1991 16.6102 38.1991H20.5924C21.5658 38.1991 22.3549 37.41 22.3549 36.4366V8.47197C22.3549 7.49857 21.5658 6.70947 20.5924 6.70947Z" stroke="#2B1E74" stroke-width="2" stroke-linecap="round" stroke-linejoin="round"/>
<path d="M14.8477 12.4739H22.356" stroke="#2B1E74" stroke-width="2" stroke-linecap="round" stroke-linejoin="round"/>
<path d="M28.1003 9.56348H24.118C23.1446 9.56348 22.3555 10.3526 22.3555 11.326V36.4343C22.3555 37.4077 23.1446 38.1968 24.118 38.1968H28.1003C29.0737 38.1968 29.8628 37.4077 29.8628 36.4343V11.326C29.8628 10.3526 29.0737 9.56348 28.1003 9.56348Z" stroke="#2B1E74" stroke-width="2" stroke-linecap="round" stroke-linejoin="round"/>
<path d="M22.3555 14.9324H29.8628" stroke="#2B1E74" stroke-width="2" stroke-linecap="round" stroke-linejoin="round"/>
<path d="M36.2298 9.43529L32.308 10.1268C31.3494 10.2958 30.7093 11.21 30.8783 12.1686L35.2383 36.8955C35.4074 37.8541 36.3215 38.4942 37.2801 38.3251L41.2019 37.6336C42.1605 37.4646 42.8006 36.5505 42.6316 35.5918L38.2716 10.865C38.1025 9.90634 37.1884 9.26626 36.2298 9.43529Z" stroke="#2B1E74" stroke-width="2" stroke-linecap="round" stroke-linejoin="round"/>
<path d="M31.5059 15.7208L38.8996 14.4177" stroke="#2B1E74" stroke-width="2" stroke-linecap="round" stroke-linejoin="round"/>
</svg>
