<svg width="44" height="44" viewBox="0 0 44 44" fill="none" xmlns="http://www.w3.org/2000/svg">
<path d="M1.74769 34.6778C1.67051 34.5198 1.71554 34.3223 1.74769 34.2433C1.90206 34.2117 2.06929 34.2565 2.13361 34.2828C2.16577 34.375 2.20436 34.583 2.10145 34.6778C1.99854 34.7726 1.82273 34.7173 1.74769 34.6778Z" fill="#008F6A" stroke="#595C58"/>
<path d="M5.91494 39.5418V38.8696L5.04883 39.3046V40.0163L5.91494 39.5418Z" fill="#008F6A" stroke="#595C58"/>
<path d="M4.60244 38.6321V37.96L3.73633 38.3158L3.76841 38.9089L4.60244 38.6321Z" fill="#008F6A" stroke="#595C58"/>
<path d="M3.51136 37.6043V37.0508H2.93359V37.6043H3.51136Z" fill="#008F6A" stroke="#595C58"/>
<path d="M2.26083 36.1412C2.20938 36.0463 2.23939 35.8117 2.26083 35.7062C2.26817 35.6667 2.58243 35.5085 2.67891 35.7062C2.75609 35.8644 2.68963 36.0884 2.64675 36.1807C2.53955 36.2071 2.31229 36.2361 2.26083 36.1412Z" fill="#008F6A" stroke="#595C58"/>
<path d="M37.707 5.17058V4.45886L38.6052 3.98438V4.61702L37.707 5.17058Z" fill="#2B1E74" stroke="#595C58"/>
<path d="M38.9238 6.04028V5.44718L39.8541 5.13086V5.64488L38.9238 6.04028Z" fill="#2B1E74" stroke="#595C58"/>
<path d="M40.0781 6.98909V6.47507L40.6559 6.35645V6.87047L40.0781 6.98909Z" fill="#2B1E74" stroke="#595C58"/>
<path d="M40.9121 8.3335V7.93848H41.298V8.3335H40.9121Z" fill="#2B1E74" stroke="#595C58"/>
<path d="M41.5206 9.79603C41.4691 9.63802 41.4992 9.41418 41.5206 9.32201C41.6492 9.2588 41.7886 9.29567 41.8422 9.32201C41.9194 9.44841 41.8744 9.66436 41.8422 9.75653C41.7393 9.81973 41.5849 9.8092 41.5206 9.79603Z" fill="#2B1E74" stroke="#595C58"/>
<path d="M34.5977 3.82633V2.91691L35.7845 2.60059V3.31231L34.5977 3.82633Z" fill="#2B1E74" stroke="#595C58"/>
<path d="M36.327 4.30047L36.2949 3.54921L37.2573 3.15381V3.98415L36.327 4.30047Z" fill="#2B1E74" stroke="#595C58"/>
<path d="M1 24.3871H4.62256C8.2387 17.0801 14.1865 13.4609 16.7084 12.5646C23.8381 9.46468 25.877 15.2006 26.0053 18.4561L38.7002 18.5352C39.4696 14.1383 39.0636 11.2466 38.7644 10.3504C37.5846 5.60556 32.4596 4.44571 30.0446 4.45889H26.3579V2.28418C23.0239 2.63213 17.8091 5.14425 15.6185 6.35682C6.23187 11.9873 1.96174 20.7231 1 24.3871Z" fill="#2B1E74" stroke="#595C58"/>
<path d="M26.9668 3.86566V2.48175L28.6018 1.80957V2.95624L26.9668 3.86566Z" fill="#2B1E74" stroke="#595C58"/>
<path d="M29.082 2.36312V3.39117L30.4935 2.91668V1.77002L29.082 2.36312Z" fill="#2B1E74" stroke="#595C58"/>
<path d="M31.0703 2.20491V3.11433L32.4818 2.60031V1.57227L31.0703 2.20491Z" fill="#2B1E74" stroke="#595C58"/>
<path d="M32.8008 3.50983V2.52133L34.3085 1.92822V2.87719L32.8008 3.50983Z" fill="#2B1E74" stroke="#595C58"/>
<path d="M17.5155 25.6918H4.85261C4.45723 27.6029 4.0191 32.2317 5.42965 35.4582C6.84021 38.6847 11.6169 39.6758 13.8289 39.7681C14.9509 39.7813 17.1949 39.7997 17.1949 39.7681V41.9032C21.7344 41.239 26.994 38.4896 29.0564 37.198C31.044 35.8404 35.6796 32.1526 38.3212 28.2619C40.9628 24.3711 42.2857 20.9733 42.617 19.7607H39.0265C36.4939 24.2288 36.013 24.3079 34.378 26.2453C33.0701 27.7953 30.7127 29.5272 29.6976 30.1994C20.4905 36.1462 17.7399 29.6721 17.5155 25.6918Z" fill="#008F6A" stroke="#595C58"/>
<path d="M16.7194 41.4791L16.6553 40.1348L14.9883 41.0442V42.2699L16.7194 41.4791Z" fill="#008F6A" stroke="#595C58"/>
<path d="M14.5392 41.677V40.6094L13.0957 41.0839V42.2305L14.5392 41.677Z" fill="#008F6A" stroke="#595C58"/>
<path d="M12.585 41.7956V40.8467L11.1094 41.4398V42.4283L12.585 41.7956Z" fill="#008F6A" stroke="#595C58"/>
<path d="M10.7892 41.5583V40.4907L9.3457 41.0838V42.1119L10.7892 41.5583Z" fill="#008F6A" stroke="#595C58"/>
<path d="M8.96175 41.0442V40.1743L7.87109 40.6093V41.4396L8.96175 41.0442Z" fill="#008F6A" stroke="#595C58"/>
<path d="M6.33203 40.8464V40.016L7.23022 39.6602L7.35853 40.4114L6.33203 40.8464Z" fill="#008F6A" stroke="#595C58"/>
</svg>
