<svg width="22" height="23" viewBox="0 0 22 23" fill="none" xmlns="http://www.w3.org/2000/svg">
<g clip-path="url(#clip0_165_84)">
<path fill-rule="evenodd" clip-rule="evenodd" d="M7.49108 14.8656C11.0157 18.3902 14.2817 18.7761 15.2406 18.8119C16.3992 18.8541 17.5817 17.9081 18.0932 16.9391C17.2774 15.9821 16.215 15.2396 15.0517 14.4348C14.3652 15.1205 13.5191 16.3946 12.3925 15.9381C11.7517 15.6806 10.1696 14.9518 8.78725 13.5686C7.404 12.1862 6.67616 10.6041 6.41675 9.96423C5.96025 8.83581 7.23808 7.98789 7.92466 7.30131C7.11983 6.11881 6.39016 5.02889 5.435 4.25431C4.45233 4.76764 3.50083 5.94098 3.54391 7.11523C3.57966 8.07406 3.96558 11.3401 7.49108 14.8656ZM15.1727 20.6443C13.8527 20.5957 10.1118 20.0787 6.194 16.1618C2.27708 12.244 1.761 8.50398 1.7115 7.18306C1.63816 5.17006 3.18 3.21481 4.96108 2.45123C5.17556 2.35861 5.41043 2.32335 5.64265 2.3489C5.87487 2.37446 6.09645 2.45994 6.28566 2.59698C7.75966 3.67223 8.77625 5.30114 9.64983 6.57714C9.83156 6.84247 9.91481 7.16299 9.88518 7.48322C9.85555 7.80345 9.71491 8.10324 9.48758 8.33073L8.24458 9.57464C8.53333 10.2117 9.12091 11.3099 10.0834 12.2724C11.0459 13.2349 12.1441 13.8225 12.7821 14.1112L14.0242 12.8682C14.2525 12.6404 14.5536 12.5 14.8748 12.4713C15.1961 12.4427 15.5173 12.5277 15.7823 12.7115C17.084 13.6135 18.613 14.6154 19.7277 16.0426C19.8758 16.2332 19.9701 16.4601 20.0005 16.6996C20.031 16.939 19.9966 17.1823 19.9009 17.4039C19.1337 19.1941 17.1922 20.7186 15.1727 20.6443Z" fill="#008F6A"/>
</g>
<defs>
<clipPath id="clip0_165_84">
<rect width="22" height="22" fill="white" transform="translate(0 0.355957)"/>
</clipPath>
</defs>
</svg>
